<?xml version="1.0" standalone="no"?>
<!DOCTYPE svg PUBLIC "-//W3C//DTD SVG 20010904//EN"
 "http://www.w3.org/TR/2001/REC-SVG-20010904/DTD/svg10.dtd">
<svg version="1.0" xmlns="http://www.w3.org/2000/svg"
 width="1280.000000pt" height="1123.000000pt" viewBox="0 0 1280.000000 1123.000000"
 preserveAspectRatio="xMidYMid meet">
<metadata>
Created by potrace 1.15, written by Peter Selinger 2001-2017
</metadata>
<g transform="translate(0.000000,1123.000000) scale(0.100000,-0.100000)"
fill="#000000" stroke="none">
<path d="M7991 11182 c-28 -29 -81 -112 -136 -212 -119 -217 -199 -338 -352
-533 -69 -89 -141 -186 -160 -214 -24 -38 -47 -60 -83 -78 -163 -82 -537 -131
-1090 -141 l-305 -6 -200 161 c-275 222 -411 346 -584 535 -117 127 -159 167
-204 190 -53 27 -60 28 -98 17 -66 -20 -82 -80 -100 -391 -7 -137 -25 -289
-60 -510 -124 -804 -151 -1040 -153 -1335 -1 -254 -11 -314 -69 -430 -44 -88
-155 -196 -232 -225 -122 -45 -207 -53 -485 -44 -360 12 -424 10 -455 -10 -57
-38 -28 -87 169 -281 408 -403 1007 -832 1281 -918 97 -31 322 -86 434 -107
63 -12 144 -33 180 -47 180 -69 372 -107 801 -158 525 -62 593 -81 637 -177
105 -225 178 -1172 113 -1463 -13 -58 -99 -273 -150 -375 -96 -191 -178 -240
-275 -165 -52 39 -68 79 -124 305 -158 641 -354 1027 -576 1131 -51 24 -189
26 -241 4 -126 -52 -227 -216 -323 -520 -157 -499 -273 -1405 -288 -2243 l-6
-343 -91 6 c-296 21 -412 58 -569 185 -153 123 -277 277 -358 445 -84 175
-115 329 -130 640 -17 370 10 690 86 1021 107 464 130 635 140 1019 7 282 -8
627 -30 710 -43 161 -165 346 -294 446 -132 102 -257 142 -441 142 -265 -1
-550 -111 -900 -346 -585 -394 -1374 -1328 -1870 -2213 -231 -410 -435 -919
-395 -984 10 -16 25 -1 130 130 487 611 1222 1364 1916 1961 310 267 511 410
715 510 254 124 388 116 459 -26 30 -59 30 -62 29 -215 -1 -192 -25 -325 -119
-650 -18 -63 -47 -169 -65 -235 -18 -66 -73 -244 -122 -395 -110 -333 -167
-534 -201 -700 -121 -584 -51 -1014 243 -1510 97 -162 339 -427 580 -634 63
-54 221 -184 350 -289 445 -362 666 -559 641 -576 -18 -12 -101 -19 -366 -31
-263 -12 -620 -36 -765 -51 -491 -51 -1182 -211 -1258 -292 -32 -34 -72 -130
-84 -203 -19 -115 16 -242 82 -297 115 -98 678 -151 1710 -164 486 -6 1125 6
1450 27 149 10 3439 24 4060 18 682 -7 1851 -1 2110 11 869 39 1281 97 1298
184 12 62 -317 152 -883 240 l-220 35 -260 -10 c-518 -19 -1024 22 -1395 112
-606 148 -993 431 -1146 837 -109 288 -93 682 42 1078 70 204 137 505 203 915
140 865 196 1517 157 1835 -27 232 -93 403 -189 500 -68 67 -131 96 -218 103
l-70 5 -44 -46 c-56 -58 -108 -149 -196 -337 -160 -346 -237 -478 -328 -563
-116 -109 -271 -142 -379 -83 -152 84 -296 312 -402 634 -81 247 -120 473
-120 697 0 133 17 236 41 260 49 48 292 180 749 407 563 280 703 353 930 486
403 236 721 501 862 717 70 107 188 323 188 345 0 25 -164 4 -380 -49 -112
-28 -223 -51 -245 -51 -82 1 -198 75 -277 179 -124 164 -205 406 -258 771 -34
235 -93 449 -182 660 -59 139 -106 229 -246 475 -134 234 -187 341 -283 568
-115 273 -166 316 -258 219z m84 -2142 c328 -73 675 -299 675 -440 0 -96 -147
-278 -303 -375 -125 -77 -332 -148 -507 -174 -110 -16 -282 -6 -395 23 -193
50 -275 95 -380 208 -110 120 -148 237 -107 331 57 128 176 234 381 336 123
63 289 123 277 103 -1 -4 -21 -38 -44 -77 -61 -106 -81 -174 -88 -317 -7 -130
5 -266 31 -339 23 -64 102 -176 152 -214 25 -19 49 -35 54 -35 9 0 49 121 78
233 26 100 46 307 37 380 -9 73 -66 187 -146 292 l-61 80 58 5 c70 6 219 -4
288 -20z m-2030 -76 c267 -33 440 -119 632 -316 120 -123 134 -167 92 -291
-41 -123 -111 -190 -315 -301 -97 -54 -136 -69 -200 -80 -116 -21 -194 -26
-194 -14 0 7 -6 6 -15 -2 -18 -15 -76 -8 -235 27 -173 38 -262 69 -402 139
-301 153 -453 289 -433 386 24 113 168 240 388 343 124 57 236 85 445 111 49
5 52 5 52 -16 0 -12 -16 -58 -36 -103 -53 -121 -64 -175 -64 -317 0 -147 13
-207 69 -317 39 -77 78 -121 174 -198 46 -36 48 -37 62 -19 8 10 26 51 40 89
33 88 46 237 34 402 -16 227 -69 330 -234 461 -37 29 -38 31 -15 32 13 0 83
-7 155 -16z"/>
</g>
</svg>
