<?xml version="1.0" encoding="UTF-8"?>
<!DOCTYPE svg PUBLIC "-//W3C//DTD SVG 1.1//EN" "http://www.w3.org/Graphics/SVG/1.1/DTD/svg11.dtd">
<!-- Creator: CorelDRAW X8 -->
<svg xmlns="http://www.w3.org/2000/svg" xml:space="preserve" width="5.51181in" height="7.48031in" version="1.1" style="shape-rendering:geometricPrecision; text-rendering:geometricPrecision; image-rendering:optimizeQuality; fill-rule:evenodd; clip-rule:evenodd"
viewBox="0 0 5512 7480"
 xmlns:xlink="http://www.w3.org/1999/xlink">
 <defs>
  <style type="text/css">
   <![CDATA[
    .fil0 {fill:#F6F1EF}
   ]]>
  </style>
 </defs>
 <g id="Layer_x0020_1">
  <metadata id="CorelCorpID_0Corel-Layer"/>
  <g id="_2028174.svg">
   <g>
    <path class="fil0" d="M2389 1977c-65,18 -125,32 -241,56l-92 18 -2 10c-3,16 -2,43 3,56 6,17 23,39 40,51l14 11 1 21c4,38 2,388 -1,397 -3,8 -5,10 -25,16 -47,15 -81,19 -155,19 -60,0 -73,-1 -110,-7 -23,-4 -50,-8 -60,-9 -18,-2 -19,-2 -28,7 -17,14 -17,35 -1,46 4,2 18,6 33,9 26,4 79,4 261,-1 45,-2 65,-1 73,1 19,7 34,28 45,65 10,30 12,51 12,94 0,67 -17,146 -50,232 -7,18 -10,19 -29,14 -18,-6 -38,-22 -64,-55 -58,-75 -128,-114 -200,-115 -125,0 -201,124 -192,314 1,23 4,75 8,117 4,54 6,99 6,162 0,100 -3,127 -23,186 -21,66 -50,109 -83,125 -15,7 -19,7 -51,7 -34,0 -35,0 -76,-15 -71,-24 -107,-30 -141,-22 -16,4 -57,24 -84,41 -69,46 -118,120 -142,214 -11,40 -8,61 10,61 11,0 21,-13 29,-41 27,-91 44,-123 93,-171l22 -22 -19 37c-37,72 -53,123 -59,187 -4,41 0,100 8,119 8,20 24,27 37,17 9,-7 10,-20 8,-65 -5,-71 3,-127 23,-175 10,-21 36,-70 37,-68 1,1 -2,10 -7,21 -11,26 -18,51 -24,82 -6,30 -7,101 -2,132 6,34 18,84 22,92 7,13 26,16 38,6 7,-6 6,-15 -4,-62 -15,-72 -16,-130 -5,-183 5,-21 6,-15 2,10 -3,28 -1,87 6,129 6,38 24,117 30,130 6,15 29,22 42,13 8,-6 8,-13 -1,-37 -11,-33 -21,-81 -23,-116 -5,-64 4,-123 34,-220 11,-35 12,-35 31,-26 14,6 25,19 29,33 7,26 1,57 -25,135 -14,40 -17,51 -15,59 3,17 8,28 16,33 16,10 29,-8 59,-82 26,-65 28,-119 6,-162 -5,-10 -5,-11 0,-9 27,12 44,16 68,15 20,-1 26,-3 42,-10 41,-20 79,-70 114,-151 68,-156 88,-308 66,-498 -6,-51 -6,-142 -1,-167 7,-32 16,-56 27,-72 52,-76 157,-40 251,86 27,36 40,48 58,54l9 3 -35 69c-66,133 -101,225 -125,331 -32,143 -35,303 -6,387 19,57 43,93 98,148 45,45 61,67 76,104 26,65 37,137 37,237 0,67 -3,104 -13,174 -23,150 -82,334 -145,455 -13,26 -33,64 -44,85 -20,40 -38,89 -42,113l-2 14 34 0 33 0 40 16 40 16 61 3c33,2 96,2 139,2 69,-2 89,-1 193,7 110,8 120,9 215,7l100 -2 85 13c46,6 85,11 86,11 0,-1 -1,-23 -4,-50 -12,-130 -9,-176 22,-341 48,-261 57,-398 33,-541 -7,-42 -25,-107 -40,-149 -63,-168 -204,-341 -408,-499 -57,-45 -70,-59 -84,-95 -5,-14 -6,-21 -6,-48 0,-53 9,-81 62,-188 34,-68 49,-108 61,-160 4,-15 8,-27 8,-27 1,0 11,6 21,14 41,31 82,52 126,64 19,5 29,6 77,6 58,0 82,-2 140,-14 119,-23 248,-79 322,-138 48,-38 81,-102 97,-186 3,-20 5,-41 5,-96 0,-118 -13,-189 -45,-254 -25,-51 -39,-68 -126,-156 -37,-38 -72,-75 -77,-81l-9 -12 32 -15c76,-37 117,-76 148,-141 24,-49 34,-103 24,-126 -5,-13 -18,-24 -28,-24 -14,0 -24,14 -31,42 -15,54 -19,66 -30,91 -14,29 -31,48 -55,60 -8,5 -16,8 -17,7 -1,-1 5,-16 12,-33 24,-55 29,-76 29,-118 1,-40 -3,-52 -18,-63 -18,-13 -44,-8 -56,10 -4,7 -5,11 -3,26 1,10 2,31 2,46 0,28 -2,39 -19,88 -1,2 -5,-5 -8,-15 -19,-60 -54,-104 -112,-139 -30,-18 -41,-21 -55,-14 -16,8 -24,21 -23,39 2,19 9,27 39,43 66,35 97,71 97,111 0,20 -7,47 -12,47 -2,0 -17,-12 -34,-27 -60,-52 -78,-62 -115,-63 -79,-1 -139,74 -128,159 4,34 17,64 31,72l8 6 -13 6c-81,36 -173,72 -186,72 -5,0 -10,-1 -12,-2 -2,-2 -6,-16 -9,-35 -3,-18 -11,-60 -19,-93 -19,-83 -21,-99 -19,-154 2,-49 0,-72 -13,-160 -7,-44 -28,-133 -32,-137 -1,-1 -25,5 -53,13l0 0zm480 324c18,8 46,28 58,42 4,5 6,11 8,26 1,10 4,30 7,44l5 25 -17 26c-33,52 -52,69 -76,66 -15,-1 -28,-11 -41,-30l-10 -14 6 -8c4,-5 6,-12 6,-20 0,-6 -1,-16 -1,-21 0,-6 -5,-24 -11,-41 -19,-49 -17,-73 6,-94 10,-9 12,-10 27,-10 12,0 20,2 33,9l0 0zm186 168c64,59 110,107 128,133 56,79 85,185 85,311 0,63 -4,91 -18,131 -21,62 -50,92 -131,140 -114,66 -226,100 -332,100 -92,0 -156,-25 -215,-83l-24 -24 5 -39c9,-69 26,-251 25,-287 0,-47 -3,-63 -32,-157 -10,-34 -12,-50 -6,-58 2,-2 17,-12 34,-22 17,-10 51,-30 76,-45 48,-28 91,-50 104,-53 7,-2 7,-1 7,5 0,20 17,46 37,56 40,20 97,-3 157,-62 18,-18 46,-53 55,-71 3,-5 6,-10 6,-10 1,0 18,16 39,35l0 0zm-579 270c20,18 27,44 27,96 0,88 -24,124 -60,93 -15,-13 -21,-27 -24,-56 -5,-52 8,-112 29,-135 8,-8 17,-8 28,2zm-130 43c9,9 12,22 14,57 4,68 -11,105 -38,94 -12,-5 -23,-19 -28,-33 -2,-7 -3,-26 -3,-47 0,-30 0,-36 6,-48 9,-21 19,-29 32,-29 7,0 12,2 17,6l0 0z"/>
    <path class="fil0" d="M3061 4336c-6,7 -6,37 0,120 13,184 14,220 7,309 -4,48 -4,64 -2,92 9,95 42,150 117,194 11,6 20,12 20,13 0,2 -36,94 -51,132 -32,78 -64,148 -92,199 -8,16 -15,30 -15,31 0,2 98,52 102,52 2,0 3,-3 3,-8 0,-31 15,-109 30,-161 14,-50 79,-222 83,-222 1,0 6,2 13,6 13,6 43,13 59,13 9,0 10,1 8,5 -16,41 -96,366 -91,370 2,2 88,20 94,20 2,0 4,-15 5,-42 4,-98 27,-209 68,-326l10 -31 74 -1c94,-1 232,3 329,11 41,3 75,6 76,6 0,1 -1,8 -4,16 -8,31 -24,112 -38,194 -24,132 -28,161 -25,164 1,1 18,6 37,11 33,9 34,9 38,4 7,-9 20,-55 33,-116 30,-137 46,-195 65,-236l10 -22 12 2c16,3 71,18 73,21 2,1 -3,22 -11,45 -17,52 -30,97 -46,162 -13,51 -33,146 -32,147 2,2 67,7 68,6 1,0 4,-16 7,-35 7,-44 14,-79 27,-133 18,-71 48,-168 54,-175 19,-25 22,-31 30,-57 15,-50 22,-57 75,-80 68,-31 120,-75 150,-128 35,-61 55,-145 52,-206 -4,-52 -16,-82 -47,-111 -32,-30 -80,-50 -131,-53 -31,-2 -61,4 -91,18 -57,29 -92,86 -92,153 0,27 3,42 13,61 18,35 72,61 132,62 25,1 27,0 47,-10 26,-13 56,-39 66,-59 10,-20 12,-47 4,-64 -14,-29 -69,-65 -103,-67 -14,-1 -17,0 -29,7 -22,14 -38,41 -38,64 0,15 5,25 18,36 18,15 42,14 50,-3 5,-8 5,-9 -4,-21 -10,-14 -11,-21 -2,-28 14,-14 40,-11 56,6 27,27 16,62 -25,81 -38,18 -100,9 -126,-18 -17,-18 -22,-56 -11,-89 15,-51 55,-76 119,-76 76,1 118,33 137,103 10,43 4,96 -18,144 -32,69 -77,98 -151,99 -42,0 -196,-23 -279,-41 -32,-7 -256,-53 -281,-58 -13,-2 -25,-5 -28,-6 -4,-1 -5,-7 -5,-39 -1,-35 -2,-40 -9,-54l-8 -17 18 -29c17,-31 34,-58 98,-156 60,-93 78,-133 67,-144 -5,-5 -22,-4 -37,3 -17,8 -54,44 -127,123 -27,29 -65,69 -85,89l-36 35 -23 0c-79,-2 -308,-11 -309,-12 -1,-1 -17,-37 -36,-80 -39,-88 -58,-132 -71,-173 -10,-32 -21,-47 -34,-47 -4,0 -9,2 -11,5l0 0zm199 390l6 2 -10 50c-5,27 -11,51 -12,52 -3,3 -20,-9 -36,-26 -15,-16 -34,-45 -42,-65l-5 -10 9 -2c29,-6 75,-7 90,-1l0 0zm78 70c7,14 12,25 11,26 -2,2 -39,14 -41,13 -1,-1 -2,-21 -2,-44l0 -42 10 11c5,6 15,23 22,36zm146 -36c0,3 -34,87 -37,89 -3,4 -26,-10 -45,-30 -18,-18 -19,-19 -14,-24 11,-12 55,-31 80,-34 15,-2 16,-2 16,-1l0 0zm62 17c14,8 38,32 45,46 4,9 4,9 -2,15 -12,9 -35,18 -58,23 -12,2 -23,4 -24,3 -1,-1 16,-79 20,-91 1,-5 5,-4 19,4l0 0z"/>
   </g>
  </g>
 </g>
</svg>
