<?xml version="1.0" encoding="UTF-8"?>
<!DOCTYPE svg PUBLIC "-//W3C//DTD SVG 1.1//EN" "http://www.w3.org/Graphics/SVG/1.1/DTD/svg11.dtd">
<!-- Creator: CorelDRAW X8 -->
<svg xmlns="http://www.w3.org/2000/svg" xml:space="preserve" width="5.51181in" height="7.48031in" version="1.1" style="shape-rendering:geometricPrecision; text-rendering:geometricPrecision; image-rendering:optimizeQuality; fill-rule:evenodd; clip-rule:evenodd"
viewBox="0 0 5512 7480"
 xmlns:xlink="http://www.w3.org/1999/xlink">
 <defs>
  <style type="text/css">
   <![CDATA[
    .fil0 {fill:#A89B8A}
   ]]>
  </style>
 </defs>
 <g id="Layer_x0020_1">
  <metadata id="CorelCorpID_0Corel-Layer"/>
  <g id="_1648060987728">
   <path class="fil0" d="M2897 329c-2,4 -2,21 1,38 20,139 86,277 272,569 100,157 164,270 187,326l14 37 -12 26c-17,40 -58,99 -87,126 -43,40 -70,53 -120,56 -26,2 -53,8 -69,15 -31,15 -106,39 -119,39 -4,0 -15,-11 -22,-24 -14,-22 -16,-33 -24,-140 -20,-237 -60,-430 -106,-510 -30,-50 -84,-92 -120,-92 -12,0 -8,5 26,37 58,55 75,95 94,217 12,81 25,233 25,298l0 55 -18 -15c-10,-8 -40,-32 -67,-52 -57,-43 -80,-74 -102,-138 -13,-38 -16,-55 -18,-125 -4,-127 21,-262 90,-488 32,-105 40,-134 35,-134 -5,0 -22,39 -70,156 -73,176 -123,354 -123,440 0,19 -5,65 -11,101 -13,80 -14,163 -3,262 20,174 3,266 -57,310 -38,28 -46,38 -50,67l-4 26 -23 -41c-28,-50 -48,-99 -64,-157 -11,-39 -12,-57 -12,-144 1,-105 9,-153 52,-328 7,-28 13,-59 15,-70 1,-16 -2,-12 -20,25 -79,159 -123,312 -123,427 0,122 22,190 133,412 108,218 174,365 166,373 0,0 -19,-3 -40,-7 -28,-5 -43,-11 -50,-21 -6,-6 -29,-33 -50,-59 -21,-25 -51,-60 -66,-77 -48,-55 -135,-175 -184,-250 -115,-181 -176,-348 -185,-501 -4,-87 5,-154 38,-270 34,-118 36,-153 11,-192 -31,-48 -109,-88 -263,-135 -151,-45 -299,-67 -299,-44 0,4 7,9 16,12 111,24 267,74 334,105 72,34 107,61 125,97 28,57 19,104 -47,244 -45,99 -54,121 -66,174 -43,177 7,321 180,517 18,22 84,94 146,161 62,67 112,124 112,126 0,1 -22,2 -49,1 -42,-1 -53,0 -73,10l-23 12 -20 -15c-37,-27 -209,-203 -252,-258 -70,-88 -118,-161 -148,-222 -42,-87 -91,-157 -148,-215 -74,-73 -149,-116 -261,-148 -56,-17 -198,-39 -232,-36l-24 2 33 10c252,75 353,129 446,239 33,37 83,113 78,118 -2,2 -32,-3 -67,-11 -56,-13 -76,-15 -170,-15 -58,0 -125,3 -149,6 -111,14 -136,18 -185,28 -62,12 -99,20 -222,50 -51,12 -101,24 -113,26 -12,3 -21,7 -19,10 1,3 32,5 82,4 79,0 83,-1 147,-23 107,-36 212,-48 347,-43 176,7 290,57 391,172 52,59 115,138 123,154 14,27 57,177 51,177 -1,0 -14,-5 -28,-11 -111,-49 -291,-56 -452,-19 -219,52 -478,209 -634,387 -46,52 -88,108 -83,113 2,2 14,-7 27,-18 36,-32 337,-239 414,-285 80,-49 185,-100 243,-119 82,-26 124,-32 219,-30 105,4 137,11 257,64 44,18 88,36 96,38 8,2 15,7 14,9 -1,4 -26,20 -54,36 -81,47 -125,83 -203,167 -156,167 -212,213 -334,271 -66,32 -165,70 -212,81 -16,3 -29,9 -29,11 0,17 156,13 224,-5 60,-16 134,-52 208,-102 35,-24 64,-43 66,-43 1,0 2,6 2,14 0,7 9,38 20,68 16,45 20,64 23,110l2 56 -49 21c-27,12 -51,24 -55,27 -3,3 15,4 47,1l52 -4 -3 31c-8,69 -88,255 -141,326 -18,25 -31,36 -60,50 -20,10 -36,19 -36,20 0,2 9,2 20,-1 54,-10 118,-64 174,-148 53,-79 81,-143 121,-282 4,-12 11,-14 96,-31 165,-34 295,-85 359,-143 35,-32 61,-82 67,-125 3,-25 4,-28 13,-23 5,2 35,45 67,93 32,49 59,89 62,89 10,1 3,-48 -13,-94 -19,-58 -50,-122 -117,-239 -40,-70 -49,-91 -49,-109 0,-34 4,-40 26,-40 23,0 33,5 77,38 18,15 51,38 72,52 50,32 73,55 107,111 70,116 141,286 193,466 11,38 22,73 25,78 3,6 5,40 5,77 0,51 -3,80 -14,125 -20,85 -40,212 -46,291 -4,39 -10,83 -15,99 -11,38 -74,168 -170,355 -68,133 -81,155 -111,185 -47,47 -100,81 -220,139 -131,64 -192,100 -317,183 -119,80 -170,119 -225,178 -68,73 -122,165 -146,248 -21,75 -59,181 -85,236 -73,156 -123,331 -148,514 -19,146 -28,543 -15,644 16,113 52,228 97,307 13,22 24,40 24,39 1,-1 -7,-30 -18,-65 -66,-220 -74,-475 -23,-834 18,-132 32,-205 46,-241 7,-19 15,-43 17,-53 5,-30 32,-106 37,-106 3,0 8,15 19,59 2,6 9,25 16,41 7,17 23,56 36,87 12,30 29,64 36,75 20,30 32,104 35,227 4,165 -14,263 -75,405 -1,3 1,6 6,6 19,0 71,-113 101,-216 29,-103 37,-154 38,-260 1,-94 1,-98 14,-108 15,-12 32,-13 65,-4 51,14 89,85 89,169 0,52 -2,56 -72,149 -26,34 -57,79 -70,101 -159,265 -163,550 -10,753 29,38 103,109 108,103 1,-1 -17,-30 -40,-65 -121,-182 -155,-321 -121,-496 24,-125 85,-236 186,-340 50,-51 54,-54 57,-41 3,16 67,631 76,733 7,76 13,100 23,90 5,-5 5,-8 0,-13 -5,-5 -7,-27 -7,-65 0,-31 -4,-160 -9,-286 -4,-126 -9,-304 -9,-395 -1,-158 -1,-168 10,-188 11,-20 167,-202 212,-247 51,-50 157,-234 157,-270 0,-11 2,-13 11,-11 21,6 24,107 3,203 -26,127 -65,223 -156,385 -52,93 -67,139 -50,158 5,5 9,12 9,15 0,18 353,579 367,584 3,1 9,11 14,22 4,12 45,75 90,141 45,67 84,126 87,132 7,14 25,26 25,15 0,-4 -2,-9 -4,-10 -3,-1 -18,-32 -34,-68 -16,-37 -42,-90 -58,-117 -48,-86 -83,-148 -102,-187 -24,-50 -137,-238 -215,-357 -80,-125 -76,-118 -76,-128 0,-11 41,-74 90,-141 21,-29 40,-56 42,-61 2,-5 12,-19 22,-32 46,-57 142,-245 164,-319 3,-11 10,-29 16,-42 13,-28 37,-119 41,-155 2,-16 6,-37 9,-47 2,-11 6,-35 9,-53 4,-42 6,-45 18,-30 19,24 35,63 75,176 23,63 55,149 72,190 47,117 55,152 53,261 -1,8 -3,19 -7,25 -3,6 -10,27 -15,47 -5,20 -28,82 -50,139 -22,57 -53,138 -68,181 -15,42 -30,82 -34,89 -13,19 -26,65 -27,88 0,13 -4,28 -9,34l-8 11 11 -11c7,-6 27,-39 44,-72 56,-110 172,-344 180,-363 4,-11 11,-18 17,-18 14,0 18,43 14,143 -3,56 -2,87 2,98 4,10 7,51 7,101 0,65 1,86 7,91 6,5 8,1 11,-20 9,-75 14,-184 14,-355 2,-339 3,-320 -16,-411 -22,-109 -30,-136 -76,-255 -44,-113 -58,-155 -94,-289 -18,-69 -28,-97 -38,-108 -20,-22 -21,-33 -12,-93 11,-65 40,-157 72,-230 13,-29 28,-64 33,-78 17,-45 23,-49 64,-44 19,3 37,7 40,9 3,4 2,13 -2,25 -27,66 -23,122 9,146 10,8 43,33 74,56 65,48 80,65 99,113 41,102 58,210 48,308 -12,112 -45,202 -106,296 -27,41 -34,55 -34,73 0,19 4,26 20,40 19,17 33,22 94,34 57,12 68,26 125,172l50 125 0 -58c0,-106 -25,-181 -81,-237 -31,-31 -76,-58 -118,-68 -12,-4 -23,-8 -23,-11 0,-6 30,-53 61,-95 38,-52 85,-167 106,-264 37,-161 -14,-306 -167,-478 -67,-74 -75,-93 -60,-129 11,-26 26,-35 61,-35 16,0 34,4 39,7 21,18 52,64 68,103 10,24 34,75 53,114 40,83 91,212 116,290 10,31 21,59 25,64 4,4 15,37 25,72 9,35 21,79 26,97 5,19 17,65 27,103 23,85 47,145 58,145 5,0 7,-4 4,-13 -2,-7 -6,-26 -9,-43 -3,-17 -9,-49 -13,-72 -13,-62 -20,-124 -20,-168 0,-51 -14,-182 -25,-240 -17,-85 -42,-154 -100,-267 -31,-61 -59,-117 -61,-125 -5,-15 -6,-16 67,14 97,38 138,61 144,81 2,5 8,12 15,13 13,5 55,69 83,129 24,53 47,138 55,213 3,29 11,73 17,99 12,47 37,111 38,94 1,-32 -32,-285 -47,-360 -24,-115 -80,-233 -126,-267 -13,-9 -48,-24 -78,-33 -69,-22 -85,-34 -80,-62 3,-14 9,-23 25,-33 19,-13 22,-14 41,-7 12,4 53,29 92,56 39,27 136,90 215,141 124,79 145,94 148,108 3,9 11,66 19,125 16,127 30,187 52,238 23,52 33,155 23,229 -10,72 -35,169 -53,205 -61,120 -143,208 -516,546 -96,89 -176,162 -176,163 0,1 59,-36 130,-82 133,-86 438,-321 435,-334 0,-3 5,-7 13,-8 12,-3 12,-2 4,14 -29,55 -119,250 -143,311 -16,41 -34,80 -39,87 -6,7 -11,17 -11,21 0,4 -13,37 -28,73 -40,96 -32,92 34,-19 19,-32 43,-70 53,-83 11,-15 19,-28 19,-30 0,-2 19,-36 43,-74 23,-39 55,-99 71,-132 17,-34 51,-102 77,-152 26,-50 48,-94 48,-98 0,-4 4,-10 8,-14 5,-4 10,-15 12,-27 2,-11 13,-43 25,-73 25,-60 83,-235 83,-250 0,-35 20,-30 40,10 7,15 36,66 64,115 28,48 52,96 55,105 5,24 48,136 72,187l20 43 -105 119c-139,158 -155,176 -200,238 -77,104 -135,218 -180,351 -21,63 -57,199 -54,203 2,0 10,-19 21,-45 68,-169 202,-394 327,-553 60,-75 171,-199 186,-207 16,-9 23,3 36,67 19,94 24,147 28,250 2,59 6,98 9,98 10,0 19,-71 19,-148 1,-68 -13,-185 -33,-299 -3,-17 -3,-33 -1,-36 18,-32 98,-137 105,-137 8,0 11,11 16,70 2,46 27,251 34,286 3,19 3,19 7,5 9,-32 19,-212 20,-386 1,-141 4,-196 11,-239 19,-112 6,-260 -40,-449 -11,-45 -18,-83 -17,-85 22,-21 97,154 137,317 20,79 64,322 77,423 3,27 3,27 8,11 2,-9 2,-79 -1,-156 -7,-177 -7,-163 2,-160 17,7 63,172 87,308 11,64 12,81 9,216 -4,186 -12,239 -55,371 -9,29 -15,54 -13,55 8,9 23,-9 50,-63 46,-92 77,-203 95,-337 11,-88 10,-143 -4,-205 -6,-28 -15,-71 -19,-96 -25,-130 -68,-275 -122,-414 -34,-89 -94,-223 -125,-281 -12,-23 -22,-45 -22,-50 0,-10 -109,-210 -165,-302 -53,-88 -119,-187 -169,-250 -55,-72 -199,-217 -283,-286 -38,-32 -125,-105 -194,-162 -69,-56 -126,-106 -127,-110 -3,-15 77,-161 187,-342 62,-102 117,-190 122,-196 5,-5 7,-9 5,-9 -6,0 55,-117 86,-164 14,-22 46,-74 70,-117 25,-43 63,-108 86,-145 23,-37 66,-118 96,-180 30,-63 62,-124 72,-137 33,-43 79,-91 89,-91 6,0 8,-3 6,-9 -2,-5 43,-61 142,-174 79,-92 147,-168 149,-169 8,-5 10,16 18,133 7,119 4,375 -7,563 -6,113 -1,148 11,77 15,-88 39,-266 45,-332 3,-38 9,-92 12,-120 7,-79 6,-290 -4,-363 -17,-141 -56,-223 -120,-256 -11,-6 -27,-11 -35,-11 -7,0 -25,-2 -37,-5 -14,-3 -72,-13 -130,-23 -213,-34 -326,-71 -371,-121 -19,-21 -21,-25 -21,-59l0 -36 30 0c44,0 157,-16 207,-28 126,-32 245,-86 356,-161 80,-53 126,-90 198,-156 61,-57 78,-83 75,-118l-2 -23 -7 16c-21,48 -27,56 -80,97 -188,144 -375,232 -574,270 -67,13 -92,15 -189,16 -76,1 -116,-2 -126,-6l-15 -7 0 -69c0,-57 -4,-90 -20,-177 -11,-59 -22,-114 -23,-122 -3,-13 -1,-16 18,-21 12,-3 60,-9 105,-14 221,-23 316,-55 360,-120 12,-18 15,-29 15,-53 0,-16 -1,-30 -2,-30 -1,0 -10,12 -20,28 -22,35 -47,57 -89,78 -56,28 -120,39 -255,42 -133,3 -165,8 -190,28 -14,13 -16,17 -16,48 0,19 9,79 19,134 20,102 24,152 14,187 -9,34 -14,35 -78,20 -86,-21 -167,-36 -234,-45 -34,-4 -62,-9 -64,-11 -2,-2 0,-9 4,-16 27,-43 31,-56 30,-118 0,-48 -3,-68 -12,-96 -11,-30 -12,-39 -7,-69 9,-50 13,-198 7,-224l-5 -22 -6 31c-20,92 -36,155 -41,155 -3,0 -8,-6 -11,-15 -11,-29 -81,-141 -210,-335 -180,-270 -230,-357 -270,-469 -10,-26 -19,-45 -20,-41l0 0zm-219 1057c57,56 114,121 139,159 17,25 17,25 13,80 -2,31 -4,79 -5,106 0,28 -7,90 -13,139 -12,81 -25,274 -34,504 -4,80 -9,103 -18,77 -1,-5 -20,-49 -40,-98 -21,-49 -47,-119 -58,-156 -11,-36 -42,-133 -70,-216 -37,-112 -50,-157 -50,-179 0,-28 1,-29 32,-53 20,-15 36,-33 45,-50 13,-24 14,-33 14,-98 0,-74 -6,-128 -24,-206 -6,-26 -12,-64 -14,-84l-4 -36 18 31c10,16 41,53 69,80l0 0zm1095 335c153,37 159,41 175,114 16,77 35,99 112,135 75,34 186,58 360,77 69,8 134,16 144,18 26,4 45,16 45,29 -1,5 -95,85 -240,201 -131,105 -244,194 -250,197 -8,5 -33,3 -98,-8 -99,-18 -173,-33 -173,-38 0,-2 23,-39 52,-82 52,-78 52,-79 89,-96 64,-30 107,-88 131,-175 17,-60 13,-68 -13,-29 -43,65 -109,118 -178,142 -27,10 -50,13 -119,15 -103,3 -139,-1 -315,-41 -131,-30 -143,-31 -217,-32 -68,-1 -83,1 -114,12 -21,7 -50,21 -64,32l-27 19 -2 -78c-1,-52 1,-81 5,-86 9,-11 86,-39 183,-67 128,-36 169,-51 226,-78 81,-38 135,-96 144,-155l4 -20 -41 41c-85,83 -164,116 -394,162 -54,11 -104,22 -111,24 -14,3 -14,3 4,-19 19,-24 72,-72 123,-111 64,-51 152,-93 235,-112 39,-10 61,-11 149,-10 92,2 110,4 175,19l0 0zm872 440c8,26 16,64 18,84l3 37 -144 166c-80,91 -150,171 -157,177 -12,10 -13,10 -54,1 -23,-6 -62,-20 -86,-32 -37,-19 -46,-26 -56,-45 -6,-12 -17,-28 -26,-36 -12,-11 -13,-14 -6,-21 19,-17 464,-373 474,-379 7,-3 13,-5 16,-3 1,2 10,25 18,51zm-1192 64c63,9 75,11 192,36 100,21 201,33 249,30 22,-2 37,-1 37,2 0,13 -94,149 -104,151 -6,1 -21,-8 -35,-20 -35,-31 -73,-55 -110,-72 -17,-8 -34,-18 -36,-22 -3,-4 -7,-6 -9,-5 -3,1 -24,-3 -48,-9 -38,-10 -60,-12 -158,-12 -125,-1 -156,4 -255,40 -26,10 -48,16 -49,15 -5,-5 51,-72 75,-89 28,-21 76,-39 123,-47 45,-7 64,-7 128,2l0 0zm-89 225c-10,6 -137,39 -149,39 -6,0 0,-8 16,-22l25 -22 58 0c36,0 55,2 50,5l0 0zm14 35c2,13 5,31 7,41l3 18 -61 20c-33,11 -63,20 -66,20 -8,0 -44,-77 -39,-82 4,-5 132,-40 146,-40 4,-1 8,10 10,23l0 0zm53 18l0 42 -16 0c-18,0 -21,-5 -26,-50l-4 -34 23 0 23 0 0 42zm-1398 128c9,18 25,48 37,67 12,18 22,38 22,44 0,18 -45,54 -112,89 -56,30 -285,141 -290,141 -1,0 -3,-22 -5,-49 -2,-37 -6,-57 -17,-81 -8,-18 -15,-36 -15,-40 0,-9 93,-142 140,-200 27,-33 42,-45 84,-69 28,-16 70,-37 93,-47l42 -17 3 64c2,54 5,70 18,98zm1531 -158c33,7 34,12 20,59 -9,29 -10,29 -30,29 -11,0 -23,-2 -27,-4 -3,-2 -7,-22 -8,-47 -2,-49 -4,-48 45,-37zm113 24c81,17 98,22 98,33 0,4 -12,26 -27,50l-28 41 -65 -25c-36,-14 -67,-26 -68,-27 -2,-2 16,-85 19,-85 1,0 33,6 71,13l0 0zm-452 46c10,21 17,41 16,45 -1,4 -29,18 -63,31 -55,22 -61,23 -63,14 -1,-11 31,-77 48,-97 10,-12 35,-30 41,-30 2,0 11,16 21,37l0 0zm795 7l25 3 -44 36c-24,20 -45,37 -47,38 -2,0 -13,-7 -25,-16 -20,-17 -31,-34 -40,-60l-4 -12 55 3c30,3 66,6 80,8l0 0zm-211 20c29,42 61,115 55,125 -6,12 -37,35 -43,32 -2,-1 -24,-23 -49,-49l-46 -47 28 -44c15,-23 30,-42 33,-42 2,0 12,11 22,25zm-420 -2c5,19 14,84 14,94 0,7 -13,14 -45,24 -24,9 -45,14 -47,13 -7,-7 -47,-95 -45,-100 2,-6 98,-42 113,-43 4,0 9,5 10,12l0 0zm33 19c-2,18 -4,34 -5,35 -6,6 -13,-10 -16,-37 -4,-29 -3,-29 11,-29 14,0 14,0 10,31zm711 -1c32,49 65,63 157,65 26,1 47,4 47,6 0,2 -15,21 -34,42 -33,37 -35,40 -85,56 -28,9 -73,24 -100,34 -27,10 -51,16 -54,13 -2,-2 -21,-36 -42,-74 -20,-38 -42,-75 -49,-82l-11 -12 22 -19c62,-51 75,-59 103,-59 25,0 26,0 46,30l0 0zm-563 -7c0,3 -3,20 -8,37 -4,18 -9,38 -11,46 -3,13 -7,16 -20,16 -19,0 -19,-2 -13,-68l4 -38 23 0c15,0 25,3 25,7l0 0zm79 24c34,13 62,27 61,31 -3,13 -55,88 -60,88 -6,0 -16,-3 -70,-27l-26 -11 8 -32c17,-66 20,-74 22,-74 1,0 30,11 65,25l0 0zm-370 52l24 51 -43 28c-22,15 -43,27 -45,27 -2,0 -26,-22 -53,-50 -35,-35 -48,-51 -44,-55 7,-7 125,-55 132,-54 3,1 15,25 29,53l0 0zm663 -21c0,3 -14,11 -20,11 -1,0 -2,-6 -2,-14 0,-13 1,-14 11,-7 6,3 11,8 11,10l0 0zm-160 67l33 38 -38 31c-57,47 -52,47 -85,2 -16,-21 -28,-42 -26,-46 2,-4 14,-26 29,-48l25 -40 15 13c8,7 29,30 47,50l0 0zm232 30l43 78 -20 8c-42,19 -53,19 -69,0 -9,-10 -15,-27 -18,-43 -2,-15 -7,-46 -12,-70 -8,-40 -7,-44 2,-54 15,-17 25,-6 74,81l0 0zm-826 90c-21,44 -24,49 -38,48 -8,-1 -21,-5 -28,-10 -13,-9 -13,-10 -13,-99l0 -90 51 51 51 51 -23 49 0 0zm215 -101c0,39 -3,43 -39,50 -19,3 -20,2 -33,-25 -9,-20 -11,-30 -7,-34 5,-5 64,-26 75,-27 3,0 4,16 4,36l0 0zm135 -13c-6,32 -12,43 -24,43 -10,0 -11,-2 -7,-24 5,-35 6,-37 21,-37 12,0 14,2 10,18l0 0zm90 18l20 8 -18 28c-9,15 -18,28 -19,28 -2,0 -70,-33 -73,-35 -1,-2 7,-37 12,-52 3,-7 14,-4 78,23l0 0zm264 49c8,33 13,60 11,60 -5,0 -66,-88 -66,-95 0,-7 28,-28 35,-26 3,1 12,28 20,61zm-567 -20l13 28 -21 19c-39,34 -35,34 -64,3 -14,-15 -25,-29 -26,-32 -3,-6 78,-56 82,-51 1,3 9,17 16,33l0 0zm360 23c13,18 24,37 24,42 0,7 -15,20 -37,33 -7,4 -52,-47 -52,-57 0,-6 33,-50 38,-50 2,0 14,15 27,32l0 0zm187 34c20,29 36,53 35,54 -4,2 -128,46 -129,45 -21,-36 -47,-83 -47,-86 0,-4 21,-23 46,-43 36,-29 47,-35 52,-29 4,3 23,30 43,59l0 0zm368 -21c-55,117 -93,193 -101,196 -22,8 -29,4 -35,-25 -10,-44 -10,-44 21,-44 40,0 39,-8 -2,-20l-35 -10 -7 -32c-4,-18 -6,-34 -6,-36 2,-4 169,-68 179,-68 3,-1 -4,18 -14,39zm-721 -5c-5,24 -15,40 -21,35 -3,-4 -1,-48 4,-54 1,-3 6,-5 12,-5 9,0 10,3 5,24l0 0zm53 -4c16,9 30,16 31,17 1,1 -5,12 -13,24l-15 23 -21 -9c-11,-5 -24,-10 -27,-12 -4,-2 -7,-6 -5,-10 2,-4 5,-17 7,-27 1,-11 5,-20 8,-20 3,0 18,7 35,14zm-169 25c0,18 -2,33 -5,33 -3,0 -9,1 -13,3 -6,2 -12,-6 -20,-26 -13,-29 -12,-35 8,-40 29,-7 30,-6 30,30zm-154 10l27 26 -19 33c-12,17 -21,33 -22,34 -1,2 -16,-4 -33,-12l-32 -14 8 -18c25,-58 34,-76 39,-76 3,0 18,12 32,27l0 0zm108 6l12 27 -19 18 -19 19 -19 -19c-11,-11 -20,-22 -20,-26 0,-6 43,-46 50,-46 2,0 8,12 15,27l0 0zm302 40c0,2 -9,10 -21,19l-20 15 -19 -20c-17,-19 -18,-22 -11,-33 5,-7 11,-18 16,-25l8 -13 23 27c13,14 24,28 24,30l0 0zm410 -13c3,14 5,27 4,27 -3,4 -50,-16 -60,-25 -10,-9 -10,-9 11,-19 34,-15 39,-13 45,17l0 0zm-566 -8c0,8 -5,19 -11,26l-10 14 3 -22c3,-19 9,-30 17,-31 1,0 1,6 1,13l0 0zm241 28c11,18 20,36 20,40 0,8 -45,27 -55,23 -4,-1 -13,-17 -21,-35l-13 -33 21 -18c12,-10 23,-16 25,-14 2,3 13,19 23,37zm-200 -27c24,10 24,12 9,39l-13 20 -16 -16c-14,-14 -16,-20 -12,-34 4,-20 5,-20 32,-9l0 0zm-229 74c-13,26 -15,26 -45,14 -24,-9 -27,-17 -14,-38 4,-8 12,-21 17,-28l9 -15 22 22 23 22 -12 23 0 0zm100 -40c8,21 8,25 2,28 -5,2 -9,2 -10,1 -5,-8 -20,-45 -20,-49 0,-4 4,-6 10,-6 6,0 12,9 18,26l0 0zm-27 9c13,31 12,32 -9,32 -12,0 -22,-5 -31,-13l-12 -13 17 -15c10,-8 20,-15 21,-15 3,0 9,11 14,24l0 0zm-232 6c4,6 9,31 11,55l4 42 -24 -3c-14,-1 -25,-3 -25,-4 -1,0 -3,-26 -5,-57l-4 -57 17 6c10,3 22,12 26,18l0 0zm441 -3l13 18 -31 0 -31 0 12 -20c13,-22 18,-22 37,2l0 0zm373 -4c20,8 52,18 71,21 19,3 37,7 39,9 6,3 20,68 16,73 -2,2 -26,4 -55,6l-52 3 -31 -61c-18,-34 -33,-63 -33,-65 0,-6 10,-3 45,14l0 0zm-285 27c7,16 12,30 12,30 -8,4 -43,15 -48,15 -5,0 -24,-41 -24,-51 0,-7 42,-33 45,-28 2,2 9,17 15,34l0 0zm263 24c16,32 29,60 27,61 -1,1 -39,4 -84,6l-81 4 -12 -39c-6,-21 -11,-40 -11,-43 0,-5 122,-52 127,-49 2,1 17,28 34,60l0 0zm-420 -29c-2,3 -10,5 -18,5 -10,0 -13,-2 -10,-9 2,-5 3,-11 3,-13 0,-3 6,-2 14,3 8,5 12,12 11,14zm-325 2l26 14 4 35c1,19 2,35 1,37 -1,1 -14,0 -27,-2 -24,-4 -25,-5 -28,-25 -8,-55 -10,-72 -6,-72 1,0 15,6 30,13zm147 8c9,10 9,12 0,28 -4,10 -10,17 -11,17 -3,0 -25,-10 -29,-14 -4,-3 18,-41 24,-41 4,0 11,5 16,10l0 0zm83 16c-13,4 -24,-8 -13,-15 6,-4 10,-3 15,4 7,8 6,10 -2,11zm-26 -1c5,14 -10,20 -22,9 -10,-9 -10,-9 0,-13 15,-6 18,-5 22,4l0 0zm380 30c7,21 12,40 10,41 -2,2 -19,5 -39,7 -41,4 -39,6 -46,-40l-4 -23 32 -11c18,-6 33,-12 34,-12 0,-1 6,17 13,38zm-514 -21c16,8 24,15 22,20 -2,4 -3,15 -3,24 0,17 -9,20 -37,13 -12,-3 -13,-7 -13,-36 0,-19 1,-33 3,-33 1,0 14,6 28,12l0 0zm107 10c4,7 4,12 -1,20 -6,7 -9,8 -19,3 -12,-6 -12,-7 -3,-20 10,-17 16,-17 23,-3zm62 0c0,3 -2,6 -5,6 -3,0 -6,-3 -6,-6 0,-3 3,-5 6,-5 3,0 5,2 5,5zm30 -1c-4,1 -11,1 -14,0 -4,-2 -1,-3 6,-3 8,0 11,1 8,3zm-52 10c0,10 -12,8 -16,-2 -1,-4 2,-7 7,-7 5,0 9,4 9,9l0 0zm110 2c7,4 5,5 -4,9 -14,4 -20,1 -14,-8 4,-7 8,-8 18,-1l0 0zm54 6c9,10 9,11 -4,15 -10,4 -15,3 -20,-5 -15,-20 7,-30 24,-10l0 0zm119 -1c0,6 2,18 4,28 3,16 2,16 -23,18 -27,2 -31,-1 -31,-29 0,-12 4,-18 13,-22 22,-8 37,-6 37,5l0 0zm-378 0c7,4 9,10 7,23 -2,13 -5,17 -15,17 -17,0 -19,-4 -15,-27 3,-19 7,-21 23,-13zm123 1c0,3 -3,5 -6,5 -3,0 -4,-2 -3,-5 2,-3 5,-6 6,-6 2,0 3,3 3,6zm25 0c-2,3 -6,5 -9,5 -3,0 -5,-2 -5,-5 0,-3 4,-6 9,-6 4,0 6,3 5,6zm-50 32c-1,2 -17,-7 -36,-19 0,-1 0,-4 2,-8 3,-4 10,-1 20,9 9,9 15,16 14,18l0 0zm129 -14c1,6 -1,8 -9,6 -13,-3 -15,-8 -8,-15 5,-6 15,-1 17,9zm-190 -1c4,7 -14,28 -20,25 -2,-2 -3,-9 -1,-17 2,-14 14,-19 21,-8zm-192 66c0,29 -2,55 -4,57 -1,3 -9,4 -19,4 -15,0 -16,-1 -16,-21 0,-11 -3,-36 -6,-55 -3,-20 -4,-37 -3,-40 2,-2 13,-3 27,-1l24 3 -3 53 0 0zm359 -50c2,6 5,11 8,11 3,0 5,3 5,6 0,9 -15,6 -19,-5 -1,-5 -5,-12 -6,-16 -2,-4 0,-7 3,-7 4,0 8,5 9,11l0 0zm69 30c0,39 -1,41 -11,39 -7,-2 -13,-5 -15,-8 -2,-3 -10,-5 -19,-5 -18,0 -21,-6 -8,-19 7,-6 12,-7 18,-4 6,3 13,3 20,-2 14,-11 11,-15 -10,-14 -21,3 -29,-1 -23,-11 3,-5 7,-5 12,0 6,5 8,5 8,-2 0,-8 8,-14 21,-14 4,-1 7,11 7,40l0 0zm-211 -30c0,7 -16,14 -20,10 -5,-5 3,-15 12,-15 4,0 8,2 8,5zm-158 5c4,2 8,21 10,43l4 39 -29 7c-15,3 -30,6 -32,6 -2,0 -3,-22 -2,-50l2 -50 20 0c11,0 23,2 27,5l0 0zm858 7c-3,8 -21,53 -40,102 -19,49 -36,91 -38,93 -3,3 -52,-9 -60,-15 -1,-1 7,-42 18,-91 11,-50 20,-91 20,-92 0,-3 36,-6 78,-8 26,-1 27,0 22,11zm41 3c-5,7 -24,39 -43,69 -17,30 -33,55 -35,55 -2,0 44,-123 51,-134 2,-3 11,-5 20,-5l17 0 -10 15zm-854 -6c15,3 18,6 21,28 2,13 4,26 4,28 1,2 -9,7 -22,11l-23 7 -4 -21c-1,-11 -4,-27 -5,-35 -3,-21 0,-23 29,-18l0 0zm701 2c0,8 -32,162 -36,171 -1,4 -24,-1 -75,-18 -41,-14 -76,-27 -78,-29 -5,-5 16,-107 24,-115 3,-4 33,-8 67,-9 35,-2 71,-4 81,-4 9,-1 17,2 17,4l0 0zm-650 11c3,6 6,17 6,25 0,20 -21,20 -26,-1 -1,-9 -4,-20 -6,-25 -3,-14 19,-13 26,1zm25 9c4,16 0,26 -8,22 -7,-4 -7,-36 0,-36 2,0 6,6 8,14l0 0zm446 -6c-2,4 -7,29 -13,55 -5,28 -12,48 -16,48 -3,0 -18,-4 -32,-9 -25,-8 -26,-10 -24,-27 2,-9 4,-28 6,-41 2,-14 5,-27 6,-30 2,-2 20,-4 40,-4 29,0 35,2 33,8l0 0zm-417 1c-1,3 0,12 4,21 6,15 6,18 -9,30 -14,12 -17,13 -21,6 -8,-11 -6,-16 3,-16 9,0 11,-18 3,-34 -5,-9 -4,-11 8,-11 8,0 13,2 12,4zm16 11c-5,6 -10,-2 -5,-10 3,-6 4,-6 7,0 1,4 0,9 -2,10l0 0zm311 25c-2,23 -5,42 -6,43 -1,1 -12,-1 -23,-5 -23,-9 -28,-23 -21,-59 3,-18 4,-19 28,-19l26 0 -4 40zm-175 -23c0,3 -2,6 -6,6 -2,0 -5,-3 -5,-6 0,-3 3,-5 5,-5 4,0 6,2 6,5zm-34 34c3,-4 8,-6 11,-3 5,2 5,5 0,11 -9,11 -30,10 -35,-1 -6,-16 -3,-20 9,-10 8,9 12,9 15,3l0 0zm55 -7c9,6 0,19 -12,14 -5,-1 -9,-6 -9,-11 0,-8 10,-10 21,-3l0 0zm-209 38c-15,11 -22,8 -26,-10 -5,-25 7,-32 23,-12 12,14 12,15 3,22zm58 -17c-6,6 -11,-2 -6,-10 4,-6 5,-6 7,0 1,4 1,9 -1,10l0 0zm36 -3c0,3 -3,5 -6,5 -3,0 -6,-4 -6,-9 0,-4 3,-6 6,-5 3,2 6,6 6,9zm150 -6c3,0 5,6 5,14 0,15 -10,18 -21,7 -10,-10 -8,-28 2,-24 5,1 11,3 14,3l0 0zm-282 4c1,3 4,13 6,24 3,18 2,20 -16,33 -11,7 -21,12 -22,11 -3,-4 -20,-57 -18,-59 1,-1 38,-12 44,-12 2,-1 5,1 6,3zm158 3c-3,10 -15,11 -15,2 0,-5 4,-9 9,-9 5,0 7,3 6,7l0 0zm77 16c-12,7 -20,1 -20,-12 0,-11 0,-11 14,-2 13,8 13,10 6,14zm-153 -4c0,4 -3,9 -5,12 -7,3 -14,-7 -9,-14 5,-9 14,-7 14,2zm35 -5c9,4 12,30 5,38 -5,5 -25,-29 -21,-36 4,-6 5,-6 16,-2zm-167 34c5,15 9,28 9,30 0,3 -9,11 -20,19l-21 14 -18 -35c-20,-37 -20,-46 -1,-50 38,-7 42,-5 51,22l0 0zm215 -6c0,11 -3,19 -7,19 -4,0 -13,2 -19,3 -12,4 -12,3 -7,-13 6,-24 10,-29 22,-29 9,0 11,4 11,20l0 0zm49 -12c6,7 3,9 -13,14 -23,8 -22,8 -27,-10 -4,-11 -2,-12 15,-12 10,0 22,4 25,8zm56 9c0,3 -5,8 -10,10 -15,8 -28,-6 -17,-18 5,-7 9,-7 17,-3 5,3 10,8 10,11l0 0zm110 -5c11,4 12,7 7,19 -14,36 -14,36 -36,24 -26,-15 -27,-18 -17,-38 10,-18 11,-18 46,-5l0 0zm-318 3c2,6 -2,15 -10,23l-14 14 -6 -13c-7,-12 -6,-14 5,-23 16,-12 20,-13 25,-1l0 0zm45 19c5,12 8,23 7,25 -5,4 -32,-30 -32,-40 0,-16 15,-7 25,15zm-217 23l20 39 -12 10c-7,5 -20,14 -28,19l-15 9 -9 -27c-4,-15 -10,-38 -12,-52 -4,-25 -2,-28 9,-32 24,-9 27,-7 47,34l0 0zm403 -10c0,25 -8,29 -23,10l-11 -15 11 -10c16,-12 23,-8 23,15zm140 -16c15,5 26,11 26,14 0,9 -29,55 -34,55 -5,0 -26,-13 -43,-26 -3,-2 17,-52 21,-52 2,0 16,4 30,9l0 0zm-193 3c2,2 -11,9 -29,14 -18,5 -43,12 -56,17 -30,9 -35,10 -31,0 3,-10 37,-21 49,-17 5,2 9,1 9,-3 0,-13 51,-23 58,-11l0 0zm-215 14c6,12 5,17 -5,31l-12 17 -18 -18c-14,-14 -15,-18 -8,-22 4,-3 13,-9 19,-14 15,-11 17,-11 24,6zm70 11c11,18 14,28 12,39 -2,8 -6,13 -8,12 -7,-2 -51,-43 -51,-46 0,-7 20,-30 25,-30 4,0 13,11 22,25l0 0zm462 13l71 24 -38 35c-22,20 -43,37 -48,39 -11,4 -99,-51 -99,-61 0,-14 28,-65 35,-63 3,1 39,13 79,26l0 0zm-292 -8c7,8 12,15 10,17 -2,1 -17,6 -35,9 -26,6 -32,6 -38,-1 -15,-15 -13,-23 7,-30 29,-12 41,-10 56,5l0 0zm82 1c8,7 12,12 8,11 -3,-2 -11,4 -18,13 -22,31 -37,13 -22,-24 7,-19 12,-19 32,0l0 0zm-363 18l15 16 -15 21 -15 20 -19 -18c-10,-10 -18,-21 -18,-24 0,-6 27,-31 33,-31 2,0 10,7 19,16l0 0zm194 17c-3,3 -18,7 -34,10l-30 5 2 -14c1,-12 6,-16 29,-24l28 -8 5 13c2,8 2,15 0,18l0 0zm-108 1c33,30 37,41 10,36l-18 -3 14 10c8,6 12,13 10,15 -5,5 -32,-15 -32,-24 0,-4 -7,-10 -16,-15 -10,-5 -19,-11 -20,-14 -4,-6 14,-34 20,-32 1,1 16,13 32,27l0 0zm330 -4c11,8 20,17 20,19 0,2 -10,17 -21,33l-21 30 -18 -22c-10,-11 -21,-25 -26,-30 -7,-7 -7,-10 0,-16 6,-5 9,-5 9,0 0,4 6,-1 14,-10 8,-10 16,-17 18,-17 2,0 13,6 25,13l0 0zm-107 12c0,11 -5,14 -24,20 -13,3 -31,6 -40,7 -14,0 -17,-2 -19,-15 -1,-14 0,-15 31,-21 18,-3 35,-7 38,-8 9,-2 14,3 14,17l0 0zm-354 16l20 25 -31 36c-16,20 -33,36 -35,36 -3,0 -11,-17 -18,-38l-15 -40 29 -22c16,-12 29,-22 29,-22 1,0 10,11 21,25l0 0zm741 -10l18 7 -34 54c-19,30 -35,56 -36,57 -2,2 -80,-48 -80,-52 0,-1 21,-20 46,-42 48,-41 46,-41 86,-24l0 0zm-631 31c18,15 33,34 35,42l4 15 6 -13c9,-18 20,-13 36,15 14,22 14,25 4,20 -6,-2 -18,-5 -27,-5 -9,0 -19,-3 -21,-6 -2,-3 -7,-2 -11,5 -7,8 -11,6 -53,-30 -25,-22 -46,-41 -46,-43 0,-8 30,-34 36,-31 3,2 20,16 37,31l0 0zm136 -24c2,7 5,10 8,8 8,-4 6,4 -3,12 -9,9 -68,25 -78,21 -9,-3 -10,-17 -3,-29 4,-7 40,-18 69,-22 2,0 6,4 7,10l0 0zm295 29c25,15 46,30 46,32 0,3 -9,13 -19,22 -14,12 -27,17 -50,20 -30,4 -33,4 -51,-14 -11,-10 -19,-20 -19,-22 0,-6 41,-67 45,-67 1,0 23,13 48,29zm-197 14c-23,42 -26,46 -47,46 -14,0 -14,-1 -17,-30l-1 -30 39 -11c21,-6 40,-11 42,-11 2,-1 -5,16 -16,36l0 0zm86 22c-1,2 -22,6 -45,10 -30,5 -42,5 -42,1 0,-11 20,-51 30,-61 8,-8 11,-7 34,19 14,16 24,30 23,31zm-350 10c19,15 34,30 34,32 1,5 -45,16 -68,16 -17,0 -20,2 -26,19 -5,17 -8,20 -18,17 -19,-6 -40,-22 -42,-34 -1,-7 12,-26 33,-51 38,-45 30,-45 87,1l0 0zm185 12c0,4 -9,8 -20,10 -16,3 -21,2 -38,-17 -11,-12 -20,-23 -20,-25 0,-2 14,-7 32,-11l32 -8 7 22c3,13 7,26 7,29l0 0zm4 -24c-2,4 -3,1 -3,-7 0,-8 1,-11 3,-7 1,4 1,10 0,14zm372 30l42 27 -24 21c-14,12 -38,31 -54,44 -29,22 -30,23 -41,12 -6,-6 -19,-20 -28,-32l-17 -21 13 -14c13,-13 39,-30 48,-30 3,0 10,12 18,25 17,32 21,29 5,-5 -9,-17 -16,-25 -24,-25 -10,0 -10,-1 2,-14 8,-8 14,-14 16,-14 1,0 21,12 44,26l0 0zm-185 -3c9,13 9,13 -8,15 -10,1 -33,13 -52,27 -53,39 -61,42 -73,30 -9,-11 -9,-13 2,-41l13 -30 34 -6c59,-9 74,-8 84,5l0 0zm-141 16c0,11 -14,33 -20,33 -6,0 -14,-16 -14,-32 0,-4 8,-7 17,-7 10,0 17,3 17,6l0 0zm-50 12c0,9 -3,11 -15,9 -10,-1 -16,-5 -17,-12 -2,-7 1,-9 15,-9 13,0 17,2 17,12zm-45 11c0,4 -4,3 -8,-1 -4,-4 -8,-9 -8,-12 0,-3 4,-3 8,1 4,4 8,10 8,12zm306 -4c-10,11 -15,13 -21,8 -14,-11 -6,-19 23,-21 10,0 10,1 -2,13zm-336 3c10,11 10,12 -4,27 -8,8 -18,22 -23,29 -9,14 -33,24 -39,18 -1,-2 -1,-9 2,-17 2,-8 7,-26 10,-38 7,-23 13,-28 35,-29 5,0 13,4 19,10zm-60 4c-2,6 -6,23 -10,39 -4,16 -9,29 -12,29 -4,0 -23,-7 -43,-15 -51,-21 -50,-32 5,-46 23,-6 43,-12 44,-14 7,-7 18,-2 16,7l0 0zm366 5c8,12 7,12 -54,21 -34,6 -63,9 -64,8 -1,-1 10,-12 25,-23 23,-18 29,-20 56,-19 23,1 31,4 37,13l0 0zm146 64c-13,26 -24,48 -25,49 -4,4 -30,-23 -30,-31 0,-7 72,-70 76,-66 2,1 -8,23 -21,48l0 0zm-110 -24c38,40 38,38 -2,57 -42,21 -51,20 -90,-10 -26,-20 -29,-21 -67,-21 -23,0 -42,-1 -42,-4 0,-11 32,-20 92,-29 37,-5 68,-11 69,-12 7,-7 23,0 40,19l0 0zm-532 -8c10,7 10,9 2,24l-8 16 -6 -16c-12,-29 -7,-39 12,-24l0 0zm68 26c23,10 41,20 41,23 0,3 -3,19 -8,34 -4,16 -12,48 -17,72 -5,24 -11,45 -14,46 -6,4 -66,-130 -66,-148 0,-14 11,-44 17,-44 3,0 24,8 47,17zm86 38c0,11 4,26 9,34 8,11 12,12 46,10 29,-2 42,-5 61,-17 31,-21 30,-10 -8,47 -55,84 -57,86 -109,113 -28,14 -52,24 -54,22 -3,-2 -10,-14 -15,-28 -9,-24 -9,-25 8,-92 10,-38 21,-78 23,-90 5,-18 8,-20 22,-20 16,0 17,1 17,21zm281 4c19,11 35,22 35,24 0,6 -111,58 -114,54 -2,-1 -6,-17 -10,-37 -5,-24 -11,-37 -20,-44l-13 -10 16 -3c50,-7 70,-4 106,16zm158 6c9,11 16,23 14,27 -2,5 -41,70 -87,145 -47,77 -96,157 -109,178 -13,22 -27,42 -30,44 -5,3 -6,1 -33,-145 -13,-67 -24,-127 -25,-134 -3,-8 1,-13 11,-18 15,-6 14,-8 21,30 2,6 3,0 4,-12 0,-13 4,-27 7,-31 5,-4 33,-19 64,-34 56,-28 56,-28 69,-17 6,6 15,18 19,27 6,13 7,15 8,6 0,-7 -5,-21 -11,-32l-10 -22 31 -16c18,-9 33,-16 35,-16 2,0 12,9 22,20l0 0zm-272 6c5,5 12,24 16,43 6,26 6,33 -1,37 -15,10 -20,4 -26,-34 -10,-58 -7,-67 11,-46l0 0zm-15 69l4 24 -42 21c-24,12 -44,20 -46,19 -1,-2 9,-16 24,-32 14,-17 31,-41 37,-54 13,-27 17,-23 23,22zm9 41c0,1 3,21 8,43 4,22 17,88 28,148l21 108 -36 71c-19,39 -36,71 -38,71 -10,0 -116,-180 -168,-285 -25,-53 -26,-57 -17,-63 18,-14 64,-36 67,-33 2,2 7,0 12,-4 12,-10 107,-58 116,-59 3,0 7,1 7,3l0 0zm-1524 1171c-1,8 50,76 58,76 2,0 10,12 16,26 9,21 10,29 5,43 -9,28 -14,129 -10,198 5,94 12,286 11,324 -2,60 -36,137 -101,226 -15,21 -27,40 -27,43 0,7 -45,67 -106,141 -62,76 -89,105 -97,105 -4,0 -12,-16 -19,-35 -35,-108 -39,-114 -86,-144 -25,-17 -29,-18 -81,-16 -38,0 -56,-2 -60,-7 -3,-3 -7,-22 -9,-41 -2,-19 -8,-47 -14,-64 -10,-27 -40,-217 -48,-305 -8,-81 27,-186 65,-196 9,-2 10,1 10,31 0,37 62,319 72,329 9,9 13,-11 6,-31 -3,-10 -12,-50 -20,-88 -7,-38 -17,-86 -22,-106 -18,-80 -9,-202 16,-221 19,-15 66,-64 78,-81l11 -15 11 12c7,8 15,26 19,41 4,14 15,38 24,52 26,37 63,114 82,171 15,44 23,79 41,177 6,34 12,45 23,40 15,-5 17,-60 7,-155 -11,-98 -22,-137 -54,-188 -36,-58 -61,-112 -61,-132 0,-17 7,-26 52,-70 51,-50 164,-136 179,-136 4,0 9,-3 11,-6 5,-8 20,-6 18,2l0 0zm509 37c3,2 -1,24 -10,54 -7,27 -22,89 -34,138 -23,108 -26,116 -40,109 -10,-6 -46,-77 -48,-95 -1,-5 -7,-20 -13,-34 -7,-14 -12,-27 -12,-31 0,-8 73,-110 98,-136 18,-18 21,-20 37,-15 9,2 19,7 22,10l0 0zm1550 215c18,8 37,13 43,11 8,-2 17,11 52,79 51,103 96,235 103,309 2,27 7,57 11,66 3,8 11,45 18,80 17,90 18,286 3,321 -6,12 -15,37 -22,55 -10,31 -18,45 -52,99 -6,10 -13,18 -16,18 -5,0 -17,-38 -48,-146 -18,-65 -63,-160 -148,-316 -60,-110 -57,-95 -59,-245 -1,-125 -2,-137 -20,-222 -11,-49 -17,-92 -15,-94 2,-2 13,0 23,5 28,13 32,12 52,-16 20,-28 19,-28 75,-4zm-1727 3c18,29 37,78 39,99 1,10 8,40 14,66 15,62 20,172 11,228 -4,23 -8,52 -8,65 -1,13 -4,27 -7,31 -3,4 -11,29 -18,57 -33,126 -146,414 -243,613 -32,66 -43,85 -51,83 -13,-3 -28,-36 -29,-66 0,-29 10,-46 70,-126 126,-165 202,-378 185,-520 -5,-50 -30,-128 -57,-180 -18,-33 -22,-48 -26,-88 -4,-44 -3,-54 10,-99 7,-28 17,-58 21,-67 4,-9 14,-33 22,-53 8,-20 19,-41 23,-49 12,-18 31,-15 44,6l0 0z"/>
  </g>
 </g>
</svg>
