<?xml version="1.0" encoding="UTF-8"?>
<!DOCTYPE svg PUBLIC "-//W3C//DTD SVG 1.1//EN" "http://www.w3.org/Graphics/SVG/1.1/DTD/svg11.dtd">
<!-- Creator: CorelDRAW X8 -->
<svg xmlns="http://www.w3.org/2000/svg" xml:space="preserve" width="5.51181in" height="7.48031in" version="1.1" style="shape-rendering:geometricPrecision; text-rendering:geometricPrecision; image-rendering:optimizeQuality; fill-rule:evenodd; clip-rule:evenodd"
viewBox="0 0 5512 7480"
 xmlns:xlink="http://www.w3.org/1999/xlink">
 <defs>
  <style type="text/css">
   <![CDATA[
    .fil0 {fill:#A89B8A}
   ]]>
  </style>
 </defs>
 <g id="Layer_x0020_1">
  <metadata id="CorelCorpID_0Corel-Layer"/>
  <g id="_186463.svg">
   <g>
    <path class="fil0" d="M3344 193l-37 6 -65 63c-35,34 -64,67 -64,72 0,5 6,43 14,83l15 73 -13 85c-53,367 -139,649 -389,1269 -46,114 -83,208 -83,209 0,1 45,1 100,0 55,-1 100,-1 101,0 0,1 18,162 40,357l40 356 -108 163c-106,158 -109,163 -117,151 -24,-36 -200,-337 -268,-458 -176,-316 -262,-506 -532,-1173l-65 -161 -13 -96c-7,-53 -11,-97 -10,-98 25,-19 57,-36 60,-33 3,3 9,17 16,32l10 27 27 -32 27 -31 -39 -39 -39 -38 -43 17 -42 17 -48 75c-26,40 -47,77 -47,81 0,4 12,38 27,75 25,60 27,70 23,92 -3,13 -20,103 -39,201 -120,629 -184,910 -278,1213 -71,227 -393,1192 -402,1200 -3,3 -117,23 -134,23 -11,0 -13,-5 -21,-40 -18,-81 -19,-73 11,-85 15,-5 29,-11 31,-13 3,-2 -18,-13 -46,-25 -27,-12 -51,-21 -52,-19 -5,5 -59,116 -59,121 0,11 102,162 108,160 3,-2 36,-9 73,-15 37,-8 137,-29 222,-49 85,-19 155,-34 156,-33 8,7 179,489 232,651 24,76 95,305 107,348 2,7 -1,11 -10,13 -7,1 -125,14 -263,28 -327,33 -291,26 -291,57l0 25 26 -3c93,-12 98,-12 94,-1 -2,6 -22,92 -45,191 -24,100 -44,185 -45,190 -3,9 -10,10 -36,10l-33 0 0 25 0 24 65 4c36,1 180,5 321,8 140,4 275,8 300,9l45 3 9 62c4,35 7,64 5,66 -2,3 -112,55 -245,118l-242 113 -169 26c-94,15 -171,27 -172,29 -3,3 28,74 34,78 4,3 89,-6 130,-12l17 -4 7 61c14,124 33,204 71,299l12 29 -12 3c-7,2 -20,4 -29,4 -32,0 -31,7 7,38 27,22 39,29 50,27 12,-2 16,3 50,73 19,42 56,129 82,194 52,134 52,144 -6,83 -25,-26 -44,-55 -74,-112 -22,-43 -44,-83 -49,-89 -8,-11 -8,-10 -4,8 2,11 12,51 22,88 20,73 38,110 65,140 9,10 14,20 11,22 -11,10 -230,111 -262,122 -20,6 -86,18 -146,25 -185,24 -256,40 -347,75 -105,43 -135,68 -108,90 17,14 29,13 66,-6 98,-49 200,-75 374,-98 173,-21 197,-28 361,-111 44,-22 96,-46 116,-52 20,-7 40,-15 44,-19 5,-5 124,-39 264,-76l255 -67 320 -25 320 -25 317 25c174,14 326,28 339,30 49,10 426,119 440,126 9,4 25,8 37,8 41,0 128,17 184,36 63,21 75,27 247,115 185,96 266,126 513,189 133,33 139,34 161,26 25,-8 39,-25 27,-32 -4,-3 -64,-19 -134,-36 -239,-61 -346,-101 -528,-198 -167,-89 -262,-125 -357,-136l-32 -4 17 -19c9,-10 24,-33 32,-51 19,-36 68,-157 66,-160 -2,-1 -41,51 -85,115 -41,59 -79,94 -98,90 -9,-1 -15,-4 -15,-6 0,-3 51,-100 79,-149 9,-16 15,-30 13,-30 -1,0 -20,25 -42,56 -23,30 -42,54 -43,54 -3,-3 12,-44 25,-70 7,-13 11,-26 9,-29 -7,-12 70,-218 114,-304 15,-29 39,-70 54,-90 38,-53 110,-135 132,-152 20,-16 20,-16 44,-6 12,5 26,10 30,12 4,2 10,-5 15,-16 16,-41 16,-41 -13,-54l-27 -13 19 -25c27,-37 35,-69 35,-155 0,-41 -2,-74 -5,-74 -2,0 -11,34 -19,75 -14,67 -29,118 -34,113 -1,-1 3,-85 9,-186 5,-101 10,-190 10,-198 0,-14 1,-14 22,-12 19,3 22,2 24,-10 4,-12 6,-60 3,-61 -1,0 -107,-10 -235,-21 -177,-16 -235,-20 -241,-15 -16,13 113,-218 218,-391 69,-114 159,-254 215,-340l44 -65 136 75c76,41 139,75 140,75 1,0 24,12 51,28 27,16 51,29 54,29 4,0 39,-25 78,-56l72 -57 -9 -66c-4,-37 -10,-68 -11,-70 -2,-2 -28,-2 -58,0l-54 4 27 24 26 23 -26 47c-15,25 -29,49 -31,51 -3,3 -33,-11 -69,-30l-64 -34 -6 -28c-57,-289 -95,-538 -131,-857l-19 -171 64 -81c36,-45 70,-86 76,-91 8,-7 21,-10 46,-10l36 0 -1 96 -2 96 -16 -1c-9,-1 -14,0 -10,1 12,6 7,12 -8,11 -9,-1 -11,0 -6,1 15,4 11,12 -5,14l-16 3 17 1 16 1 -13 8c-12,7 -12,8 -3,5 7,-1 19,1 28,6 22,11 42,10 60,-3 7,-6 22,-11 32,-11 14,0 16,-2 10,-6 -4,-2 -14,-5 -20,-5 -18,0 -16,-9 3,-16 8,-3 11,-6 7,-6 -4,0 -12,2 -17,5 -7,3 -12,4 -14,0 -2,-3 4,-7 12,-9 25,-5 28,-6 9,-7 -9,-1 -19,2 -22,6 -3,2 -13,3 -21,1l-14 -3 0 -91c0,-87 0,-92 14,-117 18,-33 54,-72 76,-80 8,-4 15,-8 13,-10 -1,-2 -5,-12 -9,-20 -4,-10 -25,-32 -47,-49 -76,-62 -122,-107 -118,-117 2,-6 10,-9 21,-9l17 0 -2 -57 -2 -57 -43 -15 -44 -16 -68 19c-36,11 -75,21 -85,23 -9,1 -20,6 -22,10 -4,4 -20,38 -36,76 -25,57 -44,87 -98,161 -187,256 -281,357 -470,506 -77,61 -213,161 -219,161 -2,0 -3,-27 -2,-60 2,-85 11,-479 19,-815l6 -289 24 -131c65,-340 128,-661 132,-665 3,-3 35,-5 73,-6l68 -2 -26 -59c-15,-33 -36,-78 -47,-101 -47,-94 -112,-257 -160,-400 -31,-91 -64,-202 -204,-681 -40,-137 -77,-262 -81,-277 -8,-27 -8,-35 7,-133l15 -106 33 -13c18,-6 34,-11 35,-10 1,1 3,15 6,30 1,16 5,30 7,32 4,2 57,-34 60,-42 3,-10 -50,-95 -59,-94 -6,1 -26,4 -46,7l0 0zm1172 2945c0,1 -4,13 -10,27 -13,31 -14,37 -4,37 3,0 11,4 16,8 10,7 10,9 2,28 -12,27 -44,76 -74,109 -25,27 -25,27 -59,27l-35 0 -4 -52 -4 -52 49 -71 49 -70 36 4c20,2 36,4 38,5l0 0zm26 114c2,12 0,16 -14,25 -10,5 -19,8 -20,7 -2,-1 3,-14 10,-29 13,-26 18,-27 24,-3l0 0zm22 10c-11,2 -20,-7 -20,-20 0,-6 5,-4 15,5 12,11 13,14 5,15zm-9 30c1,5 -27,11 -34,7 -4,-3 0,-9 10,-17 15,-12 16,-12 20,-3 2,5 4,11 4,13zm33 -11c1,7 -2,10 -12,10 -8,0 -15,-1 -15,-2 0,-1 -2,-7 -3,-12 -4,-7 -1,-9 12,-7 10,1 17,5 18,11l0 0zm-77 18c5,6 5,11 -5,25 -20,28 -35,11 -18,-21 8,-14 14,-15 23,-4zm74 9c-3,13 -14,11 -17,-2 -1,-6 1,-9 9,-9 8,0 10,2 8,11l0 0zm32 -3c0,1 -2,5 -4,10 -4,12 -24,5 -20,-7 1,-7 6,-9 13,-8 6,2 11,4 11,5zm-56 -1c0,1 2,6 3,11 5,12 -19,13 -31,2 -6,-5 -6,-5 0,3 9,12 -2,34 -15,30 -4,-2 -10,-3 -13,-3 -9,0 12,-32 25,-39 12,-5 31,-8 31,-4zm91 33c-8,12 -38,-5 -33,-19 4,-9 5,-9 20,2 9,7 15,14 13,17zm-69 -3c0,8 -1,8 -5,3 -4,-7 -5,-7 -7,1 -3,5 -2,9 1,9 4,0 6,2 6,6 0,2 -2,4 -6,2 -3,-2 -5,-1 -5,2 0,3 -3,6 -6,6 -5,0 -5,-2 0,-8 5,-5 4,-8 -3,-14 -7,-6 -7,-6 -5,2 3,7 0,11 -9,13 -8,2 -10,4 -4,8 6,3 6,6 0,11 -4,5 -8,5 -12,2 -9,-9 16,-43 33,-48 21,-6 22,-5 22,5l0 0zm23 -5c0,3 -4,8 -9,12 -7,6 -8,5 -8,-5 0,-7 3,-12 8,-12 5,0 9,3 9,5zm22 18c0,7 -19,11 -24,6 -9,-9 7,-25 16,-17 4,3 8,8 8,11l0 0zm-163 -2c-2,5 -4,17 -6,25 -3,12 -7,15 -17,15 -21,0 -21,-6 1,-28 23,-24 25,-25 22,-12l0 0zm23 1c11,7 4,32 -10,36 -15,3 -16,-1 -10,-23 5,-19 8,-21 20,-13zm200 16c1,4 -4,7 -10,7 -6,0 -11,-2 -11,-5 0,-3 -2,-10 -4,-16 -4,-9 -4,-9 9,-1 7,5 15,12 16,15l0 0zm-28 -3c1,6 -2,10 -7,10 -5,0 -9,-5 -9,-12 0,-13 13,-12 16,2l0 0zm-142 -4c6,7 -3,25 -14,25 -7,0 -10,-3 -7,-9 1,-5 3,-11 3,-14 0,-5 13,-7 18,-2l0 0zm121 8c0,7 -4,11 -11,11 -13,0 -15,-5 -5,-15 10,-10 16,-9 16,4zm-48 9c2,5 0,10 -5,12 -11,4 -22,-6 -17,-15 5,-9 18,-7 22,3zm107 11c2,6 -25,28 -29,24 -1,-2 0,-9 2,-18 2,-11 5,-15 14,-14 6,2 12,5 13,8l0 0zm-246 30c20,19 42,46 50,61l15 28 -69 86 -70 86 -3 -29c-8,-65 -23,-260 -20,-262 1,-2 16,-3 33,-3 29,0 31,1 64,33l0 0zm112 -28c-2,3 -6,6 -9,6 -3,0 -5,-3 -5,-6 0,-3 4,-5 9,-5 4,0 7,2 5,5zm47 0c0,3 -3,7 -7,8 -3,1 2,5 12,9 14,6 16,8 11,15 -9,10 -15,9 -19,-4 -2,-8 -6,-10 -14,-8 -10,3 -20,-6 -13,-13 1,-2 5,0 8,5 5,7 5,7 6,0 1,-5 1,-10 0,-13 0,-2 3,-4 8,-4 4,0 8,2 8,5l0 0zm28 7c0,13 -18,12 -21,-3 -1,-6 1,-9 9,-9 9,0 12,3 12,12l0 0zm23 5c-3,18 -2,17 -14,13 -11,-4 -5,-30 7,-30 8,0 9,4 7,17zm-165 9c9,20 8,35 -1,35 -4,0 -11,-11 -28,-46 -1,-1 3,-4 8,-6 6,-1 11,-2 11,-3 1,0 6,9 10,20l0 0zm30 -7c4,10 4,15 -4,23 -9,8 -9,9 3,3 14,-7 26,3 21,18 -3,8 -5,8 -18,0 -12,-9 -29,-38 -29,-52 0,-11 21,-6 27,8l0 0zm25 0c5,8 8,17 6,20 -5,8 -15,0 -11,-10 2,-4 1,-6 -3,-4 -3,3 -8,0 -11,-3 -13,-21 4,-23 19,-3l0 0zm-84 10l11 18 -17 -16c-20,-18 -20,-20 -10,-20 3,0 11,8 16,18zm103 -10c0,5 -3,7 -5,5 -3,-1 -4,-5 -2,-8 5,-7 7,-6 7,3zm7 29c0,4 -4,7 -9,7 -8,0 -11,-11 -5,-18 6,-5 14,1 14,11zm27 -7c7,8 5,10 -12,16 -7,3 -10,1 -10,-10 0,-15 12,-18 22,-6zm43 -3c8,5 -6,24 -24,34 -16,8 -42,7 -40,-1 4,-10 28,-15 38,-8 6,5 7,5 4,0 -2,-4 -1,-12 3,-19 8,-12 9,-12 19,-6l0 0zm-70 34c0,3 -6,6 -14,6 -13,0 -19,-10 -11,-19 5,-4 25,6 25,13zm-49 -3c8,6 9,10 6,17 -5,8 -6,8 -12,1 -5,-5 -11,-9 -14,-9 -3,0 -1,5 7,11 7,6 11,13 9,17 -8,13 -26,-25 -20,-44 1,-4 16,0 24,7l0 0zm48 24c1,5 -6,7 -20,7l-21 1 21 4c32,7 31,12 0,12l-29 0 9 -19c7,-16 11,-19 23,-15 8,2 15,6 17,10l0 0zm42 -2c-2,6 -10,9 -20,9 -21,0 -18,-13 4,-17 20,-4 20,-4 16,8zm-11 20c-1,3 -7,6 -12,6 -9,0 -9,-2 -2,-6 12,-7 19,-7 14,0l0 0zm-2847 1588c36,134 86,380 79,387 -2,2 -17,3 -35,3l-32 0 9 -21c10,-24 16,-134 9,-174 -5,-24 -5,-22 -20,53 -18,88 -39,142 -55,142 -7,0 -9,-2 -8,-6 2,-3 5,-97 6,-209 2,-113 4,-208 5,-212 2,-3 9,-7 17,-7 11,0 14,5 25,44l0 0zm-90 133c-2,148 -4,175 -13,201l-10 31 -5 -19c-4,-12 -4,-31 0,-58 4,-22 5,-40 4,-42 -1,-1 -8,10 -16,24 -14,24 -15,30 -13,66 1,22 4,44 5,48 1,5 -2,9 -10,10 -10,2 -12,-1 -15,-30 -7,-72 -27,-385 -25,-388 1,-1 23,-5 46,-7 25,-3 47,-6 49,-6 3,0 4,76 3,170l0 0zm-122 52c7,114 12,207 11,208 -1,0 -34,2 -73,4l-71 3 3 -23c2,-13 9,-101 17,-196 8,-95 15,-177 16,-183 1,-11 17,-15 70,-18l15 -1 12 206 0 0zm-157 17c-11,102 -20,189 -20,192 0,5 -16,7 -53,7l-53 0 3 -27c10,-69 63,-369 66,-371 1,-2 18,-4 38,-7 33,-3 35,-3 37,8 1,7 -7,96 -18,198l0 0zm2394 256c-1,3 -18,66 -36,137 -19,72 -35,135 -37,140 -2,9 -5,9 -29,-2 -14,-7 -26,-13 -27,-13 -4,-2 54,-141 85,-207 19,-39 32,-62 38,-62 4,0 7,3 6,7l0 0zm90 7c33,6 57,12 57,16 0,8 -94,315 -97,319 -1,1 -21,-6 -44,-16 -36,-16 -42,-20 -40,-30 12,-51 54,-284 51,-290 -4,-10 1,-10 73,1l0 0zm227 37c2,2 -107,371 -111,375 -1,2 -61,-25 -91,-41 -1,-1 16,-80 37,-176 22,-96 40,-176 40,-177 0,-3 122,16 125,19l0 0zm91 13c3,3 -32,345 -38,375 -4,19 -5,8 -3,-42l3 -67 -17 56c-23,77 -22,74 -29,62 -6,-10 -3,-56 5,-93 2,-10 -1,-8 -15,12 -16,23 -17,27 -15,65 1,22 2,40 1,40 -2,0 -14,-5 -28,-12 -20,-10 -25,-15 -22,-24 1,-6 24,-94 51,-196l49 -185 28 4c15,1 29,4 30,5l0 0zm-378 381c276,113 325,133 327,135 1,0 -21,18 -49,39 -64,48 -118,103 -136,136 -17,36 -43,100 -70,175 -11,34 -22,61 -25,60 -7,-1 -399,-142 -401,-143 -4,-4 154,-480 159,-480 1,0 89,35 195,78l0 0zm-1899 -13c0,2 12,88 27,190 14,102 25,188 23,190 -1,2 -128,18 -281,37 -153,19 -287,36 -298,38l-20 2 -24 -60c-12,-32 -28,-76 -34,-96 -10,-36 -41,-226 -37,-230 3,-3 604,-74 629,-75 8,0 15,1 15,4l0 0zm63 458c3,14 36,271 38,295 1,14 -1,17 -20,24 -12,4 -24,6 -25,5 -4,-5 -61,-322 -59,-325 2,-1 15,-4 29,-6 15,-2 28,-4 30,-5 3,0 6,5 7,12zm-102 8c0,3 11,79 24,170l24 165 -25 8c-14,4 -26,8 -27,7 -1,-1 -52,-339 -52,-344 0,-7 56,-14 56,-6zm-75 47c1,23 9,103 15,179l13 138 -13 5c-7,3 -16,5 -20,5 -5,0 -16,-53 -36,-168 -16,-92 -31,-174 -33,-180 -2,-13 5,-16 50,-18l20 -1 4 40 0 0zm1661 -27l12 7 -18 125c-10,69 -22,135 -27,147 -12,32 -10,22 7,-75 9,-47 16,-87 15,-88 -1,0 -16,35 -34,80 -18,44 -35,80 -38,80 -3,0 -3,-17 -2,-40 3,-36 9,-60 24,-95 3,-7 3,-10 -2,-7 -4,2 -3,-4 2,-20 4,-13 14,-45 22,-73 8,-26 18,-48 21,-48 4,1 12,3 18,7l0 0zm-1751 119c9,67 17,130 19,141 2,16 -3,11 -26,-31 -31,-52 -56,-91 -56,-85 0,1 10,32 22,68 12,37 25,83 29,102 6,36 2,79 -7,70 -4,-5 -88,-352 -88,-367 0,-3 13,-8 35,-12 63,-10 55,-23 72,114l0 0zm-142 -86c3,10 15,58 26,107 11,49 28,116 37,150 9,32 15,61 14,62 -1,1 -12,-22 -26,-51 -13,-29 -25,-52 -26,-50 -1,1 5,29 12,61 8,34 13,62 11,63 -4,5 -18,-16 -22,-32 -13,-62 -14,-64 -45,-93 -34,-33 -49,-39 -28,-11 18,22 35,66 39,98 3,20 -14,-9 -77,-135 -44,-89 -80,-161 -79,-163 2,-2 131,-22 152,-23 4,-1 9,7 12,17l0 0zm1981 2c12,5 20,12 20,18 0,16 -36,157 -49,190 -14,36 -47,83 -59,83 -11,0 -11,8 10,-117 11,-59 23,-126 26,-148 7,-46 7,-45 52,-26l0 0zm139 54c8,2 15,7 15,8 -1,10 -67,264 -69,267 -2,1 -21,-2 -43,-7 -31,-8 -38,-12 -36,-19 1,-5 10,-68 20,-139 9,-72 18,-134 19,-138 2,-5 12,-3 40,8 21,7 45,16 54,20l0 0zm73 30c13,5 23,9 24,10 3,3 -32,127 -43,149 -6,13 -14,36 -18,51 -11,51 -14,54 -34,50 -10,-2 -19,-4 -19,-5 -1,0 53,-247 57,-258 3,-9 8,-8 33,3zm78 37c-18,57 -21,63 -37,72 -10,6 -19,9 -20,7 -1,-1 4,-23 12,-49l15 -48 16 6c9,3 15,8 14,12zm-36 119c-13,41 -50,94 -50,70 0,-6 3,-21 8,-33 12,-27 47,-82 50,-78 2,1 -2,20 -8,41l0 0zm-2195 131c5,6 4,9 -5,12 -15,4 -20,1 -15,-11 4,-11 11,-11 20,-1l0 0z"/>
    <path class="fil0" d="M4491 3309l-10 13 12 -11c12,-10 15,-14 11,-14 -1,0 -7,5 -13,12z"/>
    <path class="fil0" d="M3865 6673c-2,1 -4,6 -4,9 0,3 3,3 7,-1 3,-3 5,-8 4,-9 -2,-2 -5,-2 -7,1z"/>
   </g>
  </g>
 </g>
</svg>
