<?xml version="1.0" standalone="no"?>
<!DOCTYPE svg PUBLIC "-//W3C//DTD SVG 20010904//EN"
 "http://www.w3.org/TR/2001/REC-SVG-20010904/DTD/svg10.dtd">
<svg version="1.0" xmlns="http://www.w3.org/2000/svg"
 width="810.000000pt" height="1280.000000pt" viewBox="0 0 810.000000 1280.000000"
 preserveAspectRatio="xMidYMid meet">
<metadata>
Created by potrace 1.15, written by Peter Selinger 2001-2017
</metadata>
<g transform="translate(0.000000,1280.000000) scale(0.100000,-0.100000)"
fill="#000000" stroke="none">
<path d="M7550 12782 c0 -10 13 -38 29 -63 70 -112 89 -167 95 -289 4 -63 12
-146 18 -183 9 -53 9 -76 -1 -104 -7 -19 -11 -37 -8 -40 5 -4 186 -32 215 -33
9 0 11 15 6 63 -5 47 -2 72 10 101 17 41 14 50 -20 60 -38 11 -57 -15 -62 -85
-2 -35 -8 -68 -12 -73 -16 -17 -42 45 -47 112 -6 74 -15 92 -42 85 -28 -7 -34
14 -11 37 24 24 25 56 4 135 -23 92 -137 295 -165 295 -5 0 -9 -8 -9 -18z"/>
<path d="M7814 12705 c-8 -33 18 -67 38 -47 8 8 9 20 2 39 -12 36 -32 40 -40
8z"/>
<path d="M7866 12629 c-9 -30 -15 -181 -9 -245 6 -66 25 -93 44 -63 11 18 11
213 0 263 -11 44 -28 67 -35 45z"/>
<path d="M7351 12563 c0 -10 4 -26 8 -36 6 -17 8 -17 20 -4 10 12 10 19 -1 36
-16 26 -28 27 -27 4z"/>
<path d="M7420 12492 c0 -13 12 -35 27 -50 17 -16 26 -36 25 -49 -5 -37 34
-113 57 -113 15 0 21 6 21 21 0 33 -60 145 -97 181 -31 30 -33 31 -33 10z"/>
<path d="M8070 12436 c0 -19 4 -24 15 -19 18 6 16 34 -2 41 -8 2 -13 -6 -13
-22z"/>
<path d="M8057 12363 c-3 -5 -22 -51 -42 -103 -21 -52 -50 -120 -65 -150 -15
-30 -30 -66 -33 -80 -7 -30 4 -52 21 -41 23 14 142 322 142 367 0 15 -16 19
-23 7z"/>
<path d="M7245 12330 c-19 -31 122 -210 166 -210 21 0 5 27 -68 117 -83 103
-89 108 -98 93z"/>
<path d="M7537 12252 c-21 -23 -22 -51 -1 -81 12 -17 15 -35 10 -67 l-6 -43
30 5 29 6 -22 -42 c-11 -24 -23 -67 -25 -96 l-4 -52 53 -9 c43 -7 53 -12 51
-26 -10 -57 57 -76 114 -32 107 81 92 283 -17 224 -16 -8 -18 -17 -13 -44 5
-26 2 -35 -13 -43 -31 -17 -46 0 -39 45 6 33 3 42 -18 63 -15 13 -26 32 -26
43 0 11 -12 36 -27 56 -20 25 -27 47 -27 73 1 30 -2 38 -16 38 -9 0 -24 -8
-33 -18z"/>
<path d="M7420 12075 c0 -25 31 -65 62 -81 56 -29 65 11 14 62 -35 35 -76 45
-76 19z"/>
<path d="M7805 11790 c-16 -18 -17 -24 -5 -60 11 -32 11 -47 0 -85 -12 -43
-11 -48 9 -75 55 -75 94 -397 110 -915 8 -256 17 -325 41 -325 19 0 28 44 40
201 22 266 4 529 -56 849 -19 102 -41 229 -49 283 -19 135 -47 174 -90 127z"/>
<path d="M7530 11784 c0 -19 29 -62 69 -102 39 -39 48 -89 66 -387 22 -358 36
-530 66 -828 12 -114 11 -119 -9 -146 -20 -27 -20 -29 -3 -57 10 -16 26 -36
36 -44 21 -17 95 -128 95 -142 0 -14 -53 -1 -139 33 -41 17 -80 28 -88 25 -20
-8 -16 -54 7 -68 11 -7 20 -16 20 -19 0 -24 -256 -62 -668 -99 -384 -34 -524
-24 -557 40 -37 71 -105 55 -105 -25 0 -54 196 -265 247 -265 8 0 13 13 13 33
0 55 13 58 465 102 330 32 518 59 642 91 54 14 132 28 173 31 75 6 75 6 122
57 27 28 48 60 48 72 0 26 -18 44 -46 44 -12 0 -32 9 -45 19 -24 19 -24 20 -6
49 17 29 23 83 11 95 -4 3 -18 -1 -31 -11 -24 -15 -26 -15 -44 6 -36 46 -60
211 -95 657 -18 244 -24 597 -10 691 8 60 8 61 -22 83 -30 21 -130 62 -184 75
-22 5 -28 3 -28 -10z"/>
<path d="M725 11053 c-130 -47 -244 -145 -298 -256 -40 -81 -72 -187 -82 -270
-8 -66 8 -131 41 -164 39 -38 110 -29 205 26 40 23 77 40 82 38 27 -9 -188
-217 -224 -217 -35 0 55 -93 165 -171 85 -60 157 -88 252 -96 65 -5 74 -4 80
12 7 18 -16 45 -111 123 l-40 33 63 -5 c78 -7 111 -24 187 -97 94 -90 170
-116 254 -85 48 17 69 50 84 131 14 78 14 78 93 54 48 -14 83 -7 121 25 l27
23 -38 20 -37 19 50 24 c28 13 51 27 51 31 0 4 -15 19 -32 34 -27 22 -29 25
-10 20 45 -13 89 25 47 41 -21 9 -19 19 9 32 22 10 23 14 18 89 -4 73 -7 80
-39 115 -33 34 -36 42 -45 129 -5 52 -6 104 -3 117 6 24 6 24 27 6 27 -24 48
-75 48 -114 0 -44 23 -83 70 -120 66 -53 92 -120 45 -120 -15 0 -29 -8 -36
-21 -15 -28 -5 -95 17 -120 16 -18 16 -19 -9 -19 -14 0 -28 -4 -31 -9 -10 -15
5 -40 27 -47 19 -6 17 -8 -16 -21 -43 -18 -58 -50 -31 -70 17 -12 16 -15 -10
-42 l-28 -29 22 -12 c38 -20 -5 -48 -100 -64 -31 -5 -37 -3 -52 25 -21 36 -41
29 -36 -14 3 -28 -1 -32 -30 -41 -18 -5 -42 -22 -52 -37 -11 -15 -40 -39 -64
-53 l-45 -26 -643 0 c-354 0 -649 -4 -656 -9 -9 -5 -12 -24 -10 -52 l3 -44
480 -6 c264 -3 492 -9 506 -13 17 -5 29 -4 33 3 5 7 52 10 139 9 l132 -2 -117
-5 c-64 -3 -119 -9 -123 -13 -13 -13 37 -29 88 -28 29 1 75 -3 102 -8 28 -6
70 -7 93 -2 32 5 42 4 42 -6 0 -7 16 -25 35 -40 41 -31 75 -82 75 -113 0 -34
-30 -25 -74 24 -48 51 -63 55 -96 21 -29 -32 -22 -49 30 -65 29 -8 47 -22 58
-42 35 -62 37 -64 61 -47 28 20 121 136 121 152 0 7 -16 20 -36 29 -28 14 -41
30 -61 77 -15 33 -30 60 -35 60 -5 0 -22 -7 -38 -15 -28 -15 -30 -14 -30 5 0
19 6 20 89 20 l89 0 22 -35 c12 -19 23 -51 26 -72 14 -103 15 -108 62 -150
l47 -43 -41 0 c-27 0 -51 7 -69 22 l-28 22 -23 -28 c-29 -33 -30 -46 -4 -79
31 -39 98 -67 161 -67 87 0 122 37 78 81 l-21 21 22 23 c15 16 23 38 24 62 1
33 -2 38 -22 38 -13 0 -29 7 -35 16 -17 23 -52 39 -83 39 l-28 0 30 31 c25 27
27 32 14 42 -18 14 -50 58 -50 69 0 5 89 8 197 8 228 0 226 5 44 -87 -108 -55
-123 -67 -114 -90 12 -32 91 2 238 103 l100 69 360 5 360 5 3 44 c2 28 -1 47
-10 52 -7 5 -289 9 -625 9 -670 0 -676 1 -550 53 98 42 147 57 181 57 54 0
119 49 145 110 53 123 67 299 30 380 -11 25 -55 81 -98 125 -42 44 -110 126
-149 181 -102 145 -142 175 -184 138 -17 -16 -22 -15 -78 10 -56 25 -66 27
-153 21 l-92 -7 -169 57 c-198 66 -279 77 -361 48z m592 -283 c82 -49 29 -230
-67 -230 -68 0 -130 52 -130 109 0 11 7 39 17 62 29 73 112 101 180 59z m-59
-446 c28 -18 42 -53 42 -103 0 -46 -29 -79 -95 -110 -62 -29 -98 -27 -136 7
-27 24 -33 37 -37 84 -4 51 -2 58 28 91 18 20 46 41 64 47 39 11 104 4 134
-16z"/>
<path d="M6179 9924 c-10 -13 -8 -24 15 -70 35 -69 32 -94 -16 -117 -43 -21
-48 -42 -18 -80 21 -26 26 -47 12 -47 -12 0 -37 30 -56 68 -23 45 -44 41 -52
-9 -5 -26 -15 -46 -30 -55 -12 -9 -98 -37 -191 -64 -92 -27 -189 -55 -215 -63
-43 -13 -52 -13 -105 5 -32 10 -77 21 -99 25 -35 5 -44 2 -58 -18 -22 -32 -21
-53 2 -44 30 14 81 17 120 9 l37 -7 -50 -13 c-27 -7 -73 -13 -101 -13 -63 -1
-87 -17 -82 -55 6 -54 24 -54 175 -3 76 26 148 47 160 47 12 0 23 4 25 10 3
10 228 74 324 92 77 14 94 8 94 -32 0 -40 24 -95 46 -108 22 -12 70 4 158 53
66 37 94 61 82 72 -3 3 -31 10 -62 14 -110 15 -95 54 17 43 81 -7 97 6 52 45
-47 40 -58 67 -38 97 8 13 25 24 38 24 58 1 62 45 7 72 -19 10 -61 45 -92 78
-59 63 -77 71 -99 44z"/>
<path d="M4881 9881 c-28 -18 2 -57 53 -70 57 -14 227 -13 286 2 38 10 45 16
45 37 l0 25 -150 0 c-82 0 -166 4 -185 8 -19 4 -41 3 -49 -2z"/>
<path d="M4857 9754 c-15 -15 -6 -46 21 -73 36 -37 101 -45 251 -32 156 14
220 49 180 98 -11 13 -25 14 -89 7 -97 -11 -242 -11 -305 -1 -28 5 -54 5 -58
1z"/>
<path d="M890 9690 c0 -14 35 -30 64 -30 38 0 31 18 -11 29 -47 13 -53 13 -53
1z"/>
<path d="M997 9629 c17 -17 114 -39 203 -46 72 -5 87 -3 99 11 19 22 13 26
-60 36 -91 14 -256 13 -242 -1z"/>
<path d="M4855 9601 c-40 -8 -42 -32 -5 -69 48 -49 93 -57 250 -44 138 11 192
23 223 50 22 20 22 35 -3 57 -17 16 -29 17 -92 9 -80 -10 -266 -11 -313 -3
-16 3 -43 3 -60 0z"/>
<path d="M925 9490 c-7 -11 43 -45 52 -37 3 3 3 12 0 20 -6 17 -45 29 -52 17z"/>
<path d="M1886 9438 c-47 -78 -76 -146 -76 -175 0 -28 8 -37 60 -74 82 -57
275 -278 581 -664 193 -242 259 -340 259 -380 0 -9 -13 -21 -30 -26 -16 -6
-30 -17 -30 -24 0 -7 23 -30 51 -50 28 -20 49 -39 47 -43 -2 -4 -12 -23 -22
-44 -27 -52 -17 -68 42 -68 26 0 56 6 66 13 25 19 31 85 12 149 -22 76 -24 95
-15 142 9 49 -4 86 -30 86 -27 0 -134 118 -345 380 -99 124 -244 302 -322 396
-78 94 -154 190 -169 213 -27 39 -28 45 -18 97 9 49 8 58 -9 80 -25 31 -30 30
-52 -8z"/>
<path d="M1360 9448 c-19 -4 -102 -5 -185 -2 -107 4 -147 3 -140 -5 15 -16
202 -41 305 -41 83 0 90 2 90 20 0 27 -28 38 -70 28z"/>
<path d="M4080 9432 c0 -23 55 -48 180 -82 47 -12 132 -36 190 -52 199 -57
460 -78 460 -37 0 14 -95 37 -344 85 -209 39 -413 83 -468 100 -13 4 -18 0
-18 -14z"/>
<path d="M4714 9420 c-41 -9 -94 -41 -94 -57 0 -17 43 -16 104 2 71 22 102 19
149 -14 73 -50 82 -65 83 -140 0 -38 10 -93 22 -131 29 -89 39 -176 57 -481
23 -393 25 -401 118 -563 40 -70 46 -76 51 -55 46 196 52 293 37 599 -10 186
-9 269 1 395 17 216 16 233 -17 289 -26 44 -27 49 -15 92 7 24 10 48 6 51 -4
4 -35 -1 -70 -10 -82 -22 -111 -21 -243 3 -148 27 -154 28 -189 20z"/>
<path d="M3905 9388 c4 -13 20 -46 35 -74 43 -77 53 -121 42 -181 -11 -65 -3
-82 29 -59 42 29 159 149 165 170 9 26 -21 50 -148 115 -111 58 -133 63 -123
29z"/>
<path d="M3630 9372 c0 -21 62 -208 79 -240 13 -24 41 -30 41 -8 0 8 8 24 18
36 14 17 25 21 43 17 41 -11 52 -24 58 -68 3 -23 11 -44 16 -46 15 -5 43 47
55 104 12 56 5 85 -37 146 -29 41 -47 47 -63 18 -23 -44 -89 -31 -144 28 -33
35 -66 41 -66 13z"/>
<path d="M3502 9318 c-19 -19 -14 -56 14 -104 l26 -44 -22 -72 c-40 -131 -482
-978 -510 -978 -4 0 -19 14 -35 30 -52 54 -60 44 -69 -92 -3 -43 -15 -104 -27
-135 -12 -32 -24 -70 -26 -85 -5 -27 -3 -28 34 -28 49 0 64 11 103 80 18 30
60 93 95 140 102 139 198 305 405 702 62 120 122 227 133 239 13 14 26 19 41
14 75 -24 80 -2 27 113 -23 49 -41 100 -41 113 0 71 -107 148 -148 107z"/>
<path d="M1694 9295 c-16 -40 6 -98 69 -193 36 -53 106 -162 157 -241 50 -79
127 -192 173 -250 129 -167 460 -491 501 -491 33 0 -53 121 -224 315 -315 357
-490 600 -490 680 0 26 -7 36 -37 56 -21 13 -54 46 -74 73 -45 59 -67 74 -75
51z"/>
<path d="M5863 9238 c-11 -13 -29 -39 -38 -58 -34 -68 -75 -109 -138 -139 -83
-38 -182 -63 -237 -59 -69 5 -64 26 27 103 79 67 133 128 133 151 0 17 -20 10
-97 -38 -34 -20 -89 -51 -122 -68 -73 -36 -75 -44 -67 -221 4 -68 6 -150 6
-181 -1 -34 6 -70 15 -88 14 -26 14 -39 3 -90 -10 -52 -10 -69 5 -124 13 -51
15 -70 6 -96 -17 -49 2 -101 48 -131 20 -13 60 -57 89 -97 28 -40 89 -112 136
-160 47 -48 88 -96 92 -108 7 -22 47 -57 130 -114 27 -18 74 -55 103 -82 57
-52 64 -53 124 -22 56 28 119 123 119 179 0 40 -16 30 -56 -36 -37 -62 -85
-102 -110 -92 -24 9 -16 58 17 99 61 76 129 245 129 317 l-1 42 -19 -23 c-11
-13 -28 -53 -39 -89 -23 -76 -63 -138 -102 -159 -16 -8 -30 -14 -34 -14 -15 0
2 44 75 187 122 244 121 301 -4 113 -124 -188 -188 -232 -253 -175 l-28 25 93
86 c51 48 112 114 136 148 54 75 106 176 106 205 0 41 -29 20 -88 -66 -125
-184 -270 -281 -353 -238 -61 32 -34 71 151 217 161 126 250 239 250 314 l-1
29 -35 -40 c-137 -152 -179 -189 -260 -226 -108 -51 -214 -77 -249 -61 -71 33
-29 78 168 178 180 93 254 146 305 224 38 57 82 183 68 197 -13 14 -40 -14
-75 -78 -58 -106 -128 -167 -255 -222 -167 -73 -279 -97 -293 -61 -10 27 39
63 136 100 178 67 257 119 342 227 39 48 68 121 55 134 -4 4 -48 -36 -99 -89
-97 -100 -159 -140 -266 -172 -56 -16 -127 -21 -155 -10 -24 9 -19 51 7 69 13
8 52 27 88 41 94 38 179 82 221 115 91 72 179 249 124 249 -7 0 -22 -10 -33
-22z"/>
<path d="M4594 9194 c3 -9 6 -17 6 -19 0 -8 115 -82 165 -108 61 -30 87 -57
76 -76 -21 -33 -230 -20 -321 20 -27 12 -73 50 -120 99 -42 44 -82 80 -89 80
-19 0 -7 -54 25 -107 44 -76 119 -121 323 -194 137 -50 171 -69 171 -99 0 -25
-20 -30 -109 -30 -149 0 -247 41 -365 151 -55 51 -80 69 -88 61 -20 -20 2 -61
65 -123 76 -74 179 -126 327 -164 148 -38 192 -58 188 -87 -3 -22 -7 -23 -74
-22 -95 2 -276 40 -339 70 -33 16 -82 58 -142 122 -71 74 -95 94 -104 85 -20
-20 36 -120 105 -189 73 -73 132 -102 346 -173 167 -55 200 -72 200 -101 0
-50 -83 -62 -231 -34 -126 23 -194 61 -295 159 -47 47 -90 85 -96 85 -16 0 0
-49 32 -95 58 -84 154 -159 306 -240 83 -45 152 -88 161 -102 15 -23 15 -26
-11 -51 -23 -23 -34 -27 -82 -26 -91 2 -171 49 -286 166 -58 59 -99 95 -103
88 -26 -43 163 -264 287 -335 80 -46 89 -62 53 -92 -66 -57 -140 -13 -283 166
-51 65 -77 90 -84 83 -17 -17 5 -58 118 -224 103 -151 113 -171 94 -183 -19
-12 -63 30 -130 125 -70 98 -96 127 -106 117 -16 -15 97 -214 161 -286 42 -47
55 -73 55 -110 0 -51 -31 -38 -108 45 -75 79 -103 90 -77 28 33 -80 118 -154
174 -154 41 0 63 16 112 80 18 25 38 47 43 49 35 14 101 93 131 155 20 43 53
90 82 118 28 27 68 84 98 139 28 51 69 112 92 136 46 48 62 95 41 120 -13 16
-25 151 -32 343 -5 149 -37 403 -54 432 -17 29 -38 40 -115 57 -26 6 -72 23
-103 36 -66 29 -99 33 -90 9z"/>
<path d="M5250 7925 c-42 -16 -93 -18 -136 -6 -79 22 -66 -40 18 -88 64 -37
75 -38 118 -8 47 32 74 70 65 96 -7 24 -16 25 -65 6z"/>
<path d="M5354 7903 c-22 -51 -8 -77 49 -91 48 -13 146 -74 190 -119 15 -16
40 -53 55 -83 31 -61 49 -72 57 -37 14 54 -61 152 -190 248 -51 37 -99 79
-109 93 -22 35 -34 33 -52 -11z"/>
<path d="M4900 7839 c-58 -38 -130 -95 -162 -126 -61 -61 -98 -127 -81 -144 7
-7 22 4 49 38 90 111 206 193 275 193 54 0 63 11 55 64 -4 25 -13 46 -19 46
-7 0 -59 -32 -117 -71z"/>
<path d="M4980 7732 c-19 -20 -64 -59 -100 -87 -83 -65 -123 -121 -124 -176
-1 -59 17 -59 41 -1 38 91 135 172 205 172 14 0 28 6 31 13 6 17 -3 106 -12
111 -4 3 -22 -12 -41 -32z"/>
<path d="M5245 7754 c-38 -15 -67 -14 -152 2 -47 9 -43 -14 12 -65 63 -58 85
-67 123 -47 42 21 92 74 92 96 0 14 -23 34 -33 29 -1 0 -20 -7 -42 -15z"/>
<path d="M5355 7748 c-3 -7 -6 -33 -7 -57 -3 -48 1 -53 82 -83 68 -25 150
-122 150 -177 0 -30 19 -35 26 -6 16 63 -27 147 -104 205 -26 19 -68 56 -95
83 -30 30 -49 43 -52 35z"/>
<path d="M5256 7594 c-32 -12 -50 -12 -93 -3 -65 13 -83 8 -83 -24 0 -61 141
-103 197 -59 33 25 55 73 41 89 -12 15 -11 15 -62 -3z"/>
<path d="M5060 7452 c0 -25 50 -93 83 -115 15 -9 39 -17 54 -17 55 0 123 60
109 96 -5 12 -19 14 -73 9 -64 -7 -69 -6 -92 19 -30 32 -81 36 -81 8z"/>
<path d="M5080 7289 c0 -32 91 -119 123 -119 31 0 87 45 87 70 0 21 -19 30
-66 30 -19 0 -52 9 -74 20 -51 26 -70 26 -70 -1z"/>
<path d="M5087 7174 c-11 -12 16 -64 49 -94 45 -39 91 -40 128 -4 46 46 29 77
-34 61 -34 -10 -43 -8 -79 16 -41 28 -53 31 -64 21z"/>
<path d="M4481 7018 c-52 -25 -94 -81 -110 -143 -17 -66 0 -119 53 -170 81
-77 386 -310 448 -343 95 -51 107 -60 139 -110 54 -85 30 -161 -50 -163 -60
-2 -83 2 -110 19 -33 21 -42 35 -62 99 -32 101 -161 263 -209 263 -81 0 -138
-126 -95 -210 20 -39 57 -66 118 -86 64 -21 97 -48 182 -147 131 -154 187
-156 305 -12 88 108 93 108 199 -2 104 -109 143 -128 194 -93 18 12 59 56 92
97 70 88 117 128 201 172 72 38 122 83 130 118 9 35 -11 96 -42 127 -33 32
-76 34 -122 6 -18 -11 -39 -20 -48 -20 -9 0 -14 -6 -12 -12 3 -7 -12 -39 -33
-71 -21 -32 -45 -79 -55 -105 -9 -26 -21 -60 -26 -75 -16 -43 -55 -57 -154
-57 l-86 0 7 57 c15 120 20 126 154 202 33 19 90 58 127 87 37 30 75 54 85 54
22 0 81 49 76 64 -4 12 37 47 126 108 32 22 67 54 78 71 25 42 25 128 0 182
-64 138 -217 152 -426 41 -98 -53 -177 -82 -267 -101 -146 -31 -225 -16 -428
82 -208 100 -290 115 -379 71z m1049 -176 c0 -5 -9 -17 -20 -27 -11 -10 -22
-33 -26 -51 -6 -32 0 -53 51 -192 14 -40 14 -46 -1 -77 -14 -31 -48 -54 -60
-42 -3 2 0 25 7 51 12 49 9 68 -31 180 -25 71 -20 106 22 141 29 25 58 33 58
17z m-600 -61 c39 -28 39 -86 -1 -172 -31 -68 -32 -73 -20 -117 19 -69 19 -77
-4 -74 -26 4 -45 30 -45 61 0 14 11 69 25 121 33 129 33 154 -5 177 -16 9 -30
21 -30 26 0 13 51 -1 80 -22z m321 -219 c-51 -23 -55 -24 -87 -8 -19 8 -34 19
-34 24 0 4 39 8 87 8 l87 0 -53 -24z"/>
<path d="M5070 7008 c0 -20 80 -98 99 -98 26 0 96 44 96 60 0 23 -48 41 -125
47 -58 5 -70 3 -70 -9z"/>
<path d="M6026 6277 c-26 -19 -15 -44 48 -105 29 -29 59 -67 66 -85 25 -69 48
-89 78 -71 24 15 27 65 7 125 -23 69 -56 104 -121 128 -65 25 -56 24 -78 8z"/>
<path d="M4347 6240 c-106 -31 -196 -191 -138 -244 27 -24 57 -7 80 47 18 41
77 104 119 126 23 12 38 49 25 61 -14 13 -57 18 -86 10z"/>
<path d="M5920 6110 c-12 -17 -24 -49 -27 -70 -5 -34 -1 -43 25 -70 52 -51
131 -39 157 24 29 70 -21 146 -96 146 -31 0 -42 -6 -59 -30z"/>
<path d="M4403 6089 c-41 -12 -63 -44 -63 -91 0 -29 7 -45 35 -73 45 -45 74
-45 122 -1 32 29 38 41 38 75 0 70 -61 111 -132 90z"/>
<path d="M5758 5947 c-100 -68 -97 -111 12 -183 79 -52 110 -91 141 -178 11
-32 78 -349 149 -705 72 -355 141 -698 155 -761 33 -154 33 -223 0 -256 -20
-20 -31 -24 -58 -19 -69 13 -102 -57 -63 -134 30 -58 59 -71 158 -71 99 0 93
5 118 -88 15 -58 60 -88 101 -67 36 19 69 66 69 99 0 15 -14 54 -31 88 -42 83
-62 172 -104 453 -41 283 -145 915 -210 1274 -25 140 -45 266 -45 281 0 16 18
49 46 86 41 52 45 63 41 97 -3 21 -11 44 -17 52 -21 26 -71 18 -124 -20 -76
-54 -104 -49 -212 36 -34 27 -66 49 -70 48 -5 0 -30 -15 -56 -32z"/>
<path d="M4191 5896 c-22 -27 -14 -75 25 -152 l38 -76 -53 -207 c-179 -691
-241 -933 -318 -1251 -92 -382 -115 -457 -164 -525 -26 -36 -30 -50 -25 -78
13 -68 90 -104 136 -62 11 10 33 42 49 71 17 29 35 55 40 58 5 4 26 -3 46 -15
63 -37 139 -10 176 63 32 62 4 128 -54 128 -10 0 -32 7 -49 16 -50 26 -57 -6
206 909 154 535 226 765 257 827 21 41 54 68 148 118 59 31 66 39 69 68 3 27
-4 40 -36 73 -34 34 -46 39 -84 39 -36 0 -54 -7 -91 -35 -79 -61 -128 -59
-202 5 -49 42 -93 52 -114 26z"/>
<path d="M6056 3593 c-29 -88 -46 -177 -46 -240 0 -77 8 -83 117 -84 78 -1
133 11 133 31 0 5 1 13 1 17 1 5 -16 17 -37 28 -65 34 -82 69 -114 238 -14 71
-33 74 -54 10z"/>
<path d="M4157 3603 c-8 -16 -22 -61 -32 -101 -22 -91 -48 -129 -107 -159 -52
-26 -58 -41 -28 -68 26 -23 132 -31 185 -13 35 12 40 17 46 53 11 63 -7 263
-26 291 -20 30 -21 30 -38 -3z"/>
<path d="M6215 3598 c-65 -23 -79 -56 -50 -124 17 -41 71 -69 116 -59 95 21
91 197 -4 194 -18 0 -45 -5 -62 -11z"/>
<path d="M3939 3587 c-40 -30 -52 -104 -23 -145 15 -22 63 -52 83 -52 19 0 74
54 87 86 27 64 -21 124 -98 124 -18 0 -40 -6 -49 -13z"/>
<path d="M3740 3432 l-22 -18 1 -529 c1 -742 -16 -1830 -29 -1884 -6 -24 -25
-64 -43 -88 l-32 -45 24 -19 c35 -28 68 -34 131 -21 83 17 117 15 130 -7 14
-27 -6 -70 -37 -77 -14 -4 -32 0 -46 10 -12 9 -32 23 -44 32 -31 22 -53 11
-53 -26 0 -16 -9 -53 -20 -82 -25 -67 -25 -80 3 -106 35 -33 58 -27 97 26 43
57 80 67 105 28 21 -31 13 -46 -25 -46 -33 0 -57 -21 -77 -67 -7 -18 -20 -33
-27 -33 -8 0 -33 16 -57 36 -62 51 -95 67 -118 54 -18 -9 -19 -8 -11 21 5 18
7 35 5 39 -3 5 11 31 30 60 50 74 47 128 -7 156 -43 22 -69 12 -123 -48 -74
-83 -76 -91 -27 -141 41 -42 41 -42 23 -67 -10 -14 -21 -39 -24 -57 -9 -48 8
-56 113 -51 49 2 90 3 90 2 0 -12 -113 -35 -185 -38 -81 -3 -95 -1 -143 23
l-54 26 -18 -23 c-23 -28 -30 -28 -30 3 0 14 -6 25 -12 25 -36 -1 -231 -111
-210 -118 7 -2 42 9 79 24 l66 28 16 -22 c9 -12 23 -32 32 -44 l17 -23 77 38
c71 35 78 36 89 21 10 -13 31 -17 87 -19 41 -1 88 -6 105 -10 28 -6 36 -2 72
35 l40 42 109 -7 c61 -3 124 -13 145 -22 20 -8 44 -13 53 -9 17 6 17 26 -1
142 -5 36 -3 44 17 58 13 9 33 16 46 16 12 0 24 4 27 9 7 10 -19 85 -63 188
-17 40 -31 74 -31 77 0 4 9 6 20 6 42 0 38 73 -4 84 -32 8 -36 28 -36 196 0
365 54 1610 76 1755 9 60 29 102 74 152 39 45 50 76 30 88 -5 3 -35 -1 -67 -9
-71 -19 -99 -13 -112 24 -5 16 -27 40 -49 54 -39 24 -52 52 -52 111 0 13 -12
37 -26 54 -30 36 -78 42 -114 13z"/>
<path d="M6389 3411 c-20 -21 -29 -39 -29 -63 0 -43 -22 -73 -71 -98 -46 -24
-49 -42 -12 -73 75 -62 73 -57 73 -174 0 -327 -53 -1045 -116 -1583 -52 -444
-68 -500 -144 -500 -62 0 -80 -45 -37 -96 22 -25 25 -26 60 -13 31 11 50 10
125 -4 111 -21 125 -21 145 1 24 26 21 55 -8 86 -23 25 -25 35 -25 122 0 85
45 734 116 1649 28 367 39 479 59 608 8 48 11 95 8 105 -23 66 -94 82 -144 33z"/>
<path d="M6050 3191 c0 -12 13 -41 29 -64 46 -68 53 -87 62 -161 14 -126 -42
-1710 -67 -1883 -5 -34 -17 -53 -57 -92 -51 -49 -58 -81 -20 -81 28 1 114 52
135 80 22 31 32 124 53 535 27 531 36 782 43 1157 7 366 7 366 30 391 17 18
22 32 17 46 -8 26 -123 82 -182 89 -39 4 -43 3 -43 -17z"/>
<path d="M5873 876 c-64 -30 -67 -48 -23 -137 36 -69 62 -99 90 -99 21 0 85
51 101 82 15 27 -4 70 -41 91 -21 13 -30 27 -32 50 -4 42 -27 45 -95 13z"/>
<path d="M6100 754 c0 -29 -7 -43 -36 -70 -19 -19 -39 -34 -44 -34 -4 0 -15
-16 -25 -36 -19 -41 -8 -64 30 -64 13 0 45 -18 71 -40 27 -22 54 -40 61 -40
42 0 60 108 29 169 l-18 34 42 -6 c62 -8 66 -16 51 -89 -12 -60 -12 -63 9 -80
28 -23 41 -23 73 2 26 21 87 153 87 189 0 19 -6 21 -58 21 -57 0 -136 21 -198
53 -16 8 -39 18 -51 21 -21 7 -23 4 -23 -30z"/>
<path d="M3312 654 c-34 -8 -72 -18 -83 -24 -19 -10 -19 -14 -6 -33 13 -20 25
-22 106 -25 100 -3 113 4 95 56 -13 35 -39 41 -112 26z"/>
<path d="M6423 593 c-25 -70 23 -144 83 -129 31 8 31 29 -3 97 -33 64 -65 77
-80 32z"/>
<path d="M3075 556 c-17 -14 -18 -17 -5 -26 19 -12 87 -13 94 -1 16 25 -61 48
-89 27z"/>
<path d="M2993 475 c-35 -15 -47 -55 -18 -55 36 0 85 38 85 66 0 8 -36 3 -67
-11z"/>
<path d="M6200 466 c0 -3 9 -20 20 -38 13 -21 20 -51 20 -81 0 -53 -4 -48 109
-137 35 -27 69 -50 76 -50 36 0 16 78 -25 100 -23 12 -122 132 -114 139 2 3
33 -24 68 -58 44 -43 69 -62 80 -58 23 9 20 38 -9 77 -14 19 -25 46 -25 61 0
25 -4 28 -47 33 -27 3 -72 8 -100 12 -29 3 -53 3 -53 0z"/>
<path d="M6473 410 c-28 -11 -28 -18 -3 -50 12 -15 20 -41 20 -66 0 -47 14
-64 52 -64 36 0 54 31 36 63 -7 12 -15 45 -18 72 -5 47 -7 50 -35 52 -16 1
-40 -2 -52 -7z"/>
<path d="M2913 394 c-7 -18 11 -39 26 -30 17 11 13 46 -4 46 -9 0 -18 -7 -22
-16z"/>
<path d="M6590 205 c-7 -8 -21 -15 -32 -15 -27 0 -58 -18 -58 -35 0 -7 -9 -17
-20 -20 -47 -15 -5 -75 52 -75 23 0 28 4 28 24 0 31 11 38 37 23 11 -7 34 -20
51 -30 l31 -17 32 35 c18 19 40 37 49 40 10 3 43 -10 79 -31 34 -20 64 -34 67
-32 15 16 -171 138 -210 138 -11 0 -16 -9 -16 -32 l-1 -33 -30 38 c-34 41 -41
44 -59 22z"/>
<path d="M6735 74 c-15 -15 -15 -19 -2 -32 9 -8 32 -15 53 -16 50 -1 59 26 15
48 -38 20 -46 20 -66 0z"/>
<path d="M6860 35 c-17 -21 1 -39 29 -30 25 8 28 30 5 39 -21 8 -20 8 -34 -9z"/>
</g>
</svg>
