<?xml version="1.0" standalone="no"?>
<!DOCTYPE svg PUBLIC "-//W3C//DTD SVG 20010904//EN"
 "http://www.w3.org/TR/2001/REC-SVG-20010904/DTD/svg10.dtd">
<svg version="1.0" xmlns="http://www.w3.org/2000/svg"
 width="1280.000000pt" height="1158.000000pt" viewBox="0 0 1280.000000 1158.000000"
 preserveAspectRatio="xMidYMid meet">
<metadata>
Created by potrace 1.15, written by Peter Selinger 2001-2017
</metadata>
<g transform="translate(0.000000,1158.000000) scale(0.100000,-0.100000)"
fill="#000000" stroke="none">
<path d="M6286 11535 l-79 -43 -94 -144 c-333 -507 -521 -927 -641 -1428 -23
-98 -57 -208 -83 -270 l-44 -105 -150 -12 c-222 -18 -473 -50 -710 -89 -115
-20 -212 -37 -215 -39 -3 -2 -36 5 -74 15 -136 38 -250 52 -451 57 -233 6
-361 -8 -570 -62 -882 -228 -1762 -850 -2358 -1667 -438 -601 -699 -1319 -793
-2178 -22 -194 -25 -722 -6 -915 40 -411 111 -749 232 -1115 308 -930 862
-1648 1540 -1995 173 -88 335 -121 558 -112 137 5 292 36 360 71 26 13 29 12
97 -56 332 -333 684 -504 1165 -564 136 -17 440 -17 560 -1 l84 12 81 -53
c285 -189 677 -304 1185 -346 488 -41 821 -28 1158 45 212 46 454 145 591 242
l64 45 41 -15 c87 -31 307 -82 421 -98 88 -13 151 -15 235 -11 452 26 861 162
1190 394 88 63 262 223 307 284 18 24 24 26 54 18 79 -21 242 -30 353 -19 201
20 349 68 571 187 481 256 919 667 1247 1172 351 538 569 1143 652 1805 122
975 -83 2025 -585 2994 -130 251 -273 458 -467 674 -544 606 -1427 1086 -2302
1251 -589 111 -995 149 -1368 128 -310 -17 -604 -58 -905 -124 l-98 -21 -182
24 c-180 24 -182 24 -229 62 -112 88 -217 252 -259 403 -26 94 -31 257 -10
374 45 257 233 633 463 926 26 34 48 68 48 76 0 29 -33 114 -57 145 -32 44
-46 50 -165 73 -233 45 -259 50 -271 49 -6 0 -48 -20 -91 -44z"/>
</g>
</svg>
