<?xml version="1.0" standalone="no"?>
<!DOCTYPE svg PUBLIC "-//W3C//DTD SVG 20010904//EN"
 "http://www.w3.org/TR/2001/REC-SVG-20010904/DTD/svg10.dtd">
<svg version="1.0" xmlns="http://www.w3.org/2000/svg"
 width="1066.000000pt" height="1280.000000pt" viewBox="0 0 1066.000000 1280.000000"
 preserveAspectRatio="xMidYMid meet">
<metadata>
Created by potrace 1.15, written by Peter Selinger 2001-2017
</metadata>
<g transform="translate(0.000000,1280.000000) scale(0.100000,-0.100000)"
fill="#000000" stroke="none">
<path d="M5982 12255 c-111 -58 -238 -110 -457 -187 -349 -122 -480 -193 -556
-300 l-21 -28 56 -25 c71 -32 178 -58 344 -85 254 -41 329 -85 378 -221 11
-33 15 -82 15 -198 -1 -231 -20 -320 -77 -357 -23 -16 -27 -16 -67 2 -23 10
-95 54 -159 96 -132 87 -208 128 -237 128 -22 0 -68 -54 -100 -119 -64 -125
-68 -379 -10 -605 16 -64 17 -81 7 -88 -43 -27 -231 -118 -273 -131 -27 -8
-94 -18 -149 -22 -377 -25 -646 -149 -741 -342 -25 -52 -54 -163 -55 -209 0
-60 174 -259 330 -376 103 -77 265 -178 387 -241 57 -28 103 -54 103 -57 0 -3
-37 -18 -83 -33 -145 -50 -268 -132 -318 -213 -18 -29 -19 -38 -8 -44 9 -6 29
8 66 49 82 91 196 153 357 195 l56 15 87 -41 c72 -33 326 -137 396 -161 23 -9
22 -37 -3 -37 -38 0 -327 -79 -440 -120 -112 -41 -427 -176 -443 -189 -4 -4
-1 -14 5 -23 12 -15 28 -10 158 48 271 122 569 220 725 240 l51 6 38 -58 c22
-33 59 -85 83 -116 24 -32 39 -58 32 -58 -6 0 -40 -28 -74 -62 -63 -64 -183
-135 -383 -227 -97 -45 -96 -45 -85 -65 7 -13 24 -8 113 34 58 26 146 70 195
98 50 27 91 49 92 48 1 -1 -7 -37 -18 -81 -10 -44 -19 -110 -19 -146 0 -76 3
-72 -115 -144 -113 -69 -176 -132 -266 -267 -61 -91 -165 -229 -215 -287 -9
-10 -20 21 -100 284 -209 685 -393 1070 -614 1285 -55 53 -57 58 -64 120 -19
171 -78 366 -158 523 -102 199 -223 268 -310 175 -16 -18 -73 -118 -126 -225
l-96 -193 -68 0 c-360 0 -956 -199 -1500 -501 l-90 -50 -81 17 c-211 43 -493
132 -621 196 -73 37 -76 33 -75 -82 1 -213 15 -341 53 -465 55 -179 95 -257
163 -318 31 -29 88 -83 126 -121 57 -59 67 -73 62 -95 -3 -14 -12 -89 -20
-166 -20 -192 -19 -472 5 -840 30 -477 28 -551 -40 -1359 -134 -1584 -188
-2114 -276 -2723 -31 -219 -70 -335 -248 -737 -136 -307 -182 -428 -217 -571
-30 -125 -28 -137 29 -168 169 -92 453 -42 854 150 76 36 138 70 138 75 0 24
-129 -13 -345 -100 -233 -93 -401 -131 -492 -112 -68 15 -75 22 -80 77 -13
130 45 318 206 671 127 279 173 398 201 515 30 127 75 564 190 1812 76 829
112 1189 153 1525 37 307 41 521 17 870 -20 280 -18 678 3 843 16 115 20 132
51 175 75 105 109 197 181 482 49 194 105 312 183 388 68 67 149 113 249 141
45 12 107 41 161 74 227 140 497 246 747 293 149 28 380 26 500 -5 220 -56
442 -209 616 -426 213 -265 424 -722 539 -1169 34 -134 70 -323 70 -370 0 -48
-428 -739 -560 -903 l-42 -53 -66 0 c-122 0 -246 -42 -335 -113 -33 -26 -41
-28 -63 -18 -65 29 -237 5 -395 -56 -70 -27 -77 -28 -119 -16 -81 24 -243 45
-300 38 -30 -3 -83 -20 -118 -36 -59 -28 -70 -30 -191 -31 -213 -1 -289 37
-339 168 -12 34 -34 72 -48 85 l-26 24 -24 -28 c-47 -55 -25 -138 54 -208 98
-86 324 -168 393 -142 20 8 29 8 29 1 0 -6 -33 -252 -74 -547 -101 -728 -104
-746 -116 -996 -21 -414 -62 -762 -126 -1050 -21 -94 -74 -276 -129 -440 -93
-280 -130 -414 -123 -455 5 -32 99 154 136 270 46 140 238 805 256 880 38 168
58 355 91 870 30 464 40 578 66 780 36 275 102 567 150 661 46 92 149 169 226
169 52 0 112 -29 130 -63 13 -25 13 -39 4 -81 -30 -135 -41 -331 -42 -723 -1
-701 -13 -1089 -39 -1233 -46 -260 -117 -435 -218 -536 l-57 -58 53 29 c123
66 236 231 281 410 49 194 53 261 61 1105 6 703 8 802 23 854 10 32 26 71 37
86 54 75 152 137 294 185 82 28 209 56 204 46 -21 -44 -72 -113 -105 -144 -61
-57 -78 -109 -77 -237 0 -92 7 -130 51 -305 83 -325 117 -586 133 -1010 27
-715 -77 -1763 -235 -2385 -32 -124 -38 -138 -71 -167 -41 -36 -160 -82 -309
-119 -144 -36 -355 -42 -625 -18 -113 10 -270 18 -350 18 -128 1 -154 -2 -220
-23 -78 -26 -108 -50 -213 -170 -26 -29 -47 -51 -47 -48 0 4 11 104 25 224 72
648 124 1274 151 1828 15 313 32 1785 21 1775 -7 -7 -84 -1233 -142 -2275 -48
-874 -57 -1083 -59 -1343 l-1 -264 25 -20 c21 -17 35 -19 85 -15 112 9 236 85
316 193 59 81 103 98 228 91 109 -6 237 -41 252 -68 16 -31 86 -321 103 -428
9 -57 21 -164 25 -237 7 -122 11 -140 40 -199 43 -87 86 -119 159 -122 46 -1
61 -6 96 -35 137 -113 191 -123 244 -47 l28 42 95 -2 c99 -2 145 9 153 38 2 9
7 51 11 94 l7 77 -65 123 c-80 152 -162 359 -187 475 -11 48 -23 130 -26 183
l-7 95 49 19 c27 10 91 37 142 61 l92 43 0 -28 c0 -77 156 -448 277 -660 98
-170 239 -333 300 -345 85 -16 254 -28 330 -23 148 9 319 79 387 159 60 69 55
150 -12 222 -37 39 -163 97 -241 110 -38 7 -67 17 -71 26 -4 8 -60 175 -124
370 l-117 355 69 128 c65 120 75 134 172 223 57 52 108 94 114 94 6 0 34 -7
61 -16 105 -33 331 -74 406 -74 68 0 80 -3 125 -32 69 -46 211 -191 273 -279
123 -173 161 -291 161 -493 0 -190 -50 -440 -103 -511 -19 -26 -22 -42 -22
-130 1 -144 34 -237 98 -271 112 -59 108 -58 151 -46 23 6 42 7 44 2 11 -30
51 -76 73 -84 43 -15 96 2 136 42 l37 37 92 0 c57 0 96 5 106 12 17 14 43 71
94 202 36 94 37 96 30 195 -4 56 -11 119 -16 141 -17 78 -23 318 -11 464 27
325 119 517 283 594 77 37 129 42 212 23 317 -74 496 -340 601 -892 53 -277
64 -325 85 -362 11 -18 31 -67 46 -110 59 -177 135 -282 242 -334 64 -32 70
-33 177 -31 60 1 140 -3 176 -9 62 -10 70 -9 124 16 35 16 75 26 103 26 26 0
64 9 88 21 50 24 104 81 104 110 0 37 -38 96 -116 178 -65 70 -90 88 -168 125
-105 51 -161 103 -172 161 -9 48 5 147 82 577 l63 357 80 179 c85 193 139 330
168 430 17 62 20 65 73 92 118 59 185 75 316 75 118 0 121 -1 195 -37 47 -24
106 -66 164 -118 103 -93 160 -126 199 -116 44 11 92 62 115 123 124 318 196
540 232 717 46 227 51 319 56 1144 5 774 5 785 -17 915 -20 121 -79 364 -179
738 -56 211 -89 406 -101 597 -13 195 -22 223 -151 487 -52 108 -102 192 -151
257 -84 111 -393 448 -411 448 -7 0 -18 10 -26 23 -13 20 -13 21 2 8 19 -15
22 -8 7 20 -6 10 -17 19 -24 19 -14 0 -197 372 -196 399 1 3 9 17 20 29 l20
24 53 -25 c29 -13 128 -68 220 -121 186 -108 446 -238 459 -230 25 16 -6 38
-137 102 -80 39 -215 112 -300 162 -85 50 -181 103 -213 117 -31 14 -58 27
-59 28 -2 1 12 30 31 66 18 35 41 85 50 110 l17 45 112 -13 c285 -35 571 -121
918 -279 67 -30 123 -53 124 -52 2 2 5 12 7 22 2 16 -23 31 -152 88 -328 147
-578 222 -878 264 -58 8 -107 16 -109 18 -2 2 5 41 16 87 11 46 22 102 26 123
l6 39 207 -6 c494 -15 785 -102 913 -273 19 -25 37 -40 45 -37 27 10 13 36
-54 103 -157 157 -427 232 -894 247 l-208 6 0 74 c0 50 4 75 13 77 6 2 89 21
182 41 619 134 1078 310 1219 466 48 54 63 96 52 153 -6 32 -10 35 -53 42 -90
13 -311 -3 -483 -36 -215 -41 -390 -50 -493 -25 -96 23 -208 81 -298 153 -112
90 -108 84 -93 173 7 42 40 150 73 240 32 90 68 208 80 261 34 156 48 428 22
428 -4 0 -70 -25 -146 -56 -182 -74 -349 -130 -426 -144 -142 -26 -182 27
-269 358 -76 293 -124 395 -235 508 -77 78 -148 122 -254 159 -67 24 -228 55
-282 55 -16 0 -87 36 -170 85 -361 215 -596 296 -856 294 l-128 -1 -103 -53z
m809 -512 c7 -7 -27 -13 -103 -17 -286 -18 -430 -58 -572 -160 -66 -47 -204
-187 -233 -237 -46 -78 -29 24 20 115 89 168 266 270 527 306 83 11 348 6 361
-7z m78 -483 c-53 -31 -522 -155 -682 -180 -134 -21 -317 -10 -317 20 0 17
283 70 645 119 121 17 247 35 280 40 85 12 94 13 74 1z m-1504 -311 c62 -28
178 -143 223 -221 41 -70 100 -205 104 -238 3 -22 -10 -29 -227 -111 -263
-100 -244 -100 -284 5 -39 104 -56 214 -56 356 0 118 3 141 22 183 12 26 32
51 44 55 31 12 117 -2 174 -29z m3395 -14 c98 -51 78 -198 -69 -514 -45 -94
-75 -174 -83 -217 -25 -139 -75 -165 -174 -91 -125 94 -190 207 -234 409 -22
97 -32 121 -61 154 -19 20 -19 20 54 48 39 16 141 64 226 107 143 74 251 117
294 118 10 1 31 -6 47 -14z m-1895 -101 c160 -17 454 -66 535 -89 30 -8 158
-42 284 -75 321 -84 409 -129 462 -236 26 -52 27 -60 21 -160 -6 -101 -5 -105
19 -134 23 -27 24 -30 7 -30 -10 0 -76 20 -146 45 -217 76 -417 120 -692 150
-234 25 -778 67 -995 75 -151 6 -227 14 -287 29 -90 23 -198 68 -241 101 -70
56 -82 130 -32 199 34 46 45 52 158 80 266 69 555 83 907 45z m-200 -1113 c29
-78 73 -135 108 -139 41 -5 62 37 93 186 6 32 39 28 53 -5 6 -16 20 -69 30
-119 25 -114 36 -143 57 -151 24 -9 59 39 85 115 21 65 61 122 84 122 7 0 32
-29 55 -65 50 -77 74 -84 89 -27 5 20 11 51 13 67 l3 30 100 3 c241 8 471 -48
879 -211 150 -61 186 -80 186 -101 0 -7 -39 -31 -87 -53 -102 -46 -173 -89
-173 -104 0 -6 33 -9 89 -7 102 3 124 -8 135 -68 13 -69 -35 -111 -129 -113
l-39 -1 44 -45 c51 -52 52 -51 -80 -60 -105 -7 -442 -42 -477 -50 -22 -5 -31
-29 -15 -38 4 -2 73 4 153 14 202 25 499 50 510 43 10 -6 13 -194 3 -194 -4 0
-32 15 -63 34 -59 36 -137 76 -146 76 -18 0 2 -32 52 -82 l57 -58 -104 0
c-100 -1 -262 -13 -342 -26 -30 -4 -38 -10 -38 -26 0 -19 4 -20 58 -14 98 12
304 25 388 26 82 0 100 -8 128 -57 7 -13 -42 -143 -54 -143 -5 0 -46 9 -92 20
-89 21 -306 50 -374 50 -28 0 -44 -5 -48 -15 -7 -20 -5 -21 149 -35 126 -11
309 -44 335 -60 10 -6 4 -25 -27 -77 -60 -99 -138 -184 -223 -241 -79 -53
-274 -153 -375 -192 -135 -54 -89 -53 85 1 73 22 134 39 135 37 2 -2 -72 -63
-163 -137 -155 -124 -181 -140 -359 -229 l-192 -96 -65 62 c-66 64 -131 101
-176 102 -14 0 -61 -19 -106 -42 l-81 -41 -259 92 c-142 50 -268 96 -279 102
-25 12 -4 9 160 -25 145 -30 308 -53 435 -62 85 -6 110 -3 240 26 186 42 286
75 329 108 19 15 44 33 55 40 15 9 16 12 4 8 -38 -11 -278 -56 -363 -67 -137
-17 -392 -15 -510 6 -187 32 -404 109 -638 225 -147 73 -175 94 -281 207 l-86
91 48 20 c111 47 297 85 485 98 88 6 97 9 97 27 0 19 -4 20 -100 13 -192 -13
-367 -48 -488 -98 -40 -17 -74 -29 -76 -27 -1 2 -19 24 -39 49 -41 53 -100
171 -89 182 4 4 84 12 179 19 163 11 380 4 559 -17 45 -6 52 -4 56 14 6 23 0
25 -196 43 -125 11 -470 7 -577 -7 l-45 -6 -13 42 c-7 23 -15 48 -17 55 -4 9
11 17 46 24 74 16 143 48 175 81 30 31 28 34 -25 43 -52 9 60 7 191 -3 148
-12 478 -47 522 -56 22 -5 27 -2 27 14 0 12 -9 22 -23 26 -55 13 -512 56 -717
67 -240 12 -258 17 -246 62 7 31 43 67 134 134 112 83 109 102 -15 112 l-78 6
3 30 c6 59 51 100 157 143 38 16 71 34 73 40 4 13 -83 55 -154 74 -24 7 -44
15 -44 18 0 10 80 65 135 93 115 58 328 106 550 126 55 5 201 8 324 7 l223 -1
23 -64z m-3065 -187 c103 -93 223 -467 168 -522 -17 -17 -78 -15 -118 6 -72
36 -106 122 -120 311 -5 68 -11 126 -14 128 -2 2 -5 -32 -8 -75 -4 -63 -10
-89 -32 -126 -32 -55 -79 -88 -121 -84 -53 5 -43 67 30 174 14 20 25 43 25 50
0 28 42 123 65 148 35 38 75 35 125 -10z m-2470 -815 c238 -54 288 -67 332
-90 64 -32 66 -51 20 -160 -22 -52 -67 -161 -100 -244 -33 -82 -71 -174 -84
-203 l-24 -54 -79 65 c-134 108 -238 226 -287 324 -42 85 -43 89 -43 187 0 90
3 108 29 164 22 48 33 61 45 56 9 -3 95 -24 191 -45z m5651 -1361 c-10 -24
-47 -106 -81 -183 -34 -77 -64 -146 -67 -152 -3 -9 6 -13 28 -13 19 0 75 -7
124 -14 50 -8 92 -11 95 -9 3 3 -1 8 -7 10 -7 3 -13 10 -13 16 -1 28 94 357
100 350 4 -4 30 -82 59 -172 28 -90 52 -165 53 -166 6 -5 203 -32 207 -29 2 2
-29 78 -68 170 -39 92 -70 169 -68 171 4 4 533 -410 570 -447 18 -17 16 -18
-55 -24 -122 -10 -590 -35 -803 -41 -283 -9 -740 19 -869 53 -23 6 23 37 392
264 229 142 418 258 419 258 1 0 -6 -19 -16 -42z m2162 -153 c111 -55 210
-190 238 -324 16 -78 7 -196 -19 -247 -43 -83 -114 -123 -202 -111 l-39 5 -82
-124 c-48 -74 -88 -124 -98 -124 -73 0 -147 62 -175 146 -21 65 -36 171 -36
264 -1 129 -23 130 -84 5 -32 -66 -39 -74 -55 -66 -32 17 -79 78 -86 111 -34
153 158 403 369 481 78 29 193 22 269 -16z m-3711 -88 c89 -50 154 -112 173
-165 31 -90 57 -259 53 -352 -2 -64 0 -90 9 -90 22 0 52 51 64 108 12 59 8
231 -7 266 -6 16 -4 18 10 13 30 -12 347 -55 715 -97 l355 -41 230 11 c569 26
1251 98 1360 144 35 14 36 14 56 -14 11 -15 20 -30 20 -32 0 -3 -33 -39 -74
-81 -79 -81 -126 -161 -126 -213 0 -30 -4 -34 -47 -47 -76 -24 -127 -34 -498
-92 -192 -31 -689 -112 -1104 -181 -414 -69 -757 -124 -763 -122 -5 2 -72 118
-149 258 -120 218 -148 263 -199 312 -67 65 -110 80 -142 52 -38 -35 -38 -47
-6 -145 25 -77 31 -111 32 -189 1 -86 -1 -99 -26 -142 -31 -52 -83 -82 -160
-93 -67 -10 -159 34 -237 113 -101 100 -145 215 -145 377 0 233 112 411 297
471 28 9 76 13 143 11 95 -3 105 -6 166 -40z m173 -747 c81 -140 155 -266 165
-279 17 -24 18 -24 186 -22 573 5 1508 53 1974 102 303 31 459 57 680 114 52
13 95 23 97 22 9 -10 25 -300 25 -472 1 -235 -9 -330 -57 -555 -19 -85 -37
-191 -40 -235 -10 -122 52 -1075 75 -1156 7 -23 6 -35 -1 -40 -29 -17 -311
-44 -639 -59 -298 -15 -1631 -24 -2053 -15 l-347 7 -89 87 c-115 113 -159 189
-220 378 -27 83 -57 167 -67 188 -16 34 -16 53 -6 249 26 474 34 872 22 1138
-6 142 -13 265 -16 273 -4 8 6 20 25 29 85 45 130 185 131 410 0 55 2 97 4 95
2 -2 70 -119 151 -259z m-1469 -239 c23 -10 51 -33 63 -50 l22 -31 -28 0 c-47
0 -95 -18 -125 -47 -46 -44 -32 -54 24 -17 92 62 153 34 165 -77 l5 -54 -58 0
c-33 -1 -68 -6 -79 -13 -17 -10 -12 -11 35 -12 133 0 134 -68 3 -191 -203
-191 -398 -289 -447 -224 -50 67 -72 275 -42 395 58 224 302 394 462 321z m68
-583 c24 -120 26 -151 16 -235 -15 -124 -53 -348 -106 -623 -96 -497 -111
-588 -123 -757 -15 -192 11 -336 72 -401 45 -49 96 -67 186 -67 l84 0 -7 -97
c-13 -200 -61 -356 -183 -595 -46 -91 -83 -175 -81 -187 3 -19 12 -22 106 -28
127 -8 206 -30 244 -68 25 -26 29 -36 26 -77 l-3 -48 -65 -33 c-36 -18 -93
-38 -128 -44 -177 -33 -383 76 -513 270 l-51 77 6 85 c42 582 53 998 45 1725
-6 503 -13 675 -34 832 l-6 41 43 7 c124 20 240 75 364 175 48 38 91 70 96 70
4 0 10 -10 12 -22z m1091 -1328 c72 -195 206 -435 269 -482 22 -17 100 -17
1432 -8 775 5 1439 10 1475 10 l67 0 6 -53 c16 -122 -27 -613 -74 -857 -55
-282 -168 -583 -316 -841 l-44 -76 -113 -7 c-160 -10 -187 -15 -187 -36 0 -55
91 -100 203 -100 56 0 59 -1 54 -22 -3 -13 -9 -57 -13 -98 -4 -41 -12 -78 -18
-82 -6 -4 -48 -8 -94 -8 -75 0 -85 -2 -108 -25 -21 -21 -24 -31 -19 -58 10
-45 22 -52 120 -66 81 -13 86 -15 81 -35 -14 -47 -18 -205 -7 -276 20 -126 99
-268 172 -306 15 -7 49 -14 75 -14 36 0 60 -8 105 -36 142 -86 153 -186 29
-261 -30 -18 -58 -33 -62 -33 -4 0 -8 19 -8 43 0 91 -77 154 -232 191 -40 9
-35 2 19 -30 95 -55 182 -156 152 -175 -30 -18 -136 -31 -176 -20 -44 12 -59
26 -94 89 -13 24 -37 52 -55 62 -37 24 -69 27 -36 4 28 -19 52 -65 52 -99 0
-24 -3 -25 -52 -25 -29 0 -71 9 -93 19 -53 24 -133 113 -172 192 -41 83 -50
114 -187 624 -71 262 -129 455 -148 495 -44 91 -166 211 -273 267 -169 88
-307 104 -458 53 -113 -38 -134 -50 -183 -102 -82 -85 -120 -200 -131 -398 -3
-58 0 -265 7 -460 7 -195 12 -365 12 -376 -3 -45 -54 -184 -78 -214 -19 -22
-34 -30 -59 -30 -32 0 -34 2 -46 52 -7 29 -13 74 -13 100 -1 27 -2 48 -4 48
-2 0 -14 -26 -28 -57 -50 -113 -76 -159 -112 -196 -60 -62 -87 -46 -117 73
-23 88 -15 158 24 221 17 27 26 49 20 49 -5 0 -22 -20 -38 -45 -24 -38 -44
-92 -86 -231 -5 -16 -37 -22 -62 -13 -47 17 -50 117 -8 256 21 68 19 71 -16
27 -44 -56 -59 -88 -59 -129 0 -35 -6 -41 -26 -27 -32 22 -20 122 30 245 27
66 35 101 40 182 4 55 16 159 28 232 l21 132 66 6 c87 9 123 21 151 50 13 14
19 25 14 25 -26 0 -249 32 -254 36 -5 5 -50 187 -47 191 1 0 64 10 140 21 107
16 142 25 153 39 39 51 6 63 -178 64 -84 0 -160 3 -170 7 -9 4 -75 79 -147
167 -138 168 -149 187 -197 355 -37 127 -54 240 -54 360 0 151 14 213 56 245
45 34 82 115 95 209 13 100 2 231 -47 541 -40 252 -49 413 -25 478 7 22 17 35
21 30 4 -4 20 -42 35 -83z m-1385 -1933 c97 -46 186 -61 317 -54 122 8 120 13
28 -113 -109 -148 -120 -200 -80 -370 41 -171 88 -300 151 -419 32 -58 69
-134 83 -169 l26 -64 60 -1 c111 -3 187 -69 204 -175 4 -28 6 -52 4 -52 -2 0
-16 13 -29 30 -33 39 -143 92 -203 98 -72 7 -74 -13 -5 -44 82 -36 139 -78
154 -114 11 -28 11 -34 -6 -57 -46 -61 -46 -61 -218 26 -86 44 -154 75 -150
70 10 -16 146 -109 160 -109 23 0 26 -19 7 -44 -17 -24 -22 -25 -93 -20 -109
8 -117 10 -168 58 -26 24 -65 53 -88 64 -55 28 -151 133 -214 234 -68 111
-186 352 -251 516 l-52 133 32 147 c25 115 91 562 91 618 0 6 37 -26 83 -71
62 -63 100 -91 157 -118z m-737 -734 c-25 -90 8 -291 82 -488 30 -81 45 -108
80 -140 49 -47 82 -105 91 -167 l7 -43 -96 93 c-53 50 -101 92 -108 92 -6 0 8
-19 31 -42 52 -52 93 -112 125 -180 40 -86 31 -128 -29 -128 -76 1 -166 74
-212 174 -27 59 -29 54 -9 -29 17 -70 19 -168 5 -196 -17 -31 -54 -23 -91 18
-18 21 -61 96 -96 168 -36 71 -62 119 -59 105 3 -14 8 -56 12 -94 l7 -69 -39
7 c-110 19 -144 49 -144 125 0 25 4 52 9 60 5 8 0 28 -15 55 -12 22 -30 69
-38 102 -35 135 -67 571 -44 579 7 2 117 8 243 13 127 5 245 10 263 10 31 2
32 1 25 -25z"/>
<path d="M5300 10870 c-26 -48 -38 -266 -20 -373 12 -75 30 -111 57 -115 l22
-3 -19 44 c-45 101 -47 289 -5 353 l16 25 52 -47 c65 -59 112 -82 134 -68 9 6
18 15 20 20 4 11 -220 184 -237 184 -5 0 -14 -9 -20 -20z"/>
<path d="M8603 10840 c-85 -30 -162 -79 -237 -151 -63 -59 -146 -159 -132
-159 3 0 46 29 96 65 160 113 200 126 326 110 60 -7 61 -7 83 24 12 17 25 46
28 65 10 63 -61 84 -164 46z"/>
<path d="M6005 9556 c-67 -22 -140 -63 -179 -99 l-36 -34 14 -41 c19 -54 42
-96 59 -111 8 -6 27 -36 41 -66 32 -65 90 -118 165 -154 69 -32 187 -37 218
-9 38 34 130 67 231 82 56 8 107 18 112 21 6 3 10 20 10 36 0 75 -194 290
-315 350 -64 31 -77 34 -175 36 -66 1 -120 -3 -145 -11z m-27 -114 c10 -7 7
-21 -13 -63 -33 -71 -33 -128 0 -167 34 -41 101 -71 188 -87 62 -11 68 -13 44
-20 -16 -4 -51 -5 -78 -2 -148 18 -276 240 -188 328 21 21 28 23 47 11z m256
-44 c30 -43 19 -101 -24 -123 l-28 -14 -6 43 c-6 39 -1 87 11 109 8 14 32 7
47 -15z m229 -86 c9 -10 19 -32 22 -48 5 -27 2 -30 -42 -50 l-48 -20 2 57 c0
32 4 63 8 69 10 16 40 12 58 -8z"/>
<path d="M7688 9521 c-31 -10 -72 -28 -92 -40 -40 -25 -191 -181 -256 -266
l-43 -56 20 -21 c27 -26 60 -19 107 22 18 17 37 30 41 30 4 0 30 -20 58 -43
122 -103 246 -167 323 -169 48 -1 49 0 129 84 93 97 144 185 152 261 l5 53
-58 54 c-82 74 -149 103 -249 107 -58 2 -95 -2 -137 -16z m136 -157 c0 -38 -6
-80 -14 -94 l-13 -25 -13 30 c-18 41 -17 100 2 136 25 48 39 31 38 -47z m-209
-103 c-13 -62 41 -133 129 -166 92 -35 159 10 203 137 l22 63 0 -63 c1 -57 -3
-70 -34 -117 -45 -68 -77 -82 -148 -66 -29 6 -79 26 -112 45 -92 51 -128 119
-89 174 22 31 37 28 29 -7z"/>
<path d="M6860 9129 c-111 -50 -104 -113 25 -234 82 -76 89 -101 41 -148 -62
-62 -222 -108 -386 -111 -52 0 -108 3 -123 7 -19 5 -26 4 -22 -2 12 -21 136
-50 237 -57 95 -6 108 -10 166 -44 154 -93 286 -90 393 10 40 37 40 37 148 43
174 10 301 42 301 74 0 17 -6 16 -190 -6 -166 -21 -203 -19 -299 18 -82 31
-87 38 -85 126 l1 75 77 80 c88 91 94 114 36 142 -101 49 -244 62 -320 27z
m61 -88 c28 -29 39 -61 20 -61 -11 0 -71 70 -71 82 0 16 23 7 51 -21z m148 -4
c11 -27 0 -99 -15 -104 -11 -4 -24 48 -24 100 0 34 27 37 39 4z m1 -392 l75
-38 -47 -42 c-26 -23 -60 -45 -75 -48 -44 -9 -101 13 -150 58 l-45 40 68 47
c58 38 71 44 84 33 8 -7 49 -30 90 -50z"/>
<path d="M1036 8667 c-16 -12 -16 -14 1 -28 10 -9 47 -33 83 -55 86 -51 147
-113 155 -156 3 -18 9 -93 13 -167 l7 -133 51 206 52 207 -112 53 c-153 74
-222 94 -250 73z"/>
<path d="M5596 5959 c-16 -57 -18 -292 -6 -670 19 -580 18 -1066 -3 -1198 -9
-57 -24 -117 -32 -134 -20 -40 -19 -44 5 -22 41 37 72 209 90 490 26 416 0
1431 -39 1538 -7 20 -8 20 -15 -4z"/>
<path d="M8346 5965 c3 -11 9 -53 12 -94 10 -147 -37 -313 -163 -566 -137
-279 -311 -522 -524 -736 -211 -211 -416 -338 -594 -368 l-52 -9 56 -1 c109
-2 286 62 417 151 129 87 277 231 399 388 199 256 385 633 453 920 29 122 32
261 6 305 -9 17 -14 21 -10 10z"/>
<path d="M7372 3118 c-23 -37 -42 -101 -42 -138 0 -36 19 -100 30 -100 14 0
61 159 63 214 3 63 -20 74 -51 24z"/>
<path d="M5336 3088 c-3 -18 -9 -108 -12 -199 -7 -174 1 -246 33 -281 15 -17
69 -26 60 -10 -3 4 -12 81 -21 172 -34 345 -45 400 -60 318z"/>
<path d="M6016 3079 c-3 -17 -6 -57 -5 -88 l1 -56 13 31 c18 41 24 136 9 141
-6 2 -14 -10 -18 -28z"/>
<path d="M7482 2966 c-29 -34 -72 -130 -72 -163 0 -9 -12 -30 -27 -45 -23 -24
-25 -32 -17 -55 16 -46 39 -40 78 19 39 60 71 149 82 226 8 62 -2 66 -44 18z"/>
<path d="M5781 2739 c-29 -48 -27 -100 5 -138 14 -17 31 -31 36 -31 13 0 3
179 -11 193 -6 6 -18 -3 -30 -24z"/>
<path d="M5556 2738 c-4 -13 -9 -59 -12 -103 -6 -85 11 -186 42 -248 21 -40
64 -87 81 -87 16 0 17 -1 -6 46 -21 44 -41 133 -66 302 -17 111 -27 133 -39
90z"/>
<path d="M7510 2658 c-30 -46 -72 -96 -92 -111 -60 -43 -124 -144 -105 -164
13 -12 55 9 114 57 96 80 149 177 141 263 l-3 39 -55 -84z"/>
<path d="M3202 8453 c-73 -72 -64 -304 20 -543 88 -248 214 -390 345 -390 44
0 68 14 136 79 87 82 123 186 115 325 -10 153 -75 292 -194 412 -99 100 -176
136 -301 142 -91 4 -93 4 -121 -25z m251 -62 c88 -43 174 -153 193 -246 l6
-30 -79 -13 c-140 -22 -232 -88 -249 -179 -4 -19 -10 -31 -14 -26 -5 4 -24 55
-44 113 -37 109 -60 233 -51 276 3 13 7 35 10 48 3 14 17 39 32 56 25 31 29
32 87 28 36 -2 80 -13 109 -27z m268 -403 c17 -66 6 -146 -27 -177 l-26 -26
12 24 c18 36 6 124 -25 176 l-26 45 40 0 c39 0 41 -1 52 -42z m-182 -83 c24
-52 27 -107 7 -125 -13 -10 -17 -3 -30 42 -27 94 -30 128 -13 128 8 0 24 -20
36 -45z m161 -179 c0 -56 -112 -136 -190 -136 -29 0 -41 8 -69 42 -32 37 -33
41 -12 35 31 -8 119 17 189 52 70 37 82 38 82 7z"/>
<path d="M2142 8179 c-80 -40 -150 -147 -189 -289 -26 -93 -25 -366 1 -465 41
-157 128 -290 219 -336 87 -45 221 -33 274 24 145 152 136 570 -19 869 -89
172 -193 243 -286 197z m124 -70 c51 -24 85 -67 125 -155 32 -71 69 -210 69
-263 l0 -34 -22 28 c-12 15 -35 33 -52 40 -82 34 -238 25 -328 -19 -56 -27
-55 -33 -33 102 17 106 57 235 83 270 15 20 78 50 106 52 5 0 29 -9 52 -21z
m-201 -537 c0 -52 6 -79 26 -120 14 -28 22 -52 18 -52 -12 0 -89 99 -89 113 1
40 31 127 44 127 0 0 1 -30 1 -68z m346 5 c12 -22 21 -60 21 -89 1 -42 -3 -54
-21 -69 -35 -28 -43 -23 -21 14 27 43 25 103 -4 160 -14 28 -17 42 -9 35 8 -6
23 -29 34 -51z m-122 25 c20 -37 17 -114 -5 -136 -25 -26 -31 -19 -38 42 -10
84 17 143 43 94z m191 -277 c0 -88 -48 -150 -135 -174 -88 -24 -153 -6 -216
59 -47 48 -106 137 -97 146 3 2 38 -3 79 -11 113 -25 253 -23 309 3 25 11 48
21 53 21 4 1 7 -19 7 -44z"/>
</g>
</svg>
