<?xml version="1.0" standalone="no"?>
<!DOCTYPE svg PUBLIC "-//W3C//DTD SVG 20010904//EN"
 "http://www.w3.org/TR/2001/REC-SVG-20010904/DTD/svg10.dtd">
<svg version="1.0" xmlns="http://www.w3.org/2000/svg"
 width="1137.000000pt" height="1280.000000pt" viewBox="0 0 1137.000000 1280.000000"
 preserveAspectRatio="xMidYMid meet">
<metadata>
Created by potrace 1.15, written by Peter Selinger 2001-2017
</metadata>
<g transform="translate(0.000000,1280.000000) scale(0.100000,-0.100000)"
fill="#000000" stroke="none">
<path d="M7538 12793 c-10 -2 -18 -8 -18 -12 0 -14 79 -81 215 -185 147 -112
205 -164 205 -183 0 -8 -9 -27 -21 -42 -25 -35 -19 -64 19 -88 66 -41 66 -41
17 -95 -51 -57 -64 -102 -42 -145 9 -16 23 -57 32 -92 16 -62 66 -170 94 -204
13 -16 12 -20 -21 -47 -24 -20 -52 -63 -82 -124 -25 -51 -46 -96 -46 -100 0
-4 -22 -55 -49 -114 -54 -118 -84 -208 -107 -321 -8 -40 -27 -104 -41 -143
-28 -76 -58 -106 -170 -171 -249 -144 -670 -542 -756 -714 l-21 -43 25 -26
c36 -40 137 -103 176 -110 53 -10 39 -35 -30 -52 -65 -16 -74 -39 -22 -54 42
-13 169 -2 233 18 45 15 61 16 98 6 57 -16 73 -15 108 3 38 20 97 29 141 21
l35 -7 0 -61 c0 -44 -6 -70 -21 -95 -17 -27 -19 -36 -9 -48 7 -8 18 -15 25
-15 34 0 34 -26 -1 -103 -20 -43 -33 -84 -30 -92 2 -7 17 -15 33 -17 56 -6 43
-50 -59 -201 -70 -104 -94 -155 -79 -170 15 -15 27 -2 111 120 83 119 168 209
184 193 6 -6 3 -18 -11 -32 -11 -13 -23 -35 -27 -50 -3 -15 -17 -44 -31 -64
-14 -20 -25 -44 -25 -53 0 -9 -11 -33 -25 -53 -30 -45 -31 -67 -5 -110 24 -40
27 -108 5 -108 -14 0 -20 14 -27 65 -5 33 -34 30 -47 -6 -9 -27 -8 -39 9 -74
23 -48 25 -78 6 -94 -8 -6 -19 -32 -25 -56 -8 -32 -28 -63 -73 -111 -61 -65
-136 -124 -158 -124 -6 0 -24 -10 -40 -21 l-28 -22 -34 21 c-18 12 -107 96
-198 187 l-165 165 -74 0 c-67 0 -75 2 -98 28 -14 15 -65 104 -115 197 -102
192 -198 342 -255 397 -30 29 -57 43 -118 60 -71 20 -101 22 -260 21 -128 -1
-216 -7 -300 -21 -66 -11 -156 -23 -199 -27 -93 -7 -165 -37 -215 -89 -64 -66
-35 -76 227 -76 l172 0 55 -45 c30 -24 74 -49 97 -55 72 -19 107 -41 180 -112
91 -89 108 -129 115 -268 6 -115 -2 -145 -35 -133 -9 4 -62 39 -117 78 -210
152 -303 202 -470 258 -165 54 -297 83 -520 113 -200 26 -262 45 -289 86 -9
14 -28 84 -42 157 -13 72 -29 144 -35 159 -6 14 -16 59 -24 100 -14 70 -50
152 -67 152 -20 0 -97 84 -195 214 -181 237 -205 253 -443 286 -74 10 -147 23
-161 29 -14 5 -77 17 -140 26 -63 9 -183 30 -267 47 -96 19 -165 28 -186 24
-42 -8 -65 -31 -180 -179 -214 -276 -259 -332 -404 -512 l-153 -190 6 -105 c4
-58 2 -170 -4 -250 -20 -260 -24 -383 -12 -413 14 -36 41 -47 55 -22 6 10 31
48 54 84 24 36 51 80 59 96 8 17 28 44 43 60 38 41 263 365 310 445 21 36 45
90 53 120 11 38 28 67 54 92 40 39 167 103 188 94 7 -2 16 -17 19 -32 4 -16
41 -101 82 -191 41 -90 81 -180 89 -200 33 -84 83 -274 78 -295 -10 -41 -53
-76 -104 -87 -27 -6 -117 -42 -201 -80 -84 -38 -187 -79 -228 -91 -41 -12 -79
-26 -85 -30 -5 -5 -36 -15 -68 -23 -74 -20 -146 -63 -235 -143 -39 -34 -85
-70 -101 -80 -17 -10 -31 -22 -31 -26 0 -5 -16 -18 -35 -29 -19 -11 -37 -29
-40 -39 -3 -10 -20 -22 -37 -26 -73 -15 -188 -176 -223 -310 -19 -73 -19 -111
0 -148 8 -16 23 -54 32 -85 8 -31 38 -102 64 -158 40 -82 59 -111 105 -151
l57 -51 -35 -48 c-19 -26 -53 -79 -76 -118 -38 -65 -47 -93 -103 -315 -6 -25
-22 -76 -35 -115 -49 -147 -86 -314 -79 -358 11 -67 48 -138 104 -200 61 -66
216 -173 264 -182 22 -4 62 3 128 24 190 61 190 51 9 -189 -155 -205 -253
-344 -280 -395 -15 -27 -34 -63 -43 -80 -25 -48 -74 -168 -81 -197 -11 -50
-75 -178 -91 -184 -25 -10 -53 24 -64 77 -15 69 -33 108 -82 181 -50 73 -163
194 -199 213 -28 14 -50 10 -50 -10 0 -7 -36 -56 -80 -109 -185 -224 -302
-393 -411 -596 -44 -80 -88 -172 -100 -204 -11 -33 -31 -81 -45 -107 -31 -62
-31 -109 -1 -137 44 -41 122 -52 383 -52 140 0 254 -4 269 -10 27 -10 27 -10
9 -38 -29 -43 -193 -325 -268 -460 -81 -144 -82 -139 41 -197 62 -29 77 -41
89 -71 17 -42 12 -74 -18 -117 -22 -31 -158 -300 -158 -313 0 -4 -6 -15 -14
-23 -14 -15 -40 -79 -88 -211 -11 -30 -23 -59 -28 -65 -13 -17 -62 -197 -70
-255 -4 -30 -19 -79 -34 -107 -14 -29 -26 -58 -26 -65 0 -24 -91 -146 -148
-199 -73 -68 -227 -179 -340 -245 -197 -116 -259 -154 -288 -178 -44 -36 -104
-154 -104 -203 0 -65 27 -78 205 -101 43 -5 60 -11 60 -22 0 -19 -173 -151
-252 -193 l-63 -32 0 -91 0 -91 42 -29 41 -29 211 2 c152 1 229 6 276 17 36 9
99 23 140 30 42 8 96 26 120 40 93 53 167 19 157 -71 -6 -55 -21 -73 -63 -73
-43 0 -193 -61 -249 -101 -76 -54 -135 -142 -135 -199 0 -85 179 -143 445
-144 171 0 235 15 282 69 36 40 51 43 84 16 33 -27 22 -43 -92 -121 -101 -70
-119 -98 -77 -121 15 -9 76 -15 174 -17 194 -5 251 8 289 68 29 47 55 51 112
20 21 -11 46 -20 57 -20 10 0 33 -9 50 -19 17 -11 74 -34 126 -51 52 -18 118
-44 145 -60 28 -15 65 -31 84 -35 18 -4 52 -15 75 -25 23 -11 64 -24 91 -30
28 -5 70 -19 95 -29 72 -30 149 -51 191 -51 21 0 60 -8 86 -17 41 -15 83 -18
273 -18 130 1 252 6 290 13 76 14 153 51 181 86 11 13 36 30 57 37 50 18 207
17 257 -1 22 -8 76 -14 120 -14 104 0 203 32 300 95 40 26 82 52 93 58 45 24
146 42 309 56 145 12 180 18 226 39 30 14 58 26 64 26 5 0 18 9 28 20 10 11
23 20 29 20 6 0 33 16 60 35 27 19 55 35 62 35 6 0 38 19 70 43 33 23 77 54
99 68 22 14 60 43 83 63 49 40 83 45 150 22 66 -23 182 -36 407 -46 165 -6
218 -12 250 -26 35 -15 89 -19 420 -25 209 -5 449 -13 534 -19 109 -8 188 -8
270 0 64 5 303 12 531 14 228 2 424 7 435 11 11 4 55 23 98 43 l77 35 73 -12
c39 -6 99 -21 132 -32 155 -53 200 -48 323 39 97 68 83 84 -90 96 -89 7 -130
18 -117 31 3 3 65 10 138 15 73 6 148 17 167 25 18 7 68 19 109 24 158 22 226
99 125 141 -36 15 -44 34 -22 53 15 13 100 44 225 84 53 16 76 48 80 109 3 50
-22 66 -60 38 -35 -26 -68 -34 -104 -27 -39 7 -39 40 -1 49 15 4 96 43 179 86
170 89 207 122 261 231 64 130 28 171 -91 107 -90 -48 -104 -39 -68 41 11 24
17 47 15 51 -9 15 -67 8 -201 -24 -73 -17 -135 -29 -138 -26 -9 8 40 99 89
165 39 54 56 67 162 122 209 110 285 175 328 283 32 80 83 155 114 171 15 7
69 37 119 65 102 57 364 181 428 203 132 45 254 187 367 427 92 197 169 376
175 407 3 16 13 44 21 60 9 17 28 64 43 105 15 41 34 93 42 115 31 78 15 165
-38 201 -14 11 -39 29 -55 41 -45 37 -103 29 -331 -42 -61 -20 -71 -19 -103 6
-35 28 -55 67 -67 137 -6 31 -21 85 -35 119 -13 34 -24 71 -24 83 0 11 -11 46
-24 78 -13 31 -32 88 -41 125 -36 146 -116 297 -212 406 l-56 62 7 124 c4 68
14 148 22 177 21 72 41 147 49 181 3 16 17 40 30 53 l24 24 72 -38 c67 -35 77
-37 159 -37 72 0 92 3 109 19 12 11 21 25 21 33 0 7 41 80 90 163 107 177 190
343 190 379 0 14 10 46 21 70 11 25 24 65 30 90 5 26 20 75 33 111 14 36 36
107 51 158 26 89 27 102 22 240 -5 154 -36 379 -68 497 -11 39 -26 104 -35
145 -9 41 -38 146 -65 233 -27 87 -49 165 -49 174 0 30 -66 139 -120 198 -31
33 -108 125 -172 205 -149 187 -290 335 -342 362 -22 11 -117 72 -209 134 -92
63 -200 132 -240 155 -40 22 -81 49 -92 60 -12 10 -35 24 -53 30 -18 6 -32 17
-32 25 0 20 30 17 55 -6 l22 -20 34 23 c56 38 51 53 -62 173 -56 60 -125 143
-155 184 -29 42 -62 85 -74 95 -54 49 -112 166 -82 165 4 0 45 -32 92 -72 47
-39 117 -95 155 -123 39 -29 102 -81 140 -117 91 -83 125 -109 136 -102 18 11
8 57 -21 94 -16 21 -30 42 -30 48 0 28 -74 166 -121 223 -82 102 -134 177
-134 195 0 9 7 20 15 24 66 33 133 53 238 70 89 14 156 33 238 65 62 25 117
45 123 45 14 0 22 30 12 48 -5 9 -29 47 -53 84 -23 37 -63 100 -88 139 -49 78
-192 230 -280 296 -30 22 -184 107 -343 187 -281 142 -380 200 -424 248 -25
27 -53 88 -53 117 0 19 -66 159 -166 351 -27 52 -55 111 -63 130 -19 46 -121
150 -147 150 -35 0 -54 32 -60 101 -5 51 -15 81 -54 149 -26 47 -62 126 -80
175 -17 50 -38 100 -46 112 -8 12 -48 45 -89 73 -41 27 -87 66 -102 86 -15 20
-47 60 -71 88 -24 28 -51 60 -61 72 -12 15 -34 23 -76 28 -33 4 -98 16 -145
26 -47 10 -115 24 -151 29 -37 6 -87 20 -110 31 -42 19 -152 26 -201 13z m587
-163 c49 -6 94 -15 99 -20 6 -6 10 -34 11 -64 0 -31 7 -61 15 -71 8 -10 59
-54 113 -98 54 -44 107 -92 116 -108 13 -21 20 -61 24 -144 l6 -116 49 -48
c39 -37 51 -57 57 -92 4 -24 16 -60 25 -80 23 -44 93 -109 119 -109 29 0 111
-78 111 -106 0 -30 -30 -39 -130 -38 -73 1 -88 6 -164 52 -15 9 -54 12 -141 9
-148 -5 -220 -26 -250 -74 -11 -17 -29 -36 -40 -42 -11 -6 -35 -23 -54 -36
-40 -29 -54 -31 -75 -9 -13 13 -15 29 -10 82 7 79 21 103 129 222 90 99 131
157 140 193 15 57 -58 38 -93 -23 -18 -31 -50 -50 -83 -50 -14 0 -26 13 -40
45 -29 66 -34 132 -15 197 20 68 21 169 2 206 -7 15 -17 61 -20 102 -11 106
-28 137 -93 167 -29 13 -55 28 -58 33 -18 29 91 38 250 20z m410 -1120 c30
-19 47 -45 105 -164 59 -124 110 -270 110 -319 0 -20 -37 -32 -54 -18 -17 15
-63 144 -87 246 -11 44 -27 101 -36 128 l-17 47 -60 0 c-157 -1 -177 -20 -216
-206 -16 -76 -37 -168 -47 -204 l-18 -65 -44 -3 -43 -3 7 113 c4 62 13 145 20
183 8 39 17 93 21 120 12 87 50 130 147 161 62 20 166 12 212 -16z m755 -705
c30 -9 98 -24 150 -36 52 -11 113 -28 136 -39 22 -11 51 -20 65 -20 14 0 43
-9 64 -21 22 -11 60 -26 85 -32 28 -8 46 -18 48 -29 5 -25 -30 -31 -79 -13
-24 9 -77 27 -118 40 -40 14 -81 31 -91 40 -9 8 -32 15 -51 15 -19 0 -59 7
-89 16 -30 8 -100 26 -155 38 -128 29 -147 35 -140 47 9 14 115 11 175 -6z
m-547 -57 c13 -7 17 -16 13 -33 -14 -54 47 -110 93 -85 12 6 28 26 36 45 22
55 48 42 59 -30 4 -22 11 -47 17 -55 16 -24 37 14 44 79 3 31 8 67 11 81 l6
25 13 -25 c7 -14 25 -101 40 -195 34 -215 63 -339 115 -490 143 -417 186 -812
105 -968 -40 -78 -38 -80 69 -90 60 -6 100 -34 104 -73 4 -41 -37 -118 -66
-122 -31 -5 -157 66 -198 111 -35 38 -35 38 -28 110 6 65 3 84 -26 172 -42
132 -42 165 -2 244 38 75 32 101 -23 101 -28 0 -37 -6 -56 -37 -34 -58 -45
-63 -133 -63 -65 0 -88 -4 -116 -21 -19 -12 -53 -27 -77 -34 -24 -7 -77 -34
-117 -59 -41 -25 -77 -46 -81 -46 -5 0 -24 -12 -44 -27 -32 -25 -44 -28 -116
-28 -97 0 -159 27 -214 94 -68 82 -89 101 -114 101 -31 0 -51 -23 -42 -49 10
-31 220 -228 272 -255 26 -13 59 -36 73 -51 l25 -27 -23 -15 c-26 -18 -200
-99 -256 -120 -22 -8 -55 -13 -75 -11 -29 2 -40 10 -62 43 -36 55 -58 115 -69
188 -5 34 -16 96 -25 137 -25 115 -17 461 14 585 40 164 91 309 136 390 25 44
61 113 81 153 19 40 42 76 49 79 8 3 31 -5 51 -17 33 -19 39 -19 52 -6 13 13
8 23 -52 85 -44 45 -67 76 -64 88 3 18 95 75 112 70 5 -2 15 -21 21 -43 10
-36 13 -39 45 -39 l35 0 -3 48 -4 47 47 21 c79 35 295 46 348 17z m-1089 -107
c8 -12 -13 -28 -49 -37 -17 -4 -41 -15 -54 -26 -13 -10 -31 -18 -40 -18 -9 0
-41 -16 -70 -35 -43 -27 -58 -32 -73 -24 -10 5 -16 14 -13 19 9 15 133 80 153
80 11 0 30 8 43 19 39 30 92 41 103 22z m1824 -263 c7 -7 12 -19 12 -29 0 -9
9 -28 20 -41 10 -14 51 -88 90 -164 39 -76 77 -146 85 -154 17 -19 19 -30 5
-30 -23 0 -79 64 -118 138 -23 44 -49 85 -57 92 -8 7 -17 28 -21 49 -4 20 -15
52 -25 71 -30 55 -23 100 9 68z m-6325 -177 c52 -11 150 -27 218 -36 68 -9
158 -25 199 -35 41 -10 88 -20 105 -22 44 -5 44 -33 -2 -80 -21 -22 -58 -54
-83 -71 -69 -48 -190 -149 -190 -159 0 -20 32 -19 55 2 13 12 56 33 95 46 90
31 254 113 304 153 88 71 114 55 290 -172 l68 -87 -68 -30 c-37 -17 -87 -35
-112 -41 -24 -5 -105 -38 -179 -72 -137 -63 -149 -71 -412 -285 -36 -28 -73
-52 -82 -52 -33 0 -128 142 -174 260 -21 54 -73 135 -130 206 -23 28 -26 43
-34 170 -9 138 -16 174 -31 174 -15 0 -20 -16 -35 -113 -20 -138 -32 -174 -71
-217 -20 -22 -73 -58 -123 -84 -111 -57 -121 -69 -92 -99 46 -50 11 -188 -74
-292 -49 -61 -164 -240 -186 -292 -34 -80 -43 -46 -47 181 l-4 203 83 124
c132 198 378 558 431 631 51 69 108 108 159 108 15 0 69 -9 122 -19z m6471
-890 c81 -78 151 -160 143 -167 -3 -3 -14 3 -25 13 -11 10 -39 32 -62 48 -55
39 -170 161 -170 181 0 23 35 0 114 -75z m-3571 44 c42 -19 63 -46 137 -170
30 -49 79 -115 110 -145 32 -30 82 -94 114 -142 51 -78 56 -91 56 -142 0 -64
-14 -100 -47 -121 -27 -18 -30 -40 -5 -50 9 -4 89 -10 177 -15 144 -6 168 -10
245 -38 72 -26 93 -40 136 -85 l50 -54 -4 -64 c-9 -131 -66 -243 -187 -365
-93 -93 -161 -131 -261 -144 -38 -6 -108 -19 -156 -31 -83 -20 -89 -20 -137
-4 -63 21 -107 53 -92 68 15 15 14 48 -5 93 -22 52 -12 101 41 214 25 52 45
107 45 121 0 34 -37 88 -115 169 -34 36 -65 74 -68 85 -30 103 -36 300 -11
386 9 30 29 75 45 100 39 61 38 100 -2 134 -28 23 -34 24 -53 12 -11 -8 -38
-39 -59 -70 -21 -32 -45 -57 -53 -57 -17 0 -40 23 -134 127 -45 50 -62 63 -95
68 -133 20 -267 67 -249 85 6 6 43 17 83 25 177 37 426 42 494 10z m2932 -40
c0 -11 -7 -21 -16 -23 -18 -3 -33 23 -23 39 10 17 39 5 39 -16z m-171 -81 c26
-10 18 -31 -18 -48 -44 -21 -90 -20 -111 0 -20 20 -9 33 37 44 43 10 72 12 92
4z m230 -50 c9 -24 7 -87 -4 -104 -9 -13 -13 -12 -30 9 -33 39 -37 72 -10 93
27 22 36 23 44 2z m-381 -174 c10 -50 0 -239 -13 -261 -8 -12 -12 -11 -26 3
-12 11 -18 42 -23 106 -3 50 -9 94 -13 98 -10 9 -28 -40 -28 -76 0 -54 -50
-78 -85 -40 -15 16 -17 32 -13 98 6 97 11 107 43 86 23 -15 27 -15 67 10 61
36 80 31 91 -24z m226 -4 c11 -23 11 -37 2 -67 -13 -42 -25 -49 -39 -21 -13
24 -24 101 -16 113 11 18 38 5 53 -25z m-1270 -10 c13 -16 -1 -56 -19 -56 -17
0 -29 34 -19 52 12 22 23 23 38 4z m-2814 -65 c33 -6 118 -17 189 -25 117 -14
160 -26 144 -41 -3 -3 -190 -11 -414 -16 -424 -10 -529 -17 -529 -34 0 -16 72
-24 227 -24 l147 -1 35 -30 c51 -46 79 -110 71 -162 -9 -55 -29 -95 -68 -135
-35 -37 -73 -43 -113 -17 -28 19 -39 12 -47 -26 -8 -40 4 -57 63 -87 35 -18
66 -43 85 -70 38 -53 65 -57 65 -9 0 26 -10 46 -40 81 -22 26 -38 50 -35 55 3
4 17 11 31 14 14 4 39 17 55 29 29 21 30 21 64 3 69 -38 120 -132 158 -291 23
-98 26 -137 31 -360 6 -284 19 -392 72 -580 34 -121 37 -142 41 -307 6 -195 0
-256 -21 -239 -8 6 -15 41 -18 79 -3 43 -13 83 -28 112 -21 40 -24 65 -32 235
-6 152 -12 199 -27 235 -11 25 -22 66 -26 92 -9 61 -25 83 -53 74 -27 -9 -51
-53 -68 -126 -15 -64 -100 -268 -149 -356 -59 -106 -118 -178 -168 -204 -45
-24 -46 -24 -82 -7 -21 10 -56 20 -79 24 -35 5 -46 12 -76 55 -57 81 -65 87
-104 72 -41 -16 8 -80 94 -124 22 -11 40 -25 40 -30 0 -5 20 -23 45 -40 49
-34 57 -59 28 -99 -14 -21 -15 -30 -3 -74 12 -48 11 -52 -8 -68 -12 -9 -51
-22 -87 -29 -117 -22 -246 18 -345 107 -114 103 -297 429 -346 619 -22 87 -25
113 -21 214 4 102 9 127 45 228 22 63 43 116 45 118 2 3 17 -1 32 -8 24 -11
28 -10 38 7 17 31 81 85 100 85 29 0 91 -72 152 -176 91 -155 160 -212 288
-235 75 -14 181 -1 252 30 54 24 175 129 225 194 21 29 50 66 65 83 36 45 34
93 -6 139 -54 61 -60 54 -79 -90 -6 -43 -18 -91 -28 -105 -9 -14 -19 -36 -22
-49 -21 -100 -140 -7 -253 197 -71 129 -67 126 -201 132 -139 6 -148 12 -144
89 l3 56 58 30 c32 16 63 38 69 48 26 48 -36 65 -76 22 -31 -33 -37 -32 -61
12 -11 20 -24 36 -30 35 -5 0 -17 -28 -26 -61 -29 -111 -129 -244 -209 -280
-22 -10 -49 -30 -60 -44 -26 -33 -44 -25 -36 14 7 34 196 519 209 537 16 21
36 14 94 -33 59 -49 97 -64 121 -48 26 16 25 31 -8 65 -41 42 -50 66 -50 136
0 76 14 121 56 181 43 64 41 65 -109 58 -105 -4 -174 -17 -387 -69 -47 -11
-107 -25 -135 -30 -27 -5 -86 -20 -130 -34 -44 -13 -120 -36 -170 -50 -49 -14
-121 -38 -160 -54 -38 -15 -95 -36 -125 -45 -82 -25 -324 -136 -512 -233 -120
-63 -170 -84 -178 -76 -6 6 -8 17 -5 25 12 27 103 93 193 139 50 25 96 51 104
57 25 21 240 124 326 158 48 18 121 40 162 49 42 8 92 22 111 30 19 8 72 21
117 30 46 9 91 20 100 25 9 5 55 16 102 25 47 9 96 22 110 27 14 6 72 21 130
34 58 13 134 30 170 38 36 9 92 20 125 26 33 5 116 22 185 36 199 43 318 55
495 50 88 -2 187 -9 220 -14z m4895 -48 c102 -55 214 -140 327 -247 116 -110
180 -188 215 -261 l23 -48 -35 -26 c-97 -73 -154 -155 -195 -279 -15 -48 -18
-52 -30 -35 -28 40 -279 441 -304 485 -14 26 -56 85 -93 131 -37 47 -75 101
-84 120 -16 34 -16 38 0 79 10 24 23 57 30 73 25 66 37 66 146 8z m-1420 -7
c0 -17 -10 -25 -51 -36 -28 -8 -30 -8 -18 8 31 41 69 56 69 28z m124 -115 c10
-9 25 -30 32 -47 12 -29 18 -32 74 -37 71 -6 150 -47 150 -77 0 -15 -7 -20
-30 -20 -37 0 -122 33 -181 71 -26 16 -59 29 -78 29 -17 0 -48 7 -67 15 -47
19 -44 53 6 77 37 19 63 16 94 -11z m-297 3 c6 -19 -88 -123 -239 -264 -218
-204 -298 -266 -298 -231 0 13 42 73 127 180 167 210 388 380 410 315z m1151
-14 c28 -12 52 -26 52 -31 0 -5 -13 -15 -30 -24 -26 -13 -34 -14 -62 -2 -38
16 -88 61 -88 78 0 17 64 6 128 -21z m-203 -61 c19 -17 35 -35 35 -40 0 -13
-90 -69 -112 -69 -35 0 -45 67 -16 123 13 26 53 20 93 -14z m-211 -15 c9 -4
21 -15 27 -25 15 -29 -5 -56 -51 -70 -33 -10 -43 -9 -65 5 -32 21 -32 31 4 67
29 28 53 35 85 23z m-631 -36 c26 -31 16 -76 -42 -178 -66 -117 -101 -188
-101 -209 0 -9 -7 -27 -16 -39 -14 -21 -23 -22 -132 -22 -136 0 -192 8 -199
26 -3 8 16 37 42 66 25 29 86 101 136 160 49 58 120 134 157 168 61 55 70 60
102 56 19 -3 43 -15 53 -28z m1243 0 c52 -38 155 -142 197 -198 51 -66 202
-324 219 -371 6 -19 19 -45 29 -59 9 -14 20 -43 24 -65 3 -22 15 -67 25 -100
22 -66 50 -216 43 -227 -2 -5 -18 -8 -34 -8 -37 0 -65 -14 -79 -41 -17 -31 -3
-57 43 -81 79 -39 217 -201 193 -225 -21 -21 -208 135 -233 194 -7 18 -18 33
-24 33 -5 0 -19 -21 -30 -47 -11 -27 -28 -65 -39 -85 -11 -20 -20 -43 -20 -50
0 -8 -9 -32 -20 -53 -12 -22 -30 -70 -41 -107 -23 -76 -41 -97 -64 -78 -8 7
-19 29 -25 49 -20 74 -15 87 70 179 l80 87 0 132 0 131 -56 66 c-59 69 -107
108 -186 150 -56 31 -88 69 -88 106 0 15 -9 56 -20 91 -10 35 -24 96 -30 134
-6 39 -19 97 -30 130 -44 139 -60 197 -60 217 0 32 37 84 73 102 42 20 49 20
83 -6z m-264 -125 c27 -33 65 -108 73 -143 4 -19 20 -58 36 -87 21 -36 31 -71
36 -116 6 -71 -10 -159 -34 -178 -8 -7 -54 -23 -101 -35 -82 -21 -176 -59
-214 -86 -9 -7 -20 -9 -23 -6 -17 17 -25 103 -31 340 l-7 258 45 20 c54 24
143 48 179 49 14 1 33 -7 41 -16z m-730 -9 c76 -22 102 -52 92 -109 -11 -72
-63 -265 -80 -297 -16 -30 -16 -31 -77 -25 -66 7 -221 59 -249 84 -32 29 -32
68 1 127 17 29 31 65 31 80 0 48 47 112 105 144 29 17 110 14 177 -4z m368
-74 c40 -20 40 -20 41 -83 4 -368 20 -1318 25 -1444 7 -176 -3 -267 -36 -313
-44 -61 -33 -115 29 -155 68 -42 81 -89 101 -340 6 -77 22 -187 35 -245 13
-58 26 -125 30 -149 3 -25 15 -61 25 -80 17 -32 39 -87 57 -143 8 -27 -43 -23
-104 7 -79 40 -128 99 -153 186 -44 153 -63 206 -111 311 -27 59 -49 110 -49
114 0 3 -25 45 -55 93 -30 48 -55 90 -55 94 0 4 -25 48 -56 97 l-55 90 10 449
c6 248 16 473 22 500 11 54 29 71 74 71 48 0 175 82 175 113 0 4 16 29 35 54
19 25 35 54 35 65 0 64 -73 145 -198 219 l-77 45 1 76 c1 88 16 155 56 260 47
123 106 155 198 108z m-3720 -142 c17 -35 30 -72 30 -84 0 -12 13 -41 30 -65
33 -49 37 -69 15 -69 -23 0 -52 54 -85 158 -45 137 -40 165 10 60z m-1946 -20
c-23 -38 -160 -188 -171 -188 -22 0 -26 -28 -8 -56 20 -31 12 -44 -13 -21 -27
24 -51 21 -62 -8 -5 -14 -16 -25 -24 -25 -7 0 -21 -11 -30 -25 -9 -13 -56 -66
-104 -117 -48 -51 -97 -107 -108 -125 -10 -17 -43 -60 -72 -95 -96 -114 -250
-330 -294 -410 -24 -44 -53 -91 -65 -105 -13 -14 -23 -34 -23 -45 0 -10 -10
-29 -23 -42 -28 -28 -72 -117 -85 -171 -6 -22 -19 -62 -31 -90 -11 -27 -26
-70 -32 -94 -12 -51 -27 -45 -38 16 -8 43 2 93 22 108 18 13 179 353 202 425
45 141 112 233 342 471 81 85 187 195 235 246 122 130 365 363 378 363 6 0 8
-5 4 -12z m4551 -158 c289 -46 361 -61 505 -106 63 -20 131 -40 150 -46 19 -6
104 -43 187 -84 165 -79 168 -82 161 -159 -3 -33 -11 -45 -55 -79 -28 -23 -73
-54 -100 -71 l-48 -30 -445 -6 c-407 -6 -451 -8 -520 -27 -41 -11 -88 -25
-104 -32 -30 -11 -649 -309 -696 -334 -126 -68 -548 -334 -635 -401 -113 -86
-195 -135 -225 -135 -10 0 -28 -8 -41 -19 -23 -17 -198 -97 -284 -128 -82 -30
-171 -7 -199 51 -29 62 7 118 85 135 27 6 73 23 101 37 28 14 73 32 99 40 57
17 103 66 120 126 8 29 9 85 5 169 l-7 127 72 65 c39 37 92 80 119 96 l48 30
19 -21 c65 -72 290 -114 576 -106 137 3 169 7 208 25 26 11 66 24 90 28 24 4
55 16 68 26 13 11 31 19 40 19 16 0 28 7 126 74 64 44 162 149 299 320 119
148 136 182 136 267 0 72 -14 100 -61 124 -16 9 -27 20 -24 25 7 12 159 12
230 0z m-1640 -70 c-4 -17 -11 -28 -16 -24 -11 6 -12 67 -2 78 13 12 25 -24
18 -54z m-3115 -95 c0 -19 -36 -39 -45 -25 -8 13 13 40 31 40 8 0 14 -7 14
-15z m1050 -42 c35 -29 56 -31 156 -18 55 7 64 5 82 -13 27 -27 37 -68 26
-101 -16 -45 -28 -43 -204 43 -102 50 -130 71 -130 97 0 28 33 24 70 -8z
m-845 -23 c-3 -6 -13 -10 -21 -10 -8 0 -14 -7 -14 -15 0 -8 -16 -32 -35 -54
-19 -21 -35 -43 -35 -48 0 -6 -9 -18 -20 -28 -11 -10 -20 -22 -20 -27 0 -10
-47 -67 -131 -161 -26 -29 -50 -62 -53 -75 -9 -27 -72 -72 -103 -72 -15 0 -28
-10 -39 -32 -9 -18 -27 -46 -39 -63 -37 -51 -162 -284 -238 -446 -40 -85 -80
-165 -89 -179 -9 -14 -19 -45 -23 -70 -4 -25 -16 -64 -26 -87 -11 -23 -26 -76
-34 -118 -16 -83 -22 -98 -36 -90 -18 12 -10 114 15 173 13 31 26 77 30 102 4
24 15 58 26 75 10 16 22 54 26 84 4 33 16 63 30 81 13 15 24 34 24 41 0 8 9
28 20 44 11 17 25 48 31 69 6 22 22 54 35 71 13 18 24 41 24 52 0 11 15 40 34
64 19 24 48 71 65 105 16 33 37 66 45 74 9 7 16 18 16 24 0 19 374 515 401
532 5 3 13 3 18 -1 6 -3 -11 -34 -37 -69 -43 -58 -66 -92 -100 -153 -7 -13
-22 -29 -33 -36 -20 -13 -25 -32 -10 -42 13 -7 78 50 86 76 7 21 169 229 189
241 13 8 30 -18 21 -32z m-265 9 c0 -12 -126 -186 -201 -279 -26 -31 -56 -74
-66 -96 -11 -21 -39 -69 -61 -106 -23 -37 -84 -148 -136 -247 -52 -98 -102
-191 -111 -205 -9 -14 -21 -45 -27 -68 -5 -24 -17 -52 -27 -63 -10 -11 -24
-38 -31 -59 -7 -22 -32 -83 -55 -135 -23 -53 -54 -133 -69 -178 -31 -94 -55
-129 -79 -120 -33 12 -22 58 53 232 59 139 87 204 115 280 78 204 203 472 241
518 13 16 24 34 24 42 0 7 7 15 14 18 8 3 23 21 32 39 9 18 41 61 71 96 29 35
53 67 53 71 0 4 11 13 25 19 14 7 25 20 25 31 0 10 7 24 15 31 9 7 23 28 31
46 9 19 22 34 30 34 7 0 20 12 29 28 17 27 81 82 97 82 4 0 8 -5 8 -11z m7492
-17 c44 -28 78 -89 78 -142 0 -35 -7 -50 -40 -87 -43 -50 -48 -64 -26 -83 12
-9 30 -8 85 3 38 8 75 11 81 7 8 -5 14 -44 17 -97 l6 -90 -54 -21 c-94 -38
-162 -54 -231 -56 -63 -1 -69 1 -102 33 -43 42 -86 136 -93 206 -4 41 -1 63
15 97 11 23 23 72 27 108 8 75 26 123 52 139 29 18 145 7 185 -17z m-4366 -8
c8 -33 -3 -133 -21 -184 -8 -22 -18 -71 -24 -110 -11 -84 -45 -142 -126 -219
-116 -110 -227 -121 -251 -24 -4 16 -18 53 -32 83 -13 30 -30 75 -37 100 -7
25 -27 84 -45 132 -40 106 -36 132 18 147 20 6 80 11 132 11 142 1 216 14 290
54 80 42 88 43 96 10z m3398 -44 c97 -33 155 -70 182 -116 39 -66 57 -274 24
-274 -11 0 -18 11 -81 123 -24 43 -76 118 -117 165 -40 48 -78 95 -83 105 -13
23 2 22 75 -3z m-6244 -233 c0 -18 -7 -42 -15 -55 -12 -16 -13 -27 -5 -41 27
-51 2 -97 -46 -85 l-28 7 17 -26 c20 -31 22 -76 4 -101 -13 -17 -15 -16 -35
15 -12 19 -29 44 -38 56 -20 28 -12 69 15 78 11 3 25 22 32 43 6 20 22 50 35
65 13 16 24 36 24 46 0 20 20 42 32 35 4 -3 8 -20 8 -37z m6123 -74 c41 -11
72 -28 100 -54 36 -35 39 -41 33 -74 -12 -61 -42 -120 -90 -174 -60 -67 -62
-111 -9 -140 33 -17 56 -14 118 19 70 37 83 37 90 3 3 -16 10 -41 17 -58 6
-16 20 -66 32 -110 12 -44 28 -90 34 -102 16 -30 15 -88 -2 -103 -11 -8 -83
-11 -273 -8 -388 5 -386 3 -391 313 -1 105 1 196 6 202 6 10 15 10 40 1 42
-16 52 -5 59 68 3 32 13 73 21 89 22 44 92 126 116 135 29 12 33 12 99 -7z
m-966 -69 c41 -15 42 -16 49 -72 10 -81 11 -534 1 -550 -10 -16 -45 4 -84 47
-33 37 -286 417 -313 470 l-21 43 23 25 c33 35 51 43 121 53 78 10 169 3 224
-16z m2502 -24 c64 -29 167 -141 235 -256 l58 -99 -5 -160 c-3 -88 -11 -189
-18 -224 -13 -65 -87 -222 -108 -229 -17 -6 -14 101 4 144 17 41 13 54 -17 54
-26 0 -58 -27 -58 -50 0 -21 -81 -255 -103 -295 -31 -60 -144 -145 -192 -145
-30 0 -14 40 41 102 79 87 181 244 195 299 18 69 -3 120 -43 103 -7 -3 -33
-46 -58 -97 -25 -51 -71 -130 -102 -177 -66 -100 -156 -190 -168 -170 -11 17
-3 37 31 80 14 19 57 87 94 150 67 115 91 189 66 205 -19 11 -37 -11 -84 -99
-24 -46 -67 -111 -94 -147 -28 -35 -63 -83 -78 -106 -24 -38 -32 -43 -65 -43
-21 0 -43 -7 -50 -15 -15 -18 -60 -20 -60 -2 0 17 52 100 99 157 73 89 109
166 170 370 22 72 56 160 75 196 20 36 36 73 36 84 0 27 -66 90 -94 90 -24 0
-55 -23 -190 -140 -39 -33 -80 -63 -93 -66 -29 -8 -53 1 -53 20 0 16 79 153
118 204 40 52 126 108 228 148 70 27 102 45 128 74 60 66 83 72 155 40z
m-5528 -62 c6 -24 22 -79 35 -123 13 -44 24 -85 24 -91 0 -6 13 -58 30 -115
29 -102 39 -192 21 -203 -18 -11 -32 24 -41 100 -5 44 -16 97 -25 118 -9 21
-23 76 -31 121 -8 46 -21 105 -29 131 -17 56 -19 104 -5 104 5 0 14 -19 21
-42z m-1981 -48 c0 -23 -6 -54 -14 -69 -8 -15 -22 -79 -30 -142 -8 -63 -19
-126 -24 -139 -5 -14 -15 -58 -22 -97 -11 -67 -23 -93 -37 -80 -4 5 29 213 63
392 29 153 64 226 64 135z m4171 19 c24 -24 22 -62 -5 -67 -24 -5 -65 17 -77
41 -23 43 44 64 82 26z m-4481 -44 c0 -44 -15 -63 -37 -49 -23 15 -21 73 3 91
22 16 34 2 34 -42z m4329 -44 c42 -27 87 -60 101 -74 29 -28 82 -57 105 -57
48 0 117 -153 186 -410 52 -194 55 -276 15 -423 -14 -54 -34 -111 -45 -125
-10 -15 -24 -44 -30 -64 -7 -21 -17 -40 -22 -44 -5 -3 -19 -25 -30 -50 -24
-50 -114 -146 -160 -169 -40 -21 -151 -45 -211 -45 -67 0 -321 62 -461 113
-42 15 -131 108 -176 184 -54 92 -97 226 -112 351 -22 181 16 364 97 475 38
52 59 66 76 49 9 -9 7 -16 -5 -30 -24 -26 -21 -32 11 -32 25 0 35 11 76 75 26
41 50 90 53 109 3 19 15 45 26 57 27 28 115 69 152 69 17 0 53 12 80 25 28 14
59 25 70 25 11 1 40 9 65 20 25 10 49 18 54 19 4 1 43 -21 85 -48z m-4391 -50
c2 -21 -6 -47 -22 -76 -14 -24 -26 -54 -26 -67 0 -13 -11 -40 -25 -60 -14 -21
-28 -52 -32 -70 -6 -37 -31 -70 -44 -62 -18 10 -9 71 15 102 13 18 26 54 30
81 5 37 13 53 31 65 19 12 25 25 25 52 0 70 42 101 48 35z m4594 -33 c-15 -15
-27 14 -17 40 6 15 8 15 18 -6 7 -16 7 -26 -1 -34z m-4752 -66 c0 -15 -14 -54
-30 -87 -16 -33 -30 -65 -30 -72 0 -6 -11 -38 -25 -70 -13 -32 -29 -77 -35
-101 -16 -61 -34 -49 -38 25 -2 48 3 76 28 139 65 165 130 248 130 166z m7330
-22 c12 -7 10 -11 -11 -18 -13 -6 -31 -22 -39 -36 -7 -15 -25 -29 -39 -32 -14
-3 -58 -17 -98 -30 -82 -28 -111 -30 -138 -10 -19 14 -19 14 0 36 30 33 49 40
163 60 58 11 110 24 116 30 12 12 26 13 46 0z m-4947 -133 c21 -43 17 -67 -12
-67 -38 0 -72 90 -38 103 21 9 32 2 50 -36z m4780 -105 c9 -8 17 -21 17 -29 0
-16 -14 -22 -134 -59 -95 -28 -118 -26 -124 13 -3 23 40 63 67 63 9 0 25 6 36
14 41 28 104 28 138 -2z m-7169 -65 c-13 -82 -44 -107 -44 -34 0 44 24 92 41
82 5 -4 6 -25 3 -48z m7646 9 c0 -24 -88 -191 -147 -281 -116 -175 -245 -315
-290 -315 -33 0 -12 34 203 330 78 108 149 210 158 227 26 51 76 77 76 39z
m-5281 -57 c14 -40 14 -75 1 -100 -14 -25 -47 -24 -55 2 -12 36 13 129 34 129
5 0 14 -14 20 -31z m-631 -36 c6 -20 -43 -34 -74 -23 -22 9 -24 13 -13 26 15
18 80 15 87 -3z m-1788 -85 c0 -47 -19 -118 -32 -118 -16 0 -14 121 3 152 15
28 29 12 29 -34z m616 -85 c37 -24 123 -165 138 -225 5 -21 0 -34 -23 -60 -46
-53 -47 -71 -6 -116 31 -35 35 -46 35 -93 0 -83 -11 -91 -57 -39 -84 97 -90
102 -113 88 -26 -17 -40 -66 -40 -145 0 -52 -4 -66 -26 -93 -19 -21 -24 -34
-16 -42 5 -5 47 -15 93 -20 46 -6 88 -14 93 -18 5 -5 -12 -52 -37 -107 -25
-54 -51 -117 -57 -140 -6 -24 -14 -43 -19 -43 -10 0 -51 74 -51 92 0 7 11 30
25 50 14 20 25 39 25 42 0 2 -15 14 -34 25 -37 23 -73 27 -109 10 -20 -9 -31
-7 -65 15 -49 30 -48 32 22 175 51 104 54 119 29 128 -11 4 -24 -3 -38 -21
l-22 -28 -33 52 c-53 83 -76 88 -120 26 -36 -54 -37 -60 -5 -102 38 -50 65
-114 65 -156 0 -31 5 -40 29 -53 29 -15 29 -15 24 -87 -10 -131 28 -178 151
-187 l71 -6 -3 -40 c-4 -57 -81 -209 -108 -213 -14 -2 -47 19 -98 63 -79 67
-93 74 -101 53 -6 -16 -35 -170 -42 -219 -10 -73 51 -90 140 -39 54 30 97 39
97 20 0 -45 -100 -144 -162 -160 -21 -6 -54 -20 -73 -32 -23 -13 -61 -22 -103
-26 -79 -6 -151 -38 -184 -82 -12 -17 -28 -30 -35 -30 -7 0 -31 16 -53 36 -45
41 -71 40 -95 -6 -20 -39 -19 -62 5 -93 11 -14 32 -51 46 -82 37 -80 91 -95
196 -55 29 11 56 20 61 20 4 0 7 -16 7 -35 0 -50 -23 -59 -140 -51 -177 11
-224 37 -270 150 -12 31 -28 56 -36 56 -15 0 -19 -13 -34 -115 -6 -40 -19 -82
-31 -98 -23 -32 -20 -40 21 -57 16 -7 30 -16 30 -21 0 -10 -84 -69 -98 -69
-13 0 -90 87 -108 123 -16 30 -13 33 36 39 20 2 26 10 28 33 2 17 18 62 35
100 34 78 47 166 27 190 -24 29 -68 18 -120 -31 -29 -27 -55 -44 -64 -41 -28
11 -58 215 -36 242 20 24 47 18 70 -15 27 -38 56 -45 122 -30 109 26 154 66
112 100 -35 30 -36 47 -3 85 17 20 29 41 26 50 -4 8 -33 28 -65 44 l-59 30
-31 -32 c-17 -18 -40 -54 -51 -80 -26 -60 -45 -57 -49 7 -6 90 70 216 130 216
7 0 36 11 63 25 28 13 57 25 65 25 9 0 32 11 51 24 20 14 48 28 63 32 51 12
26 79 -44 114 -55 28 -66 52 -46 104 19 49 61 97 80 90 7 -3 23 -22 35 -44 27
-48 85 -100 112 -100 31 0 76 51 89 101 14 51 4 106 -22 123 -24 15 -44 1 -84
-55 -17 -24 -34 -44 -39 -44 -17 0 -24 59 -13 104 16 62 90 137 144 146 74 11
109 25 146 55 l37 30 -25 55 c-19 41 -23 59 -15 73 18 33 188 189 248 227 96
60 172 103 190 108 25 7 74 -3 99 -20z m1589 -57 c28 -137 33 -200 15 -211
-21 -13 -59 24 -71 67 -12 46 -7 125 11 157 13 25 38 17 45 -13z m1005 14 c12
-12 19 -24 17 -28 -29 -61 -40 -94 -62 -191 -38 -166 -51 -374 -37 -581 7 -91
19 -190 27 -220 9 -30 22 -80 29 -110 8 -30 19 -68 25 -83 21 -54 14 -73 -65
-164 -93 -108 -157 -201 -224 -326 -59 -111 -244 -511 -267 -577 -8 -25 -28
-73 -44 -108 -16 -34 -29 -70 -29 -80 0 -9 -9 -32 -20 -50 -11 -17 -25 -52
-31 -76 -16 -63 -38 -79 -113 -84 -53 -3 -72 0 -121 23 -34 16 -63 38 -72 54
-8 14 -37 67 -65 116 -32 56 -51 103 -52 124 -1 32 4 38 69 82 89 59 119 99
156 206 16 47 49 127 74 177 27 55 47 111 51 141 9 85 12 91 97 192 183 218
347 483 347 559 0 29 -68 158 -97 186 -41 39 -73 40 -92 3 -8 -16 -40 -58 -71
-91 -84 -91 -180 -216 -249 -327 -89 -143 -330 -456 -371 -482 -44 -29 -106
-40 -126 -24 -11 9 -14 45 -14 168 l0 157 94 78 c51 42 107 86 123 96 32 19
103 105 103 123 0 6 25 65 56 131 53 114 57 127 66 231 5 61 14 128 19 150 6
22 14 153 19 290 5 142 14 264 20 283 20 53 54 45 144 -37 61 -55 86 -71 127
-81 90 -22 141 -8 330 85 94 47 180 85 190 85 10 0 28 -9 39 -20z m-3110 -84
c0 -38 -16 -57 -26 -32 -8 21 3 66 16 66 6 0 10 -15 10 -34z m1773 -16 c94
-63 238 -188 257 -224 12 -24 12 -28 0 -36 -10 -6 -22 -4 -35 5 -11 8 -56 37
-101 64 -148 92 -245 187 -230 226 9 24 30 18 109 -35z m-1943 -35 c0 -25 -4
-45 -10 -45 -11 0 -14 73 -3 83 11 12 13 8 13 -38z m1704 -37 c-2 -79 -24
-128 -58 -128 -42 0 -49 53 -12 97 14 16 28 43 32 59 9 39 14 46 27 41 8 -3
11 -28 11 -69z m4763 48 c92 -77 379 -228 532 -279 40 -14 78 -30 84 -36 8 -8
12 -67 12 -184 0 -185 -10 -237 -48 -262 -12 -7 -76 -28 -143 -45 -98 -25
-136 -30 -205 -28 l-84 3 -34 70 c-19 39 -46 95 -61 125 -15 30 -31 73 -35 95
-4 22 -24 95 -46 163 -62 195 -73 318 -33 380 18 28 26 28 61 -2z m368 -55
c96 -24 242 -74 308 -107 32 -17 47 -31 47 -44 0 -11 -2 -20 -3 -20 -2 0 -92
29 -199 64 -199 65 -278 99 -278 116 0 15 36 12 125 -9z m-7307 -34 c4 -21
-25 -34 -40 -19 -8 8 -8 16 2 27 16 19 34 15 38 -8z m2363 -33 c49 -33 49 -33
27 -48 -30 -21 -96 -20 -120 1 -23 20 -24 69 -1 81 21 12 32 8 94 -34z m-2271
-24 c0 -10 -5 -22 -10 -25 -13 -8 -24 20 -16 41 8 20 26 9 26 -16z m4074 -82
c3 -13 9 -90 12 -171 l7 -149 39 -24 c30 -19 38 -30 38 -54 0 -34 -33 -73 -58
-68 -13 2 -18 17 -22 59 -3 38 -13 68 -32 95 -45 65 -57 201 -26 302 11 37 33
42 42 10z m1581 -71 c9 -69 4 -102 -15 -102 -17 0 -26 68 -15 122 9 49 23 40
30 -20z m2315 36 c0 -28 -16 -47 -34 -40 -16 6 -22 38 -9 50 13 14 43 7 43
-10z m-5626 -18 c75 -37 57 -53 -69 -62 -83 -5 -146 5 -153 25 -2 6 9 23 25
38 25 24 34 26 93 22 38 -2 82 -12 104 -23z m3471 -91 c-3 -24 -10 -42 -16
-39 -11 7 -12 115 -2 142 12 30 26 -51 18 -103z m1985 87 c5 -11 10 -69 10
-129 l0 -110 -67 -50 c-93 -68 -140 -95 -154 -86 -15 9 -6 245 10 289 6 17 26
39 44 49 103 62 139 70 157 37z m-5162 -128 c11 -28 16 -69 16 -148 1 -99 -2
-115 -25 -165 -15 -30 -36 -75 -46 -100 -25 -57 -161 -238 -202 -267 -37 -28
-86 -30 -100 -5 -5 10 -13 43 -17 73 -3 30 -13 69 -20 88 -33 79 -4 129 86
151 27 7 69 26 92 42 60 42 157 137 174 171 14 25 14 31 0 53 -23 34 -51 38
-146 20 -127 -24 -180 -20 -180 14 0 18 21 40 58 59 12 7 75 19 139 26 64 8
118 17 121 20 15 14 35 1 50 -32z m-1307 -47 c0 -17 8 -56 18 -86 19 -57 13
-74 -18 -46 -23 21 -28 20 -58 -4 -15 -11 -28 -18 -30 -16 -3 2 5 34 16 71 12
37 21 79 21 94 0 15 6 33 12 39 17 17 38 -11 39 -52z m2529 -81 c0 -59 -4 -75
-20 -90 -19 -17 -20 -17 -31 11 -6 16 -9 57 -6 92 10 125 57 114 57 -13z
m-2012 54 c66 -67 88 -163 43 -185 -33 -17 -57 -3 -66 37 -4 18 -16 50 -26 73
-10 22 -19 56 -19 74 0 43 27 43 68 1z m4310 -24 c28 -13 52 -29 52 -35 0 -17
-52 -32 -94 -27 -50 7 -71 27 -62 61 8 33 34 34 104 1z m-878 -90 c0 -13 -12
-51 -26 -82 -25 -56 -39 -85 -118 -254 -19 -41 -44 -84 -56 -94 -20 -18 -21
-18 -45 5 -27 25 -165 254 -191 317 -15 36 -15 38 6 55 17 14 41 18 99 19 151
1 250 14 279 37 36 28 52 27 52 -3z m1059 -21 c38 -43 94 -152 171 -335 60
-141 74 -195 85 -309 3 -36 13 -124 21 -196 14 -120 14 -139 0 -209 -9 -42
-16 -98 -16 -124 -1 -25 -10 -71 -21 -101 -11 -30 -26 -76 -33 -102 -17 -57
-51 -115 -76 -128 -76 -41 -183 42 -257 197 -57 118 -60 256 -10 366 31 68 63
99 141 139 138 70 264 248 176 248 -22 0 -38 -14 -111 -101 -44 -52 -49 -55
-135 -77 -111 -28 -173 -28 -255 -1 -113 37 -113 52 1 70 82 12 144 39 159 68
10 17 2 18 -162 24 -232 7 -305 32 -219 76 21 11 86 30 145 42 150 31 161 41
66 59 -29 6 -60 17 -69 26 -13 14 -13 17 8 34 29 24 74 37 172 51 76 11 120
30 120 52 0 7 -7 23 -16 35 -19 28 -55 28 -137 2 -34 -11 -88 -25 -119 -31
-43 -8 -83 -27 -165 -80 l-108 -70 -32 35 c-18 20 -33 39 -33 43 0 9 184 147
246 186 41 26 75 38 229 83 50 14 106 34 125 45 52 27 74 24 109 -17z m-4015
-29 c0 -5 -15 -20 -34 -32 -35 -25 -79 -29 -111 -13 -21 12 -26 46 -6 54 21 9
152 1 151 -9z m-1081 -137 c18 -35 26 -64 22 -77 -12 -40 -115 -51 -129 -14
-7 18 10 85 31 126 21 41 44 31 76 -35z m2497 12 c0 -10 14 -36 30 -58 17 -23
30 -48 30 -55 0 -7 11 -28 25 -47 29 -40 31 -57 8 -82 -22 -24 -50 -23 -67 5
-29 46 -71 242 -59 274 6 14 8 14 20 -3 7 -10 13 -25 13 -34z m-519 -31 c32
-32 20 -81 -61 -248 -93 -190 -133 -248 -295 -426 -76 -82 -149 -167 -163
-188 -14 -21 -39 -45 -54 -53 -48 -25 -119 3 -105 41 16 40 321 430 411 523
107 113 130 150 146 229 5 27 16 62 24 79 8 16 17 37 20 47 7 24 51 22 77 -4z
m2358 -169 c45 -24 31 -75 -24 -86 -50 -9 -86 2 -78 24 9 25 35 53 58 63 26
10 24 10 44 -1z m219 -379 c25 -16 32 -86 32 -352 0 -278 -4 -329 -26 -329
-22 0 -51 52 -64 113 -12 62 -16 372 -5 453 16 113 29 137 63 115z m-608 -54
c13 -7 31 -29 38 -49 19 -48 0 -115 -39 -137 -23 -13 -30 -12 -71 7 -24 12
-51 22 -59 22 -8 0 -24 6 -35 14 -18 14 -18 15 10 45 26 27 28 34 18 55 -11
26 -5 37 28 49 27 10 85 7 110 -6z m-4136 -113 c24 -9 9 -24 -24 -24 -31 0
-48 15 -28 23 19 8 34 8 52 1z m-398 -69 c-4 -11 -15 -15 -38 -13 -43 4 -47
25 -6 36 37 10 54 2 44 -23z m-1524 9 c46 -15 87 -48 75 -60 -24 -24 -198 -31
-216 -10 -17 21 3 54 42 71 41 18 45 18 99 -1z m1756 -1 c2 -8 -6 -13 -22 -13
-25 0 -33 10 -19 24 10 10 36 3 41 -11z m3957 -52 c50 -22 73 -47 57 -63 -29
-29 -171 -30 -204 0 -65 56 53 106 147 63z m-3585 -71 c0 -16 -4 -30 -10 -30
-5 0 -10 14 -10 30 0 17 5 30 10 30 6 0 10 -13 10 -30z m-110 -26 c0 -27 -4
-43 -10 -39 -5 3 -10 24 -10 46 0 21 5 39 10 39 6 0 10 -21 10 -46z m-366 -43
c3 -21 16 -51 28 -66 17 -22 22 -41 22 -82 -2 -103 -37 -87 -50 22 -6 47 -11
58 -30 66 -21 7 -24 15 -24 57 0 86 40 89 54 3z m-181 19 c5 -21 22 -41 57
-66 l50 -36 0 -69 c0 -38 -4 -69 -8 -69 -11 0 -68 87 -92 142 -23 54 -37 128
-23 128 6 0 13 -13 16 -30z m1713 -21 c18 -30 -62 -99 -115 -99 -23 0 -41 22
-23 28 6 2 33 21 59 43 49 40 67 47 79 28z m-1109 -66 c17 -62 3 -217 -18
-196 -11 11 -24 184 -16 207 10 25 26 19 34 -11z m3963 -33 c0 -6 -11 -10 -25
-10 -23 0 -34 18 -19 33 9 8 44 -11 44 -23z m-2546 -30 c30 -11 35 -50 12
-104 -19 -45 -47 -53 -91 -27 -50 29 -150 44 -269 39 -76 -2 -109 -8 -129 -21
-26 -17 -28 -17 -55 1 -15 10 -36 22 -46 28 -27 14 -30 30 -9 38 10 4 83 12
163 17 80 5 186 16 235 23 114 17 157 18 189 6z m2261 -22 c3 -13 6 -66 8
-118 2 -82 0 -95 -15 -98 -12 -2 -20 6 -25 25 -10 35 -10 172 -1 196 10 24 27
21 33 -5z m115 -12 c6 -19 17 -40 25 -46 12 -10 18 -6 32 19 10 17 24 31 31
31 20 0 14 -39 -19 -107 -22 -46 -35 -63 -47 -61 -21 4 -42 64 -49 141 -7 65
9 78 27 23z m214 18 c10 -26 7 -162 -4 -169 -6 -4 -18 -1 -27 6 -12 11 -14 28
-11 85 5 70 12 94 28 94 4 0 11 -7 14 -16z m-747 -51 c8 -25 -57 -74 -177
-134 -69 -35 -137 -72 -151 -82 -22 -15 -31 -17 -48 -8 -32 17 -54 67 -41 91
6 11 12 20 13 20 2 0 41 16 87 36 99 42 266 94 294 91 11 -1 21 -7 23 -14z
m-4133 -22 c7 -11 -113 -121 -131 -121 -16 0 -28 69 -16 89 6 9 21 22 34 28
28 15 105 17 113 4z m4326 -21 c0 -16 -4 -30 -10 -30 -5 0 -10 14 -10 30 0 17
5 30 10 30 6 0 10 -13 10 -30z m-2823 -4 c93 -22 118 -41 104 -78 -13 -35 -70
-98 -121 -133 l-40 -28 -82 63 c-99 77 -205 140 -235 140 -32 0 -29 26 5 45
37 21 267 15 369 -9z m3623 3 c30 -11 82 -29 115 -40 96 -34 175 -77 187 -105
21 -46 -3 -49 -79 -11 -88 45 -262 106 -327 115 -38 5 -52 12 -54 26 -8 41 68
48 158 15z m-5362 -61 c23 -23 14 -66 -23 -103 -20 -19 -44 -35 -55 -35 -10 0
-31 -10 -47 -23 -15 -12 -38 -29 -49 -37 -100 -69 -201 -156 -329 -284 -141
-141 -376 -403 -401 -448 -6 -11 -20 -26 -31 -33 -11 -8 -23 -31 -26 -50 -3
-20 -31 -90 -62 -155 -30 -65 -55 -123 -55 -129 0 -7 -13 -41 -30 -76 -16 -35
-41 -103 -55 -152 -14 -48 -36 -115 -49 -148 -49 -123 -78 -383 -77 -685 0
-142 5 -223 14 -265 8 -33 20 -87 27 -120 7 -33 23 -94 36 -136 13 -42 28 -96
33 -120 10 -48 44 -152 72 -214 9 -22 20 -51 24 -65 4 -14 18 -45 31 -70 13
-25 34 -71 48 -102 14 -32 41 -82 60 -111 54 -81 44 -125 -23 -97 -34 14 -137
115 -187 185 -88 121 -185 371 -242 625 -46 200 -56 295 -56 505 1 166 4 206
27 317 15 70 27 140 27 155 0 15 10 37 21 49 30 32 98 196 148 359 44 141 124
311 202 430 27 41 53 75 59 75 5 0 10 5 10 11 0 15 144 225 247 362 222 291
394 452 589 550 101 51 105 52 122 35z m457 3 c8 -15 -16 -34 -122 -95 -54
-31 -106 -62 -115 -69 -15 -10 -22 -7 -45 16 l-28 28 25 20 c53 41 202 109
240 109 22 0 41 -4 45 -9z m485 -46 c0 -25 -4 -45 -10 -45 -5 0 -10 20 -10 45
0 25 5 45 10 45 6 0 10 -20 10 -45z m1332 31 c101 -17 108 -20 108 -49 -1 -32
-66 -117 -90 -117 -18 0 -65 36 -163 125 -22 19 -43 35 -48 35 -5 0 -9 5 -9
10 0 14 101 12 202 -4z m3109 -52 c171 -79 279 -149 279 -179 0 -7 -18 -37
-41 -65 -46 -59 -121 -100 -182 -100 -32 0 -44 7 -75 41 -93 104 -180 238
-189 293 -13 83 47 86 208 10z m-3951 -8 c29 -25 68 -52 87 -61 37 -18 73 -67
73 -102 0 -21 -83 -103 -106 -103 -6 0 -30 23 -54 51 -23 28 -75 75 -115 104
-40 30 -75 61 -78 69 -8 22 29 64 66 75 57 16 74 12 127 -33z m624 9 c9 -14
21 -25 27 -25 6 0 35 -25 64 -55 28 -30 57 -55 64 -55 6 0 11 -3 11 -8 0 -7
91 -117 130 -157 22 -23 26 -45 8 -45 -11 0 -166 153 -274 270 -28 30 -59 60
-69 66 -11 6 -15 15 -11 22 12 19 32 14 50 -13z m-1406 -1 c12 -8 22 -21 22
-28 0 -13 -120 -113 -203 -169 -73 -49 -107 -48 -170 4 l-38 32 33 34 c47 49
122 95 198 120 77 27 127 29 158 7z m3632 -47 c0 -39 -66 -87 -120 -87 -34 0
-70 15 -70 30 0 10 146 69 173 70 9 0 17 -6 17 -13z m280 4 c0 -5 -45 -57
-100 -115 -113 -117 -152 -140 -195 -112 -62 41 -1 112 171 200 66 34 124 47
124 27z m-3646 -48 c-5 -35 -28 -91 -91 -220 -31 -65 -67 -92 -97 -72 -12 7
-55 22 -96 34 -84 23 -91 33 -64 92 47 99 200 203 300 203 l53 0 -5 -37z
m2944 -4 c3 -38 -28 -89 -54 -89 -8 0 -43 -24 -77 -53 -34 -29 -97 -78 -139
-110 -42 -32 -139 -120 -216 -195 -145 -143 -205 -223 -315 -415 -62 -108 -96
-152 -108 -140 -16 16 -69 163 -69 190 0 37 47 135 116 240 64 99 167 204 282
286 133 96 545 331 567 324 6 -2 11 -19 13 -38z m-1868 -66 c143 -147 320
-386 429 -581 61 -108 150 -301 179 -387 11 -33 27 -73 36 -90 9 -16 16 -38
16 -48 0 -10 13 -53 29 -95 37 -98 51 -140 116 -352 13 -41 37 -142 55 -225
17 -82 40 -182 51 -221 48 -177 -10 -639 -101 -801 -17 -29 -30 -58 -30 -66 0
-7 -11 -28 -23 -47 -13 -19 -32 -58 -41 -87 -9 -28 -24 -57 -32 -63 -7 -7 -14
-17 -14 -22 0 -22 -258 -384 -300 -420 -46 -41 -212 -128 -243 -128 -9 0 -17
6 -17 13 0 7 30 75 66 152 36 77 79 170 95 207 43 98 117 387 129 503 6 55 18
136 28 180 14 67 17 136 17 420 0 214 -5 368 -13 415 -24 154 -73 481 -97 648
-27 192 -56 326 -81 375 -23 43 -167 258 -220 328 -23 31 -55 76 -71 101 -15
25 -58 85 -95 134 -44 57 -68 98 -68 114 1 35 25 97 46 121 32 35 55 23 154
-78z m3122 85 c33 -26 159 -204 170 -240 10 -33 9 -41 -7 -58 -31 -34 -95 -17
-95 26 0 8 -11 32 -25 52 -14 20 -25 43 -25 52 0 8 -16 41 -35 73 -38 63 -41
77 -23 95 15 15 20 15 40 0z m-5044 -20 c2 -9 -33 -54 -86 -110 -93 -98 -210
-245 -238 -300 -9 -18 -33 -55 -53 -83 -38 -51 -124 -189 -146 -235 -7 -14
-19 -38 -27 -55 -8 -16 -20 -39 -26 -50 -6 -11 -20 -40 -31 -65 -12 -25 -30
-59 -41 -77 -10 -18 -29 -65 -41 -105 -12 -40 -34 -107 -49 -148 -55 -151 -71
-219 -96 -435 -24 -206 -26 -256 -31 -800 l-5 -580 37 -100 c45 -123 65 -157
154 -265 39 -46 71 -90 71 -96 0 -7 14 -38 30 -69 34 -64 37 -83 15 -91 -29
-11 -104 38 -182 119 -167 175 -269 310 -328 437 -9 19 -25 53 -35 75 -10 22
-26 83 -35 135 -9 52 -22 122 -30 155 -7 33 -16 87 -20 120 -3 33 -16 134 -28
225 -18 134 -22 211 -21 415 0 157 4 265 12 290 6 22 22 83 35 136 13 53 28
102 32 109 5 8 16 41 26 74 49 176 73 252 83 266 7 8 26 44 44 80 17 36 56 97
87 135 79 101 126 169 185 270 44 75 83 120 234 271 155 154 200 194 314 269
73 48 135 92 138 97 9 15 48 5 52 -14z m4693 2 c19 -11 19 -11 0 -48 -29 -54
-69 -144 -76 -168 -3 -11 -16 -31 -30 -44 -54 -51 -197 -32 -212 28 -7 29 15
51 172 178 79 64 107 74 146 54z m-3621 -30 c77 -32 125 -64 173 -113 58 -62
27 -90 -118 -107 -55 -6 -137 -21 -183 -32 -46 -11 -90 -17 -99 -14 -23 9 -11
95 22 157 14 27 25 55 25 63 0 19 66 76 88 76 9 0 51 -14 92 -30z m3860 -71
c62 -70 120 -158 120 -181 0 -11 -10 -20 -25 -24 -45 -11 -348 1 -373 15 l-23
12 25 24 c14 13 26 31 26 40 0 9 7 18 15 21 8 3 33 40 55 82 23 43 48 82 57
89 23 17 63 -8 123 -78z m915 47 c107 -71 200 -171 325 -351 147 -210 310
-487 310 -525 0 -8 20 -58 45 -110 78 -167 196 -476 218 -570 3 -14 11 -92 17
-175 5 -82 17 -198 26 -257 22 -143 16 -454 -9 -510 -10 -21 -17 -48 -17 -62
0 -26 -100 -185 -145 -229 -16 -15 -36 -26 -44 -25 -25 5 -25 97 -1 226 20
103 21 140 18 390 -4 295 -3 290 -70 547 -12 44 -26 114 -33 155 -26 158 -62
258 -155 426 -49 88 -149 277 -223 420 -74 142 -152 288 -173 323 -22 35 -47
77 -56 93 -10 15 -42 57 -72 93 -82 96 -102 145 -74 173 18 18 53 7 113 -32z
m2931 9 c25 -39 13 -101 -49 -250 -30 -71 -72 -182 -95 -246 -22 -63 -63 -166
-91 -228 -114 -255 -141 -282 -531 -516 -107 -64 -227 -141 -266 -171 -39 -30
-82 -54 -94 -54 -27 0 -76 50 -164 164 l-58 76 65 77 c128 155 256 351 242
372 -11 19 -35 -1 -89 -73 -74 -98 -158 -176 -190 -176 -19 0 -26 5 -26 20 0
11 7 23 15 26 8 3 17 15 21 26 9 28 275 381 333 441 25 27 60 55 76 64 17 8
40 24 51 35 38 34 36 2 -3 -59 -20 -32 -54 -80 -75 -107 -31 -38 -36 -51 -27
-62 17 -21 44 -1 102 77 91 121 98 129 117 129 12 0 30 15 44 38 42 66 97 108
301 230 352 210 360 214 391 167z m-2310 -78 c-9 -12 -35 -55 -59 -95 -89
-155 -102 -176 -114 -180 -26 -8 -13 61 24 130 41 78 134 184 153 173 8 -5 7
-13 -4 -28z m-6291 -28 c22 -22 53 -47 68 -55 34 -18 33 -24 -38 -147 -88
-153 -145 -207 -238 -227 -28 -6 -62 -18 -75 -26 -13 -9 -30 -13 -37 -10 -20
7 -89 -41 -195 -136 -99 -88 -150 -146 -150 -171 0 -8 -14 -31 -30 -52 -65
-82 -86 -255 -42 -347 24 -49 164 -191 200 -202 30 -10 32 -27 16 -103 -35
-162 -46 -284 -51 -593 -6 -363 4 -524 42 -634 13 -39 27 -87 30 -107 4 -20
25 -88 47 -150 22 -63 48 -141 58 -174 41 -133 144 -357 207 -453 50 -75 44
-82 -71 -82 -213 0 -293 47 -398 232 -18 33 -61 104 -96 159 -221 350 -249
488 -223 1104 13 306 56 827 71 854 5 11 19 65 30 121 25 129 92 344 122 389
13 19 39 64 59 100 88 164 121 221 129 221 4 0 19 24 34 53 14 28 41 70 61 91
19 22 35 44 35 49 0 34 205 261 279 309 66 42 107 38 156 -13z m3685 36 c0 -3
-17 -22 -37 -43 -50 -49 -325 -435 -506 -709 -163 -247 -165 -250 -213 -376
-19 -51 -39 -96 -43 -100 -12 -12 -54 45 -90 123 -41 85 -41 146 -3 212 15 25
80 117 146 205 95 127 165 204 355 393 132 132 252 243 272 253 20 9 42 23 49
32 11 14 70 22 70 10z m-2208 -57 c23 -19 118 -138 118 -148 0 -5 33 -53 73
-107 40 -54 76 -106 79 -115 10 -26 -11 -36 -95 -47 -64 -7 -101 -21 -213 -75
-75 -36 -144 -66 -154 -66 -15 0 -19 12 -25 73 -4 39 -16 113 -26 162 -23 112
-24 143 -1 178 16 26 195 155 218 156 5 1 17 -5 26 -11z m4058 -1 c29 -23 60
-70 60 -91 0 -42 51 -129 114 -195 54 -55 80 -96 155 -241 49 -96 97 -195 107
-220 9 -25 25 -57 35 -71 10 -14 22 -44 28 -65 9 -40 32 -100 82 -215 16 -36
29 -78 29 -93 0 -14 7 -43 16 -64 8 -20 22 -66 30 -102 8 -36 23 -99 34 -140
11 -41 26 -115 34 -165 9 -49 20 -110 26 -135 15 -68 24 -566 12 -711 -10
-119 -13 -132 -57 -225 -25 -54 -80 -149 -121 -211 -63 -95 -84 -118 -127
-143 -63 -36 -166 -70 -215 -70 -19 0 -74 -10 -122 -22 -48 -12 -94 -18 -104
-15 -26 10 -19 43 18 82 19 20 71 100 116 177 l81 140 -3 611 c-3 552 -5 615
-20 643 -9 17 -24 61 -32 98 -9 37 -24 81 -33 99 -27 51 -23 169 9 237 28 61
130 181 196 232 23 18 42 38 42 46 0 8 -13 26 -30 40 -16 15 -30 32 -30 38 0
15 -128 153 -178 193 -33 25 -49 30 -144 39 -131 13 -170 30 -198 86 -11 23
-20 52 -20 63 0 12 -12 35 -26 52 -37 45 -43 95 -13 128 41 44 218 203 226
203 5 0 15 -6 23 -13z m-1684 -33 c16 -14 53 -37 82 -51 28 -13 52 -27 52 -29
0 -3 -22 -37 -48 -77 -27 -40 -51 -80 -55 -90 -4 -9 -24 -44 -46 -76 -22 -32
-51 -83 -64 -113 -30 -67 -73 -91 -188 -107 -41 -6 -95 -19 -120 -30 -24 -11
-51 -21 -58 -21 -8 0 -31 -11 -50 -24 -47 -32 -91 -44 -91 -24 0 24 111 184
226 328 119 147 299 340 319 340 6 0 25 -12 41 -26z m-1678 -99 c3 -25 2 -27
-12 -16 -19 16 -22 55 -3 49 6 -3 14 -17 15 -33z m-1833 -19 c44 -22 94 -42
110 -46 21 -4 31 -12 33 -28 3 -20 -31 -145 -74 -272 -8 -25 -24 -78 -34 -117
-24 -91 -59 -173 -74 -173 -6 0 -25 31 -43 68 -18 38 -63 103 -105 151 -40 45
-88 103 -105 128 -32 44 -43 83 -23 83 5 0 20 21 32 46 33 71 174 214 198 201
3 -1 41 -20 85 -41z m744 -40 c37 -40 63 -138 64 -251 1 -106 -19 -196 -81
-359 -45 -117 -31 -240 35 -308 15 -16 37 -28 49 -28 42 0 71 -18 84 -52 16
-44 31 -420 28 -683 l-3 -210 -76 -45 -76 -45 -7 -180 c-6 -144 -10 -183 -23
-197 -20 -23 -47 -23 -85 0 -41 24 -64 65 -83 152 -19 83 -42 127 -77 150 -56
36 -185 70 -303 80 -173 16 -240 33 -282 72 -13 12 -23 32 -23 44 0 18 8 25
38 33 20 6 227 13 460 17 l422 7 0 44 c0 24 -7 58 -16 76 -38 73 -396 597
-424 621 -17 14 -38 26 -47 26 -20 0 -62 -45 -211 -223 -68 -82 -129 -146
-135 -144 -28 9 -42 62 -42 162 1 85 5 109 27 160 14 33 31 85 36 115 6 31 20
79 31 108 12 29 21 66 21 83 0 16 11 57 25 91 14 34 25 69 25 77 0 17 44 185
91 345 16 54 29 111 29 126 0 15 9 38 19 51 17 22 29 24 147 30 99 4 140 11
174 26 53 24 129 50 151 52 8 0 26 -10 38 -23z m3121 -1 c62 -32 73 -52 68
-129 -5 -65 -49 -170 -122 -290 -20 -33 -36 -67 -36 -76 0 -9 -6 -25 -14 -35
-13 -19 -17 -17 -75 28 -33 27 -81 55 -106 63 -42 15 -95 63 -95 87 0 17 78
145 126 207 46 60 128 141 159 158 29 16 40 15 95 -13z m-1959 -30 c12 -19 25
-35 30 -35 5 0 15 -12 21 -27 7 -16 21 -39 33 -53 26 -30 186 -310 246 -430
23 -47 50 -114 59 -150 20 -73 43 -141 72 -215 11 -27 25 -68 30 -90 14 -57
106 -348 134 -425 13 -36 29 -87 34 -115 6 -27 18 -70 28 -95 15 -39 17 -86
17 -350 0 -262 -2 -311 -17 -350 -9 -25 -24 -80 -33 -122 -52 -246 -332 -619
-541 -719 -58 -27 -113 -37 -127 -23 -10 10 10 42 88 139 112 140 196 277 210
343 4 18 22 66 40 105 35 76 42 98 104 327 63 230 75 305 75 480 -1 153 -1
157 -43 295 -23 77 -49 165 -57 195 -8 30 -25 91 -39 135 -14 44 -39 130 -56
190 -17 61 -42 138 -55 172 -13 34 -24 69 -24 77 0 9 -9 42 -21 74 -11 31 -32
95 -45 141 -14 46 -39 118 -56 160 -17 42 -39 103 -48 136 -36 122 -64 191
-88 217 -23 25 -23 48 -1 48 5 0 19 -16 30 -35z m2875 -2 c46 -30 164 -216
164 -259 0 -6 -32 -30 -72 -54 -83 -49 -94 -47 -120 21 -24 63 -78 242 -78
256 0 18 41 53 62 53 10 0 30 -7 44 -17z m-217 -33 c23 -12 54 -84 81 -189 12
-47 28 -98 37 -115 26 -49 10 -122 -56 -265 -72 -153 -91 -209 -91 -262 0 -50
34 -87 103 -114 40 -15 56 -16 95 -7 33 7 51 7 59 0 10 -8 13 -70 13 -252 0
-321 -17 -416 -72 -416 -12 0 -50 11 -85 25 -217 87 -497 105 -664 42 -36 -14
-85 -28 -109 -32 -24 -4 -68 -16 -99 -26 -64 -23 -134 -25 -150 -5 -9 11 -9
28 3 73 8 32 31 146 50 253 46 251 55 281 106 336 52 56 90 137 97 207 4 42 1
62 -17 96 -23 46 -23 64 3 141 72 216 87 257 109 290 8 14 18 37 22 51 3 15
19 56 35 92 l29 65 64 6 c35 3 79 8 98 9 82 8 323 6 339 -3z m-4922 -235 c40
-16 68 -48 58 -65 -4 -6 -48 -10 -98 -10 -144 -1 -282 -17 -324 -39 -47 -24
-72 -51 -154 -166 l-64 -90 -5 -137 c-3 -75 -8 -140 -13 -144 -4 -4 -13 -2
-20 5 -8 8 -12 52 -12 139 0 112 3 132 23 170 12 23 22 49 22 56 0 18 136 173
183 209 25 19 63 33 115 44 42 8 88 21 102 29 34 18 141 17 187 -1z m1776 -63
c75 -33 148 -114 200 -223 64 -132 67 -157 26 -208 -18 -23 -40 -41 -50 -41
-17 0 -21 7 -33 60 -14 66 -155 249 -214 279 -21 10 -52 26 -70 35 -17 10 -61
22 -96 27 -111 15 -120 25 -48 53 26 10 63 25 82 32 47 19 144 12 203 -14z
m3702 -46 c44 -8 103 -22 131 -30 53 -17 160 -81 207 -124 27 -25 35 -56 18
-66 -4 -3 -51 15 -102 40 -143 70 -299 139 -344 153 -75 23 -71 21 -55 31 21
13 52 12 145 -4z m-1782 -45 c89 -15 80 -26 -39 -47 -176 -30 -295 -83 -386
-171 -60 -59 -90 -44 -53 26 13 26 39 47 114 92 14 8 42 25 61 37 19 12 45 22
57 22 12 0 35 11 50 25 23 20 38 24 88 24 33 0 81 -4 108 -8z m142 -315 c7
-17 16 -69 20 -116 9 -108 25 -147 62 -156 15 -4 31 -12 35 -18 16 -23 8 -173
-13 -252 -11 -43 -29 -131 -40 -194 -29 -168 -35 -178 -144 -217 -49 -17 -100
-32 -112 -32 -12 -1 -55 -14 -96 -31 -42 -16 -87 -30 -102 -30 -56 0 -137 -60
-150 -111 -6 -23 -1 -31 30 -55 20 -15 45 -44 55 -64 l19 -37 110 -6 c120 -7
235 -30 265 -52 17 -13 21 -33 27 -127 4 -62 14 -140 22 -173 9 -33 20 -86 26
-118 6 -32 35 -111 66 -176 37 -78 55 -130 55 -157 0 -21 7 -48 15 -58 37 -48
20 -61 -132 -95 -169 -39 -206 -28 -324 89 -133 132 -243 298 -273 411 -8 31
-23 72 -33 90 -51 95 23 797 112 1049 12 36 32 101 44 145 21 76 100 263 126
295 6 8 20 37 30 65 29 78 76 120 169 148 43 13 88 22 99 19 10 -3 25 -19 32
-36z m1615 17 c42 -39 98 -177 115 -285 4 -24 22 -56 50 -89 42 -49 44 -53 50
-137 3 -48 13 -107 21 -132 39 -120 39 -993 0 -1069 -9 -16 -16 -38 -16 -47 0
-10 -13 -47 -29 -83 -15 -36 -33 -79 -39 -96 -5 -16 -32 -83 -60 -149 -42
-101 -55 -123 -92 -152 -69 -55 -152 -75 -320 -81 -87 -2 -151 0 -159 6 -20
13 -18 125 3 173 9 20 36 126 61 235 24 109 51 218 60 243 8 25 21 80 29 122
8 42 21 88 28 102 17 32 121 96 168 103 19 3 46 14 60 23 14 9 58 27 99 39 40
12 98 33 127 46 49 22 54 27 54 56 0 39 -69 114 -115 125 -17 4 -37 12 -45 19
-21 18 -138 65 -183 75 -57 11 -69 28 -55 70 16 50 23 596 9 703 -14 102 -7
139 31 178 41 40 104 41 148 2z m-5412 -58 c17 -19 41 -62 53 -95 25 -69 57
-100 105 -100 25 0 34 -5 40 -22 8 -28 -4 -392 -17 -478 -6 -42 -26 -100 -58
-166 l-48 -100 34 -37 c28 -31 32 -41 23 -57 -14 -27 -23 -26 -99 16 -97 53
-186 119 -273 201 -42 40 -81 73 -87 73 -19 0 -30 -37 -46 -142 -40 -269 -74
-383 -113 -376 -26 5 -34 79 -27 273 6 185 23 352 53 510 l17 90 100 12 c55 6
101 12 103 12 2 1 0 39 -4 85 -13 160 19 256 105 313 52 35 102 31 139 -12z
m1562 -83 c0 -113 -1 -120 -25 -142 -45 -42 -77 -97 -73 -127 3 -24 7 -28 33
-25 45 3 300 133 390 198 44 31 86 57 94 58 9 1 18 -14 23 -39 5 -22 15 -58
23 -80 8 -22 24 -109 35 -194 11 -85 25 -170 31 -190 7 -24 9 -149 7 -371 -4
-307 -7 -348 -31 -495 -15 -88 -34 -180 -42 -205 -7 -25 -19 -72 -25 -105 -20
-101 -158 -450 -242 -610 -44 -84 -110 -166 -161 -200 -70 -46 -130 -59 -235
-52 -155 11 -258 56 -255 113 2 41 31 151 49 186 8 16 19 53 25 83 5 30 18 74
29 97 10 24 21 70 25 103 9 74 42 137 123 235 108 130 366 486 430 594 85 142
132 244 132 284 0 39 -28 98 -62 129 -33 31 -96 56 -125 48 -40 -10 -223 -272
-223 -319 0 -9 -11 -38 -24 -64 -13 -26 -29 -67 -35 -90 -7 -24 -25 -57 -41
-75 -54 -61 -54 -63 -62 556 -7 527 -9 567 -29 637 -24 85 -18 117 25 145 28
18 96 32 169 34 l47 1 0 -118z m1563 97 c30 -28 208 -139 223 -139 31 0 22
-42 -35 -161 -39 -79 -73 -170 -95 -252 -20 -70 -37 -131 -40 -136 -3 -4 -20
-91 -38 -192 -31 -177 -32 -194 -32 -464 -1 -241 1 -286 16 -325 10 -25 22
-67 28 -95 15 -70 111 -259 165 -325 24 -30 41 -58 36 -63 -5 -5 -56 -13 -115
-19 -200 -19 -359 16 -393 87 -15 31 -14 37 1 82 10 26 26 77 36 113 11 36 28
90 39 120 11 30 20 65 21 78 0 13 9 44 21 69 31 69 46 369 32 647 -12 219 -15
235 -79 419 -49 141 -45 235 16 315 21 29 46 75 56 104 9 29 30 77 46 106 33
58 55 65 91 31z m-2462 -396 c38 -41 177 -236 186 -262 3 -9 15 -26 26 -38 26
-30 17 -39 -20 -19 -70 35 -283 306 -270 341 10 26 41 17 78 -22z m6504 -123
c9 -27 21 -52 26 -55 5 -4 9 -24 9 -45 0 -64 -70 -130 -140 -130 -40 0 -39 9
11 150 56 160 65 167 94 80z m-6386 -290 c113 -21 162 -71 84 -84 -49 -8 -606
-8 -627 0 -9 3 -16 10 -16 14 0 14 103 52 175 65 85 16 313 19 384 5z m-2609
-127 c0 -57 -31 -124 -80 -173 -85 -85 -497 -176 -430 -95 8 9 57 41 109 72
191 111 232 136 303 189 40 30 79 54 85 54 9 0 13 -16 13 -47z m3632 -18 c15
-33 -2 -90 -43 -141 -17 -21 -44 -65 -60 -97 -16 -32 -37 -65 -47 -75 -9 -10
-48 -69 -86 -132 -178 -297 -323 -490 -367 -490 -11 0 -42 11 -69 25 -27 14
-56 25 -65 25 -9 0 -34 9 -57 21 -23 12 -64 28 -92 36 -27 8 -95 35 -149 59
-108 48 -274 104 -310 104 -12 1 -47 10 -77 21 -30 11 -95 28 -145 39 -49 10
-133 30 -185 44 -52 15 -167 45 -255 67 -220 56 -234 66 -203 134 10 23 16 25
77 25 159 -1 320 -19 397 -45 43 -14 192 -84 331 -155 140 -72 260 -130 269
-130 8 0 53 -16 100 -34 47 -19 126 -47 177 -61 50 -15 118 -38 150 -51 l59
-25 44 21 c24 12 64 45 90 73 110 125 419 622 453 730 15 44 45 50 63 12z
m3649 -115 c46 -25 11 -61 -121 -122 -100 -48 -209 -89 -275 -106 -22 -5 -55
-16 -74 -23 -32 -14 -34 -13 -62 21 -33 39 -46 77 -32 91 12 12 165 51 287 74
49 9 103 24 120 32 34 18 103 41 124 42 7 1 22 -4 33 -9z m-1402 -64 c44 -21
81 -78 92 -144 14 -76 41 -118 94 -146 33 -17 58 -21 140 -21 l100 0 13 40 c7
22 19 54 27 72 8 17 15 53 15 80 0 27 5 54 12 61 7 7 40 12 78 12 73 0 145
-29 164 -65 6 -11 21 -34 34 -52 12 -18 31 -51 41 -75 23 -54 40 -68 99 -83
35 -9 48 -17 50 -33 7 -48 -108 -415 -188 -597 -39 -90 -54 -115 -86 -146 -33
-32 -37 -33 -146 -41 -123 -8 -149 -5 -212 23 -29 13 -80 20 -166 25 -112 7
-126 9 -145 30 -12 13 -57 99 -101 191 l-79 168 0 250 c0 254 2 273 46 438
l10 39 42 -7 c23 -4 53 -12 66 -19z m-354 -35 l50 -22 20 25 c26 33 35 33 35
1 0 -47 -75 -73 -162 -56 -134 27 -229 49 -234 54 -4 3 -3 11 1 18 6 8 40 10
124 7 91 -4 127 -10 166 -27z m769 -17 c19 -49 -7 -80 -35 -45 -14 17 -16 27
-9 42 13 23 36 25 44 3z m-6315 -61 c5 -10 14 -65 20 -123 l12 -105 -84 -80
c-87 -83 -205 -160 -308 -200 -70 -28 -256 -71 -265 -62 -21 20 27 95 85 132
38 25 115 94 354 318 81 75 154 137 162 137 8 0 18 -8 24 -17z m2635 -52 c23
-36 12 -201 -14 -201 -23 0 -49 155 -31 189 12 21 35 28 45 12z m3570 -1 c35
-13 33 -36 -4 -43 -45 -10 -90 2 -90 23 0 29 46 39 94 20z m2790 -3 c18 -13
18 -15 1 -41 -35 -52 -202 -166 -245 -166 -10 0 -29 -9 -44 -21 -44 -35 -116
-46 -116 -18 0 10 206 149 292 198 31 18 59 38 62 46 7 19 27 19 50 2z m-7461
-192 c160 -28 356 -117 387 -176 7 -12 18 -76 26 -143 30 -259 64 -403 124
-531 15 -33 54 -115 86 -182 34 -74 67 -129 81 -138 17 -11 23 -25 23 -51 0
-48 -14 -70 -51 -83 -58 -20 -105 -13 -215 34 -57 25 -113 45 -122 45 -31 1
-108 83 -162 175 -14 23 -38 62 -53 86 -61 96 -98 163 -103 188 -4 14 -15 40
-24 56 -10 17 -23 56 -29 88 -6 31 -16 67 -22 80 -7 12 -23 56 -35 97 -31 103
-52 166 -75 225 -14 37 -19 75 -19 148 l0 97 49 0 c26 0 87 -7 134 -15z m667
-182 c41 -9 86 -21 100 -28 14 -8 55 -21 90 -30 36 -9 74 -22 85 -29 11 -8 36
-17 55 -21 43 -9 259 -103 353 -154 82 -43 81 -17 12 -286 -12 -49 -40 -161
-60 -247 -21 -86 -41 -162 -45 -167 -11 -19 -172 -60 -284 -73 l-109 -12 -44
49 c-58 63 -108 149 -215 368 -10 21 -23 62 -29 90 -6 29 -22 88 -35 131 -55
177 -33 458 34 431 9 -4 51 -14 92 -22z m6500 -88 c0 -15 -26 -20 -54 -9 -24
9 -9 24 25 24 19 0 29 -5 29 -15z m-481 -259 c16 -19 -24 -29 -79 -20 -39 6
-47 13 -33 27 12 13 100 7 112 -7z m-8024 -118 c14 -6 25 -15 25 -20 0 -4 31
-41 69 -80 37 -40 73 -83 80 -95 10 -20 8 -24 -18 -37 -50 -26 -173 -56 -256
-62 -76 -6 -85 -4 -178 32 -55 20 -102 44 -105 52 -9 25 74 91 186 150 56 29
104 57 107 63 8 13 59 11 90 -3z m522 -435 c6 -16 -32 -26 -107 -27 -78 0
-103 10 -74 31 24 17 175 14 181 -4z"/>
<path d="M8675 10570 c-8 -13 3 -52 46 -163 22 -53 39 -102 39 -107 0 -13 -79
-102 -109 -122 -14 -10 -36 -18 -47 -18 -31 0 -48 -24 -29 -40 24 -20 108 -7
155 24 47 31 97 113 106 174 5 36 1 53 -31 119 -55 110 -109 166 -130 133z"/>
<path d="M8407 10428 c-79 -129 -90 -184 -49 -235 12 -15 29 -42 37 -60 10
-21 26 -35 50 -43 20 -7 39 -9 43 -6 10 11 -24 60 -57 81 -42 27 -42 72 -1
124 39 47 49 101 26 136 -20 31 -32 32 -49 3z"/>
<path d="M8217 10173 c-13 -21 -50 -78 -82 -127 -111 -172 -152 -291 -111
-325 17 -14 28 -1 44 54 16 53 92 149 121 153 13 2 32 -5 45 -17 51 -48 226
-81 431 -81 158 0 241 13 307 46 37 19 58 23 80 19 21 -5 33 -3 39 6 13 20 11
123 -2 156 l-12 28 -9 -33 c-17 -62 -68 -18 -68 58 0 78 -69 109 -99 45 -17
-37 -75 -100 -116 -125 -16 -10 -82 -33 -145 -51 -178 -50 -307 -43 -377 23
-29 27 -30 70 -2 114 24 39 22 87 -3 92 -11 2 -26 -11 -41 -35z"/>
<path d="M8124 9675 c-4 -8 -3 -26 0 -40 6 -22 12 -25 54 -25 50 0 90 19 79
38 -7 11 -91 42 -114 42 -8 0 -16 -7 -19 -15z"/>
<path d="M8462 9519 c-46 -22 -62 -34 -60 -47 8 -40 128 -15 168 35 40 52 -11
57 -108 12z"/>
<path d="M4394 8565 c-4 -8 -1 -22 6 -30 21 -25 90 -17 90 11 0 31 -85 48 -96
19z"/>
<path d="M4203 8553 c-19 -7 -16 -62 3 -70 39 -15 71 40 38 64 -19 14 -22 14
-41 6z"/>
<path d="M7342 6968 c-17 -17 -15 -42 6 -61 25 -23 49 -21 62 4 23 41 -35 90
-68 57z"/>
<path d="M6895 6918 c-31 -17 -75 -60 -75 -74 0 -15 53 -60 81 -69 45 -15 83
67 57 123 -15 30 -34 37 -63 20z"/>
<path d="M7327 6693 c-12 -11 -8 -56 13 -128 27 -96 25 -123 -15 -199 -36 -69
-42 -91 -25 -101 36 -22 160 114 160 175 0 12 14 34 30 48 17 15 30 35 30 45
0 28 -33 69 -92 114 -55 42 -90 58 -101 46z"/>
<path d="M6986 6658 c-9 -20 -27 -80 -41 -133 -21 -82 -25 -120 -25 -241 l0
-144 51 0 c40 0 77 -11 164 -50 62 -27 117 -50 121 -50 5 0 29 -14 53 -30 51
-35 108 -40 138 -12 11 9 39 43 62 74 49 66 100 108 131 108 19 0 22 4 17 33
-11 63 -37 142 -57 167 -11 14 -27 41 -36 60 -14 32 -17 33 -24 15 -5 -11 -15
-51 -24 -90 -33 -142 -103 -193 -279 -202 l-104 -6 -49 53 c-49 52 -84 99 -84
112 0 4 12 13 28 20 34 17 38 46 17 128 -9 33 -19 91 -22 128 -8 92 -18 107
-37 60z"/>
<path d="M7146 6267 c-15 -11 -16 -17 -8 -34 22 -40 102 -40 123 -1 11 21 -1
37 -27 38 -6 0 -24 3 -40 6 -17 3 -37 0 -48 -9z"/>
<path d="M3137 6355 c-30 -24 -69 -62 -87 -85 l-32 -40 29 -11 c60 -23 278 35
291 78 2 7 -15 20 -37 29 -23 9 -51 29 -62 45 -11 16 -26 29 -34 29 -7 0 -38
-20 -68 -45z"/>
<path d="M2803 5718 c-4 -7 -13 -40 -19 -73 -6 -33 -17 -75 -25 -92 -12 -29
-11 -35 3 -49 32 -33 99 6 148 85 27 43 28 47 12 65 -21 23 -92 76 -103 76 -4
0 -11 -6 -16 -12z"/>
<path d="M2656 5397 c-8 -7 -20 -36 -26 -64 -5 -29 -19 -71 -31 -94 -24 -47
-15 -65 26 -55 34 9 102 80 110 116 12 55 -43 123 -79 97z"/>
<path d="M2860 5364 c-20 -51 -6 -102 23 -91 18 7 32 66 22 96 -9 29 -33 26
-45 -5z"/>
<path d="M2750 5217 c-53 -27 -30 -122 25 -100 19 7 45 55 45 81 0 31 -30 39
-70 19z"/>
<path d="M2466 5087 c-43 -65 -70 -213 -43 -235 12 -10 24 -6 68 22 146 93
159 109 118 135 -13 9 -44 35 -68 58 -25 24 -48 43 -53 43 -4 0 -14 -10 -22
-23z"/>
<path d="M7417 4833 c-10 -9 -9 -51 2 -57 4 -3 16 3 26 14 15 16 15 22 5 35
-14 16 -23 19 -33 8z"/>
<path d="M7056 2880 c-27 -5 -53 -15 -57 -22 -17 -26 -59 -145 -78 -220 -11
-42 -27 -88 -36 -102 -9 -14 -25 -56 -35 -93 -10 -37 -25 -86 -33 -107 -18
-49 -12 -74 21 -83 38 -9 593 15 630 28 42 14 51 48 27 108 -9 25 -23 66 -30
91 -7 25 -23 63 -34 85 -12 21 -21 47 -21 57 0 27 -22 68 -36 68 -30 0 -28
-104 3 -182 8 -20 13 -44 11 -54 -5 -26 -64 28 -78 72 -16 48 -8 148 13 172
34 38 11 154 -35 171 -36 14 -178 20 -232 11z m-101 -428 l10 -67 40 3 c22 2
85 4 140 5 84 1 108 -2 149 -21 41 -19 47 -24 36 -37 -10 -12 -40 -15 -154
-15 -199 0 -211 3 -232 54 -9 22 -19 70 -21 106 -5 55 -3 63 8 52 8 -7 19 -43
24 -80z"/>
</g>
</svg>
